<?xml version="1.0" encoding="UTF-8" standalone="no"?>
<!-- Created with Inkscape (http://www.inkscape.org/) -->

<svg
   xmlns:dc="http://purl.org/dc/elements/1.1/"
   xmlns:cc="http://creativecommons.org/ns#"
   xmlns:rdf="http://www.w3.org/1999/02/22-rdf-syntax-ns#"
   xmlns:svg="http://www.w3.org/2000/svg"
   xmlns="http://www.w3.org/2000/svg"
   xmlns:sodipodi="http://sodipodi.sourceforge.net/DTD/sodipodi-0.dtd"
   xmlns:inkscape="http://www.inkscape.org/namespaces/inkscape"
   id="svg4208"
   version="1.1"
   inkscape:version="0.91 r"
   width="3304.7312"
   height="2046.1134"
   viewBox="0 0 3304.7312 2046.1134"
   sodipodi:docname="mockwhite2.svg">
  <metadata
     id="metadata4214">
    <rdf:RDF>
      <cc:Work
         rdf:about="">
        <dc:format>image/svg+xml</dc:format>
        <dc:type
           rdf:resource="http://purl.org/dc/dcmitype/StillImage" />
        <dc:title></dc:title>
      </cc:Work>
    </rdf:RDF>
  </metadata>
  <defs
     id="defs4212">
    <inkscape:path-effect
       effect="skeletal"
       id="path-effect4945"
       is_visible="true"
       pattern="m -576.8717,-6.4086355 c 0,-2.76 2.24,-5.0000005 5,-5.0000005 2.76,0 5,2.2400005 5,5.0000005 0,2.76 -2.24,5 -5,5 -2.76,0 -5,-2.24 -5,-5 z"
       copytype="single_stretched"
       prop_scale="1"
       scale_y_rel="false"
       spacing="0"
       normal_offset="0"
       tang_offset="0"
       prop_units="false"
       vertical_pattern="false"
       fuse_tolerance="0" />
    <inkscape:path-effect
       effect="skeletal"
       id="path-effect4941"
       is_visible="true"
       pattern="m -576.8717,-6.4086355 c 0,-2.76 2.24,-5.0000005 5,-5.0000005 2.76,0 5,2.2400005 5,5.0000005 0,2.76 -2.24,5 -5,5 -2.76,0 -5,-2.24 -5,-5 z"
       copytype="single_stretched"
       prop_scale="1"
       scale_y_rel="false"
       spacing="0"
       normal_offset="0"
       tang_offset="0"
       prop_units="false"
       vertical_pattern="false"
       fuse_tolerance="0" />
    <inkscape:path-effect
       effect="skeletal"
       id="path-effect4937"
       is_visible="true"
       pattern="m -576.8717,-6.4086355 c 0,-2.76 2.24,-5.0000005 5,-5.0000005 2.76,0 5,2.2400005 5,5.0000005 0,2.76 -2.24,5 -5,5 -2.76,0 -5,-2.24 -5,-5 z"
       copytype="single_stretched"
       prop_scale="1"
       scale_y_rel="false"
       spacing="0"
       normal_offset="0"
       tang_offset="0"
       prop_units="false"
       vertical_pattern="false"
       fuse_tolerance="0" />
    <inkscape:path-effect
       effect="skeletal"
       id="path-effect4933"
       is_visible="true"
       pattern="m -576.8717,-6.4086355 c 0,-2.76 2.24,-5.0000005 5,-5.0000005 2.76,0 5,2.2400005 5,5.0000005 0,2.76 -2.24,5 -5,5 -2.76,0 -5,-2.24 -5,-5 z"
       copytype="single_stretched"
       prop_scale="1"
       scale_y_rel="false"
       spacing="0"
       normal_offset="0"
       tang_offset="0"
       prop_units="false"
       vertical_pattern="false"
       fuse_tolerance="0" />
    <inkscape:path-effect
       effect="skeletal"
       id="path-effect4929"
       is_visible="true"
       pattern="M 0,5 C 0,2.24 2.24,0 5,0 7.76,0 10,2.24 10,5 10,7.76 7.76,10 5,10 2.24,10 0,7.76 0,5 Z"
       copytype="single_stretched"
       prop_scale="1"
       scale_y_rel="false"
       spacing="0"
       normal_offset="0"
       tang_offset="0"
       prop_units="false"
       vertical_pattern="false"
       fuse_tolerance="0" />
    <inkscape:path-effect
       effect="skeletal"
       id="path-effect4925"
       is_visible="true"
       pattern="m -576.8717,-6.4086355 c 0,-2.76 2.24,-5.0000005 5,-5.0000005 2.76,0 5,2.2400005 5,5.0000005 0,2.76 -2.24,5 -5,5 -2.76,0 -5,-2.24 -5,-5 z"
       copytype="single_stretched"
       prop_scale="1"
       scale_y_rel="false"
       spacing="0"
       normal_offset="0"
       tang_offset="0"
       prop_units="false"
       vertical_pattern="false"
       fuse_tolerance="0" />
    <inkscape:path-effect
       effect="skeletal"
       id="path-effect4921"
       is_visible="true"
       pattern="m -576.8717,-6.4086355 c 0,-2.76 2.24,-5.0000005 5,-5.0000005 2.76,0 5,2.2400005 5,5.0000005 0,2.76 -2.24,5 -5,5 -2.76,0 -5,-2.24 -5,-5 z"
       copytype="single_stretched"
       prop_scale="1"
       scale_y_rel="false"
       spacing="0"
       normal_offset="0"
       tang_offset="0"
       prop_units="false"
       vertical_pattern="false"
       fuse_tolerance="0" />
    <inkscape:path-effect
       effect="skeletal"
       id="path-effect4917"
       is_visible="true"
       pattern="m -576.8717,-6.4086355 c 0,-2.76 2.24,-5.0000005 5,-5.0000005 2.76,0 5,2.2400005 5,5.0000005 0,2.76 -2.24,5 -5,5 -2.76,0 -5,-2.24 -5,-5 z"
       copytype="single_stretched"
       prop_scale="1"
       scale_y_rel="false"
       spacing="0"
       normal_offset="0"
       tang_offset="0"
       prop_units="false"
       vertical_pattern="false"
       fuse_tolerance="0" />
    <inkscape:path-effect
       effect="skeletal"
       id="path-effect4903"
       is_visible="true"
       pattern="m -576.8717,-6.4086355 c 0,-2.76 2.24,-5.0000005 5,-5.0000005 2.76,0 5,2.2400005 5,5.0000005 0,2.76 -2.24,5 -5,5 -2.76,0 -5,-2.24 -5,-5 z"
       copytype="single_stretched"
       prop_scale="1"
       scale_y_rel="false"
       spacing="0"
       normal_offset="0"
       tang_offset="0"
       prop_units="false"
       vertical_pattern="false"
       fuse_tolerance="0" />
    <inkscape:path-effect
       effect="skeletal"
       id="path-effect4899"
       is_visible="true"
       pattern="m -576.8717,-6.4086355 c 0,-2.76 2.24,-5.0000005 5,-5.0000005 2.76,0 5,2.2400005 5,5.0000005 0,2.76 -2.24,5 -5,5 -2.76,0 -5,-2.24 -5,-5 z"
       copytype="single_stretched"
       prop_scale="1"
       scale_y_rel="false"
       spacing="0"
       normal_offset="0"
       tang_offset="0"
       prop_units="false"
       vertical_pattern="false"
       fuse_tolerance="0" />
    <inkscape:path-effect
       effect="skeletal"
       id="path-effect4895"
       is_visible="true"
       pattern="m -576.8717,-6.4086355 c 0,-2.76 2.24,-5.0000005 5,-5.0000005 2.76,0 5,2.2400005 5,5.0000005 0,2.76 -2.24,5 -5,5 -2.76,0 -5,-2.24 -5,-5 z"
       copytype="single_stretched"
       prop_scale="1"
       scale_y_rel="false"
       spacing="0"
       normal_offset="0"
       tang_offset="0"
       prop_units="false"
       vertical_pattern="false"
       fuse_tolerance="0" />
    <inkscape:path-effect
       effect="skeletal"
       id="path-effect4891"
       is_visible="true"
       pattern="m -576.8717,-6.4086355 c 0,-2.76 2.24,-5.0000005 5,-5.0000005 2.76,0 5,2.2400005 5,5.0000005 0,2.76 -2.24,5 -5,5 -2.76,0 -5,-2.24 -5,-5 z"
       copytype="single_stretched"
       prop_scale="1"
       scale_y_rel="false"
       spacing="0"
       normal_offset="0"
       tang_offset="0"
       prop_units="false"
       vertical_pattern="false"
       fuse_tolerance="0" />
    <inkscape:path-effect
       effect="skeletal"
       id="path-effect4887"
       is_visible="true"
       pattern="m -576.8717,-6.4086355 c 0,-2.76 2.24,-5.0000005 5,-5.0000005 2.76,0 5,2.2400005 5,5.0000005 0,2.76 -2.24,5 -5,5 -2.76,0 -5,-2.24 -5,-5 z"
       copytype="single_stretched"
       prop_scale="1"
       scale_y_rel="false"
       spacing="0"
       normal_offset="0"
       tang_offset="0"
       prop_units="false"
       vertical_pattern="false"
       fuse_tolerance="0" />
    <inkscape:path-effect
       effect="skeletal"
       id="path-effect4883"
       is_visible="true"
       pattern="m -576.8717,-6.4086355 c 0,-2.76 2.24,-5.0000005 5,-5.0000005 2.76,0 5,2.2400005 5,5.0000005 0,2.76 -2.24,5 -5,5 -2.76,0 -5,-2.24 -5,-5 z"
       copytype="single_stretched"
       prop_scale="1"
       scale_y_rel="false"
       spacing="0"
       normal_offset="0"
       tang_offset="0"
       prop_units="false"
       vertical_pattern="false"
       fuse_tolerance="0" />
    <inkscape:path-effect
       effect="skeletal"
       id="path-effect4867"
       is_visible="true"
       pattern="m -576.8717,-6.4086355 c 0,-2.76 2.24,-5.0000005 5,-5.0000005 2.76,0 5,2.2400005 5,5.0000005 0,2.76 -2.24,5 -5,5 -2.76,0 -5,-2.24 -5,-5 z"
       copytype="single_stretched"
       prop_scale="1"
       scale_y_rel="false"
       spacing="0"
       normal_offset="0"
       tang_offset="0"
       prop_units="false"
       vertical_pattern="false"
       fuse_tolerance="0" />
    <inkscape:path-effect
       effect="skeletal"
       id="path-effect4863"
       is_visible="true"
       pattern="m -576.8717,-6.4086355 c 0,-2.76 2.24,-5.0000005 5,-5.0000005 2.76,0 5,2.2400005 5,5.0000005 0,2.76 -2.24,5 -5,5 -2.76,0 -5,-2.24 -5,-5 z"
       copytype="single_stretched"
       prop_scale="1"
       scale_y_rel="false"
       spacing="0"
       normal_offset="0"
       tang_offset="0"
       prop_units="false"
       vertical_pattern="false"
       fuse_tolerance="0" />
    <inkscape:path-effect
       effect="skeletal"
       id="path-effect4859"
       is_visible="true"
       pattern="m -576.8717,-6.4086355 c 0,-2.76 2.24,-5.0000005 5,-5.0000005 2.76,0 5,2.2400005 5,5.0000005 0,2.76 -2.24,5 -5,5 -2.76,0 -5,-2.24 -5,-5 z"
       copytype="single_stretched"
       prop_scale="1"
       scale_y_rel="false"
       spacing="0"
       normal_offset="0"
       tang_offset="0"
       prop_units="false"
       vertical_pattern="false"
       fuse_tolerance="0" />
    <inkscape:path-effect
       effect="skeletal"
       id="path-effect4855"
       is_visible="true"
       pattern="m -576.8717,-6.4086355 c 0,-2.76 2.24,-5.0000005 5,-5.0000005 2.76,0 5,2.2400005 5,5.0000005 0,2.76 -2.24,5 -5,5 -2.76,0 -5,-2.24 -5,-5 z"
       copytype="single_stretched"
       prop_scale="1"
       scale_y_rel="false"
       spacing="0"
       normal_offset="0"
       tang_offset="0"
       prop_units="false"
       vertical_pattern="false"
       fuse_tolerance="0" />
    <inkscape:path-effect
       effect="skeletal"
       id="path-effect4851"
       is_visible="true"
       pattern="m -576.8717,-6.4086355 c 0,-2.76 2.24,-5.0000005 5,-5.0000005 2.76,0 5,2.2400005 5,5.0000005 0,2.76 -2.24,5 -5,5 -2.76,0 -5,-2.24 -5,-5 z"
       copytype="single_stretched"
       prop_scale="1"
       scale_y_rel="false"
       spacing="0"
       normal_offset="0"
       tang_offset="0"
       prop_units="false"
       vertical_pattern="false"
       fuse_tolerance="0" />
    <inkscape:path-effect
       effect="skeletal"
       id="path-effect4847"
       is_visible="true"
       pattern="m -576.8717,-6.4086355 c 0,-2.76 2.24,-5.0000005 5,-5.0000005 2.76,0 5,2.2400005 5,5.0000005 0,2.76 -2.24,5 -5,5 -2.76,0 -5,-2.24 -5,-5 z"
       copytype="single_stretched"
       prop_scale="1"
       scale_y_rel="false"
       spacing="0"
       normal_offset="0"
       tang_offset="0"
       prop_units="false"
       vertical_pattern="false"
       fuse_tolerance="0" />
    <inkscape:path-effect
       effect="skeletal"
       id="path-effect4843"
       is_visible="true"
       pattern="m -576.8717,-6.4086355 c 0,-2.76 2.24,-5.0000005 5,-5.0000005 2.76,0 5,2.2400005 5,5.0000005 0,2.76 -2.24,5 -5,5 -2.76,0 -5,-2.24 -5,-5 z"
       copytype="single_stretched"
       prop_scale="1"
       scale_y_rel="false"
       spacing="0"
       normal_offset="0"
       tang_offset="0"
       prop_units="false"
       vertical_pattern="false"
       fuse_tolerance="0" />
    <inkscape:path-effect
       effect="skeletal"
       id="path-effect4839"
       is_visible="true"
       pattern="m -576.8717,-6.4086355 c 0,-2.76 2.24,-5.0000005 5,-5.0000005 2.76,0 5,2.2400005 5,5.0000005 0,2.76 -2.24,5 -5,5 -2.76,0 -5,-2.24 -5,-5 z"
       copytype="single_stretched"
       prop_scale="1"
       scale_y_rel="false"
       spacing="0"
       normal_offset="0"
       tang_offset="0"
       prop_units="false"
       vertical_pattern="false"
       fuse_tolerance="0" />
    <inkscape:path-effect
       effect="skeletal"
       id="path-effect4835"
       is_visible="true"
       pattern="m -576.8717,-6.4086355 c 0,-2.76 2.24,-5.0000005 5,-5.0000005 2.76,0 5,2.2400005 5,5.0000005 0,2.76 -2.24,5 -5,5 -2.76,0 -5,-2.24 -5,-5 z"
       copytype="single_stretched"
       prop_scale="1"
       scale_y_rel="false"
       spacing="0"
       normal_offset="0"
       tang_offset="0"
       prop_units="false"
       vertical_pattern="false"
       fuse_tolerance="0" />
    <inkscape:path-effect
       effect="skeletal"
       id="path-effect4831"
       is_visible="true"
       pattern="m -576.8717,-6.4086355 c 0,-2.76 2.24,-5.0000005 5,-5.0000005 2.76,0 5,2.2400005 5,5.0000005 0,2.76 -2.24,5 -5,5 -2.76,0 -5,-2.24 -5,-5 z"
       copytype="single_stretched"
       prop_scale="1"
       scale_y_rel="false"
       spacing="0"
       normal_offset="0"
       tang_offset="0"
       prop_units="false"
       vertical_pattern="false"
       fuse_tolerance="0" />
    <inkscape:path-effect
       effect="skeletal"
       id="path-effect4827"
       is_visible="true"
       pattern="m -576.8717,-6.4086355 c 0,-2.76 2.24,-5.0000005 5,-5.0000005 2.76,0 5,2.2400005 5,5.0000005 0,2.76 -2.24,5 -5,5 -2.76,0 -5,-2.24 -5,-5 z"
       copytype="single_stretched"
       prop_scale="1"
       scale_y_rel="false"
       spacing="0"
       normal_offset="0"
       tang_offset="0"
       prop_units="false"
       vertical_pattern="false"
       fuse_tolerance="0" />
    <inkscape:path-effect
       effect="skeletal"
       id="path-effect4823"
       is_visible="true"
       pattern="m -576.8717,-6.4086355 c 0,-2.76 2.24,-5.0000005 5,-5.0000005 2.76,0 5,2.2400005 5,5.0000005 0,2.76 -2.24,5 -5,5 -2.76,0 -5,-2.24 -5,-5 z"
       copytype="single_stretched"
       prop_scale="1"
       scale_y_rel="false"
       spacing="0"
       normal_offset="0"
       tang_offset="0"
       prop_units="false"
       vertical_pattern="false"
       fuse_tolerance="0" />
    <inkscape:path-effect
       effect="skeletal"
       id="path-effect4819"
       is_visible="true"
       pattern="m -576.8717,-6.4086355 c 0,-2.76 2.24,-5.0000005 5,-5.0000005 2.76,0 5,2.2400005 5,5.0000005 0,2.76 -2.24,5 -5,5 -2.76,0 -5,-2.24 -5,-5 z"
       copytype="single_stretched"
       prop_scale="1"
       scale_y_rel="false"
       spacing="0"
       normal_offset="0"
       tang_offset="0"
       prop_units="false"
       vertical_pattern="false"
       fuse_tolerance="0" />
    <inkscape:path-effect
       effect="skeletal"
       id="path-effect4815"
       is_visible="true"
       pattern="m -576.8717,-6.4086355 c 0,-2.76 2.24,-5.0000005 5,-5.0000005 2.76,0 5,2.2400005 5,5.0000005 0,2.76 -2.24,5 -5,5 -2.76,0 -5,-2.24 -5,-5 z"
       copytype="single_stretched"
       prop_scale="1"
       scale_y_rel="false"
       spacing="0"
       normal_offset="0"
       tang_offset="0"
       prop_units="false"
       vertical_pattern="false"
       fuse_tolerance="0" />
    <inkscape:path-effect
       effect="skeletal"
       id="path-effect4811"
       is_visible="true"
       pattern="m -576.8717,-6.4086355 c 0,-2.76 2.24,-5.0000005 5,-5.0000005 2.76,0 5,2.2400005 5,5.0000005 0,2.76 -2.24,5 -5,5 -2.76,0 -5,-2.24 -5,-5 z"
       copytype="single_stretched"
       prop_scale="1"
       scale_y_rel="false"
       spacing="0"
       normal_offset="0"
       tang_offset="0"
       prop_units="false"
       vertical_pattern="false"
       fuse_tolerance="0" />
    <inkscape:path-effect
       effect="skeletal"
       id="path-effect4807"
       is_visible="true"
       pattern="m -576.8717,-6.4086355 c 0,-2.76 2.24,-5.0000005 5,-5.0000005 2.76,0 5,2.2400005 5,5.0000005 0,2.76 -2.24,5 -5,5 -2.76,0 -5,-2.24 -5,-5 z"
       copytype="single_stretched"
       prop_scale="1"
       scale_y_rel="false"
       spacing="0"
       normal_offset="0"
       tang_offset="0"
       prop_units="false"
       vertical_pattern="false"
       fuse_tolerance="0" />
    <inkscape:path-effect
       effect="skeletal"
       id="path-effect4803"
       is_visible="true"
       pattern="m -576.8717,-6.4086355 c 0,-2.76 2.24,-5.0000005 5,-5.0000005 2.76,0 5,2.2400005 5,5.0000005 0,2.76 -2.24,5 -5,5 -2.76,0 -5,-2.24 -5,-5 z"
       copytype="single_stretched"
       prop_scale="1"
       scale_y_rel="false"
       spacing="0"
       normal_offset="0"
       tang_offset="0"
       prop_units="false"
       vertical_pattern="false"
       fuse_tolerance="0" />
    <inkscape:path-effect
       effect="skeletal"
       id="path-effect4799"
       is_visible="true"
       pattern="m -576.8717,-6.4086355 c 0,-2.76 2.24,-5.0000005 5,-5.0000005 2.76,0 5,2.2400005 5,5.0000005 0,2.76 -2.24,5 -5,5 -2.76,0 -5,-2.24 -5,-5 z"
       copytype="single_stretched"
       prop_scale="1"
       scale_y_rel="false"
       spacing="0"
       normal_offset="0"
       tang_offset="0"
       prop_units="false"
       vertical_pattern="false"
       fuse_tolerance="0" />
    <inkscape:path-effect
       fuse_tolerance="0"
       vertical_pattern="false"
       prop_units="false"
       tang_offset="0"
       normal_offset="0"
       spacing="0"
       scale_y_rel="false"
       prop_scale="1"
       copytype="single_stretched"
       pattern="m -622.70503,-218.90863 c 0,-2.76 2.24,-5 5,-5 2.76,0 5,2.24 5,5 0,2.76 -2.24,5 -5,5 -2.76,0 -5,-2.24 -5,-5 z"
       is_visible="true"
       id="path-effect4795"
       effect="skeletal" />
    <inkscape:path-effect
       effect="skeletal"
       id="path-effect4791"
       is_visible="true"
       pattern="m -576.8717,-6.4086355 c 0,-2.76 2.24,-5.0000005 5,-5.0000005 2.76,0 5,2.2400005 5,5.0000005 0,2.76 -2.24,5 -5,5 -2.76,0 -5,-2.24 -5,-5 z"
       copytype="single_stretched"
       prop_scale="1"
       scale_y_rel="false"
       spacing="0"
       normal_offset="0"
       tang_offset="0"
       prop_units="false"
       vertical_pattern="false"
       fuse_tolerance="0" />
    <inkscape:path-effect
       effect="skeletal"
       id="path-effect4787"
       is_visible="true"
       pattern="m -610.20504,-14.74197 c 0,-2.76 2.24,-5 5,-5 2.76,0 5,2.24 5,5 0,2.760001 -2.24,5.0000012 -5,5.0000012 -2.76,0 -5,-2.2400002 -5,-5.0000012 z"
       copytype="single_stretched"
       prop_scale="1"
       scale_y_rel="false"
       spacing="0"
       normal_offset="0"
       tang_offset="0"
       prop_units="false"
       vertical_pattern="false"
       fuse_tolerance="0" />
    <inkscape:path-effect
       effect="skeletal"
       id="path-effect4783"
       is_visible="true"
       pattern="m -576.8717,-6.4086355 c 0,-2.76 2.24,-5.0000005 5,-5.0000005 2.76,0 5,2.2400005 5,5.0000005 0,2.76 -2.24,5 -5,5 -2.76,0 -5,-2.24 -5,-5 z"
       copytype="single_stretched"
       prop_scale="1"
       scale_y_rel="false"
       spacing="0"
       normal_offset="0"
       tang_offset="0"
       prop_units="false"
       vertical_pattern="false"
       fuse_tolerance="0" />
    <inkscape:path-effect
       effect="skeletal"
       id="path-effect4779"
       is_visible="true"
       pattern="m -576.8717,-6.4086355 c 0,-2.76 2.24,-5.0000005 5,-5.0000005 2.76,0 5,2.2400005 5,5.0000005 0,2.76 -2.24,5 -5,5 -2.76,0 -5,-2.24 -5,-5 z"
       copytype="single_stretched"
       prop_scale="1"
       scale_y_rel="false"
       spacing="0"
       normal_offset="0"
       tang_offset="0"
       prop_units="false"
       vertical_pattern="false"
       fuse_tolerance="0" />
  </defs>
  <sodipodi:namedview
     pagecolor="#ffffff"
     bordercolor="#666666"
     borderopacity="1"
     objecttolerance="10"
     gridtolerance="10"
     guidetolerance="10"
     inkscape:pageopacity="0"
     inkscape:pageshadow="2"
     inkscape:window-width="1680"
     inkscape:window-height="1023"
     id="namedview4210"
     showgrid="false"
     inkscape:zoom="0.20526726"
     inkscape:cx="1439.2579"
     inkscape:cy="533.83794"
     inkscape:window-x="1680"
     inkscape:window-y="0"
     inkscape:window-maximized="1"
     inkscape:current-layer="svg4208"
     fit-margin-top="0"
     fit-margin-left="0"
     fit-margin-right="0"
     fit-margin-bottom="0" />
  <path
     style="fill:#ffffff;fill-rule:evenodd;stroke:none;stroke-width:1px;stroke-linecap:butt;stroke-linejoin:miter;stroke-opacity:1"
     d="m 10.531056,2046.0511 c -0.166472,0.01 -3.8269719,-45.1795 -6.9315387,-130.9188 C 0.4510284,1828.18 -1.8293254,1704.3388 2.0281981,1541.2549 5.508099,1394.1282 13.369795,1234.6743 27.069674,1036.3611 c 5e-6,0 1.6e-5,-3e-4 1.6e-5,-3e-4 C 39.048144,862.9619 49.942498,733.63201 65.305882,531.55674 77.667642,375.80271 90.828379,200.60936 99.425289,25.016245 521.76443,37.177444 1192.1736,63.462719 1727.9984,67.191407 c 257.1785,2.152749 525.664,0.1393 798.0388,-10.770409 C 2765.3454,47.641261 3010.6056,31.990926 3257.8467,5.2102261 3273.4961,3.5151123 3289.1242,1.7786063 3304.7311,-1.3801786e-7 3288.7506,669.99481 3273.6983,1298.8212 3259.5529,1886.344 1355.2004,1982.2795 10.650016,2048.434 10.531056,2046.0511 10.412082,2043.668 1354.2989,1975.6069 3254.6815,1881.5966 c 14.1481,-584.8913 29.3639,-1210.29617 45.6356,-1876.7516811 -15.5135,1.8831388 -31.0477,3.724177 -46.6029,5.5238121 -245.76,28.432821 -489.4741,45.68093 -727.2822,55.945253 C 2253.8356,77.156733 1985.2057,79.05523 1727.9155,76.747012 1194.8629,71.209805 523.47084,42.5844 103.26401,29.157631 95.937623,203.64562 83.912785,377.17474 72.352952,532.09936 56.428701,736.33282 45.57034,861.29851 32.987365,1036.7774 c 0,0 -1.2e-5,2e-4 -1.2e-5,2e-4 -14.224846,198.3808 -22.575946,357.3906 -26.6509483,504.5878 -4.5144958,163.0797 -2.9132284,286.651 -0.4942881,373.6951 2.382297,85.7255 5.2924894,130.9561 4.6889394,130.9906 z"
     id="path4777"
     inkscape:path-effect="#path-effect4779"
     inkscape:original-d="M 10.531056,2046.0511 C -27.948524,1373.0632 70.732696,700.07512 101.34465,27.086938 1187.1433,60.065141 2286.1196,122.01629 3302.5241,2.4224594 L 3257.1172,1883.9703 Z"
     inkscape:connector-curvature="0"
     sodipodi:nodetypes="ccccc" />
  <path
     style="fill:#ffffff;fill-rule:evenodd;stroke:none;stroke-width:1px;stroke-linecap:butt;stroke-linejoin:miter;stroke-opacity:1"
     d="m 623.52291,622.55808 c 2.75673,0.13423 -10.26261,313.5808 -29.06104,699.65752 -18.79843,386.0767 -36.29248,699.3054 -39.04921,699.1712 -2.75673,-0.1342 10.26261,-313.5808 29.06104,-699.6575 18.79843,-386.07675 36.29248,-699.30545 39.04921,-699.17122 z"
     id="path4781"
     inkscape:path-effect="#path-effect4783"
     inkscape:original-d="M 623.52291,622.55808 555.41266,2021.3868"
     inkscape:connector-curvature="0" />
  <path
     style="fill:#ffffff;fill-rule:evenodd;stroke:none;stroke-width:1px;stroke-linecap:butt;stroke-linejoin:miter;stroke-opacity:1"
     d="m 1168.4042,1786.5393 c 0.1639,-1.1817 44.6339,5.0568 122.5359,11.6354 81.7274,6.9016 185.4186,12.8159 322.6197,13.4746 138.8884,0.6648 276.3399,-3.9596 446.4687,-11.3751 1.4669,-0.064 2.933,-0.1279 4.3983,-0.192 176.5837,-7.7187 304.5602,-14.0892 449.2519,-16.5711 135.9527,-2.3339 237.2079,0.068 318.4859,4.5236 76.9328,4.2174 120.7847,9.4418 120.7269,10.1446 -0.092,1.1233 -44.0746,-2.3867 -120.9539,-5.1222 -82.1756,-2.924 -181.3712,-4.1812 -318.0828,-0.9342 -148.7082,3.5341 -268.1574,10.0365 -448.9911,17.9497 -1.4657,0.064 -2.9323,0.1282 -4.3997,0.1922 -169.2935,7.382 -308.7479,11.5986 -446.9736,10.0434 -136.899,-1.5384 -241.8408,-8.6776 -323.0246,-17.0895 -77.9079,-8.0725 -122.1516,-16.0306 -122.0616,-16.6794 z"
     id="path4785"
     inkscape:path-effect="#path-effect4787"
     inkscape:original-d="m 1168.4042,1786.5393 c 585.9403,81.2494 1209.2068,-35.6945 1784.4873,11.64"
     inkscape:connector-curvature="0"
     sodipodi:nodetypes="cc" />
  <path
     style="fill:#ffffff;fill-rule:evenodd;stroke:none;stroke-width:1px;stroke-linecap:butt;stroke-linejoin:miter;stroke-opacity:1"
     d="m 1182.0266,1654.9431 c 0.01,0.029 100.0698,-30.728 267.5791,-50.9679 74.4705,-8.9979 159.6474,-15.4802 256.0931,-17.0233 0,0 1e-4,0 1e-4,0 119.009,-1.9007 243.1183,4.0105 381.7626,16.2585 31.8549,2.8142 63.3727,5.8617 94.3248,9.0285 69.2385,7.0821 157.8719,17.1171 220.1421,23.7762 76.4009,8.1694 142.5961,14.5958 208.4407,19.0281 76.4511,5.1449 139.5942,6.6484 197.0254,5.3068 117.5984,-2.749 186.0356,-17.736 186.3633,-15.9775 0.086,0.4592 -68.0526,17.6042 -186.178,22.0504 -57.506,2.1654 -121.1586,1.328 -197.7274,-3.231 -65.882,-3.9216 -132.5773,-9.9989 -208.9024,-17.8478 -49.2946,-5.0686 -164.0605,-17.5351 -220.1701,-23.2097 -30.9179,-3.1259 -62.3989,-6.1506 -94.1986,-8.9597 -138.5521,-12.2392 -262.0026,-18.4453 -380.7601,-17.1438 0,0 -1e-4,0 -1e-4,0 -96.1795,1.0513 -181.0228,6.854 -255.3982,15.0277 -167.1334,18.3668 -267.7388,46.6092 -268.3963,43.8845 z"
     id="path4789"
     inkscape:path-effect="#path-effect4791"
     inkscape:original-d="m 1182.0266,1654.9431 c 731.1247,-176.4387 1329.6489,79.2784 1811.7312,-10.5706"
     inkscape:connector-curvature="0"
     sodipodi:nodetypes="cc" />
  <path
     sodipodi:nodetypes="cc"
     inkscape:connector-curvature="0"
     inkscape:original-d="m 1132.0791,1475.2447 c 652.0519,-89.2719 1310.0632,66.9889 1811.7313,-10.5706"
     inkscape:path-effect="#path-effect4795"
     id="path4793"
     d="m 1132.0791,1475.2447 c -0.088,-0.6407 48.8125,-9.3661 134.4027,-17.7086 89.1009,-8.6847 204.256,-15.5275 353.242,-15.1345 130.4324,0.3423 262.7643,5.9862 418.5651,14.8954 18.9065,1.0812 37.7297,2.1839 56.3437,3.2884 178.291,10.5762 303.0728,18.8619 446.2169,21.7474 80.4343,1.6215 147.3539,0.8625 207.6706,-1.6981 122.6613,-5.2084 195.0497,-17.5168 195.2903,-15.9606 0.1156,0.7477 -72.0103,15.2314 -194.9839,22.1608 -60.2729,3.3969 -127.6732,4.8479 -208.1141,3.8169 -141.379,-1.8122 -270.4393,-9.7651 -446.6676,-20.1027 -18.6021,-1.0909 -37.4371,-2.1875 -56.3268,-3.2676 -156.3262,-8.9378 -287.2559,-14.9153 -418.0429,-16.0065 -149.2091,-1.2431 -263.1415,4.3706 -352.73,11.4965 -85.5612,6.8056 -134.6923,13.7418 -134.866,12.4732 z"
     style="fill:#ffffff;fill-rule:evenodd;stroke:none;stroke-width:1px;stroke-linecap:butt;stroke-linejoin:miter;stroke-opacity:1" />
  <path
     style="fill:#ffffff;fill-rule:evenodd;stroke:none;stroke-width:1px;stroke-linecap:butt;stroke-linejoin:miter;stroke-opacity:1"
     d="m 2398.9287,791.68601 c 1.5507,0.16828 -11.4795,128.85438 -34.2847,333.12279 0,0 0,0 0,0 57.2884,6.6415 119.0777,9.031 187.4597,6.8113 60.4345,-1.1874 122.2602,-5.6226 189.1853,-12.2975 63.0728,-6.2921 121.9416,-13.6235 189.4659,-21.4901 51.5056,-5.3963 105.2465,-10.7018 159.1977,-14.4035 9.4485,-0.6483 18.87,-1.2453 28.2707,-1.7857 0.097,-108.62456 0.2336,-214.10905 0.3875,-312.25697 -114.1485,4.56226 -274.4828,0.0425 -358.7146,-0.2414 0,0 -1e-4,10e-6 -1e-4,10e-6 -116.8838,-0.98707 -195.9291,3.1029 -263.9971,10.14398 -62.3873,6.45348 -96.7673,13.47317 -96.9703,12.39709 -0.074,-0.39025 34.0598,-8.80843 96.4981,-16.5501 67.5057,-8.36999 147.9985,-13.53809 264.5024,-13.49309 0,10e-6 10e-5,0 10e-5,0 79.3767,0.43192 253.7578,6.08375 363.2533,3.01375 0.1539,100.9684 0.29,209.83854 0.3875,321.97273 -9.5933,0.7877 -19.2111,1.6324 -28.8596,2.5287 -55.0655,5.1153 -110.1013,11.8238 -162.8186,18.4949 -67.2676,7.7405 -126.6601,14.9873 -189.6809,21.0674 -67.0868,6.4737 -129.2339,10.6542 -189.9616,11.5158 -70.1118,0.1223 -133.3272,-4.0666 -191.687,-12.2083 0,0 0,-10e-5 0,-10e-5 21.9112,-207.7921 36.8164,-336.50989 38.3663,-336.34169 z"
     id="path4797"
     inkscape:path-effect="#path-effect4799"
     inkscape:original-d="m 2398.9287,791.68601 -36.3255,334.73229 c 252.7644,32.3105 505.5292,-24.6082 758.2935,-42.282 l 0,-317.11485 c -240.6559,8.17501 -481.312,-20.73672 -721.968,24.66456 z"
     inkscape:connector-curvature="0"
     sodipodi:nodetypes="ccccc" />
  <path
     style="fill:#ffffff;fill-rule:evenodd;stroke:none;stroke-width:1px;stroke-linecap:butt;stroke-linejoin:miter;stroke-opacity:1"
     d="m 1776.8555,770.54495 c 0.2073,-0.0639 2.67,5.99545 5.8306,18.10349 3.2061,12.28269 6.8924,30.07558 9.1547,54.13899 2.229,23.68931 2.9191,51.20906 1.0622,84.74839 -3.5407,58.00526 -13.5763,121.06878 -32.4766,201.06368 -141.6209,0.8401 -220.6529,8.0977 -399.7783,14.6497 -129.7328,3.4711 -274.8976,2.3681 -422.04574,-14.3177 -0.10642,-10.2905 -0.21286,-20.6121 -0.31932,-30.9644 -1.32795,-129.12682 -2.58178,-255.45073 -3.71552,-372.05594 489.12538,23.45321 842.41878,42.03488 842.28798,44.63379 -0.1309,2.60058 -352.8512,-14.35757 -837.76352,-39.92987 1.49593,113.98726 3.0877,237.18217 4.66815,363.08942 0.12674,10.0964 0.25281,20.1633 0.37821,30.2006 144.78856,14.9135 288.06736,14.4911 416.22566,10.0662 176.9321,-4.3496 255.5374,-10.5731 396.595,-9.7342 17.8022,-78.4522 27.3371,-139.73471 31.0056,-197.0101 2.3252,-33.33418 2.1306,-60.56202 0.4428,-84.15512 -1.7168,-23.97306 -4.8155,-41.62054 -7.4464,-54.01532 -2.5823,-12.16574 -4.476,-18.39745 -4.1055,-18.51161 z"
     id="path4801"
     inkscape:path-effect="#path-effect4803"
     inkscape:original-d="m 1776.8555,770.54495 c 27.0548,87.79405 15.2083,211.81206 -18.1628,355.87335 -272.4407,0 -516.9496,32.5119 -817.32235,0 l -4.5406,-398.15518 z"
     inkscape:connector-curvature="0"
     sodipodi:nodetypes="ccccc" />
  <path
     style="fill:#ffffff;fill-rule:evenodd;stroke:none;stroke-width:1px;stroke-linecap:butt;stroke-linejoin:miter;stroke-opacity:1"
     d="m 1908.5353,506.28268 c -0.1512,-0.64537 26.6365,-8.8239 74.5239,-17.25869 49.2358,-8.67231 115.3903,-16.53483 199.4395,-17.66019 78.832,-1.05717 159.8475,3.64745 254.8513,12.25888 4.7234,0.42815 9.4327,0.86122 14.1244,1.29796 109.6793,10.20292 171.0136,17.84 261.5338,23.9385 79.1525,5.32637 136.204,5.69283 183.7426,4.10581 44.3507,-1.48059 69.637,-4.26287 69.7629,-3.15876 0.078,0.68761 -25.0339,5.15794 -69.5158,8.11019 -47.0704,3.12406 -105.6206,3.87102 -184.5143,-0.5406 -86.6319,-4.83745 -156.5911,-12.75206 -261.9328,-22.50139 -4.6853,-0.43332 -9.3877,-0.86417 -14.1033,-1.29124 -95.1743,-8.61961 -175.1284,-13.69715 -253.8758,-13.4449 -83.8127,0.27018 -149.2128,6.85051 -198.6955,13.98636 -47.8868,6.9057 -75.0614,13.35117 -75.3409,12.15807 z"
     id="path4805"
     inkscape:path-effect="#path-effect4807"
     inkscape:original-d="m 1908.5353,506.28268 c 368.472,-86.31861 725.4746,41.45033 1057.9784,3.52351"
     inkscape:connector-curvature="0"
     sodipodi:nodetypes="cc" />
  <path
     style="fill:#ffffff;fill-rule:evenodd;stroke:none;stroke-width:1px;stroke-linecap:butt;stroke-linejoin:miter;stroke-opacity:1"
     d="m 1608.8503,337.15475 c 0.3235,-2.30182 77.4279,10.43758 202.7867,15.40603 53.7065,2.12893 114.601,2.65643 183.0818,0.22506 0,0 10e-5,0 10e-5,0 88.8078,-3.15001 176.4403,-10.95023 279.8751,-21.30993 15.5654,-1.55898 31.285,-3.15221 46.5811,-4.69916 53.5382,-5.41648 102.7579,-10.20854 152.4191,-13.77486 54.0344,-3.881 103.5944,-5.88576 151.084,-5.74976 58.3579,0.16735 109.4292,3.61891 153.995,8.85786 101.7422,11.96211 160.6294,31.48106 160.5965,31.61525 -0.5598,2.28213 -59.9587,-14.95238 -161.3058,-25.10083 -44.4514,-4.45193 -95.1899,-7.22863 -153.271,-6.86002 -47.2772,0.29985 -96.512,2.63478 -150.3929,6.75625 -49.6186,3.79601 -98.4685,8.69789 -152.1157,14.18072 -15.3442,1.56876 -30.969,3.1613 -46.5934,4.72651 -103.1516,10.3334 -191.7673,17.88799 -280.5816,20.42692 0,0 -10e-5,0 -10e-5,0 -68.6992,1.96149 -129.9036,0.79686 -183.7088,-2.11663 -125.7326,-6.80911 -202.5176,-22.10313 -202.4501,-22.58341 z"
     id="path4809"
     inkscape:path-effect="#path-effect4811"
     inkscape:original-d="m 1608.8503,337.15475 c 569.8785,80.09521 887.5268,-98.06057 1330.4194,10.57049"
     inkscape:connector-curvature="0"
     sodipodi:nodetypes="cc" />
  <path
     style="fill:#ffffff;fill-rule:evenodd;stroke:none;stroke-width:1px;stroke-linecap:butt;stroke-linejoin:miter;stroke-opacity:1"
     d="m 351.08206,788.16238 c 1.9134,3.2055 -50.90854,34.00762 -115.97326,70.1645 -1.1e-4,7e-5 -0.0971,0.0539 -0.0972,0.054 71.97239,18.78254 130.7461,35.43037 129.69247,39.01003 -1.04638,3.55503 -60.25212,-14.46951 -133.66701,-38.50679 -9e-5,6e-5 0.0964,-0.0615 0.0962,-0.0615 65.15108,-41.60043 118.04847,-73.84378 119.94873,-70.6603 z"
     id="path4813"
     inkscape:path-effect="#path-effect4815"
     inkscape:original-d="m 351.08206,788.16238 -118.05771,70.47013 131.67974,38.75841"
     inkscape:connector-curvature="0" />
  <path
     style="fill:#ffffff;fill-rule:evenodd;stroke:none;stroke-width:1px;stroke-linecap:butt;stroke-linejoin:miter;stroke-opacity:1"
     d="m 450.97696,777.59192 c 1.17491,-3.43195 69.98907,20.70345 156.24687,52.75368 0,0 2e-5,10e-6 2e-5,10e-6 -1.81958,0.90191 -3.65061,1.8094 -5.48655,2.7191 -84.90436,42.07019 -153.73859,74.72897 -155.30098,71.37327 -1.57032,-3.37274 67.0824,-34.68528 151.55412,-71.49594 1.84144,-0.80245 3.67928,-1.60315 5.50587,-2.39887 0,0 -10e-6,0 -10e-6,0 -85.20076,-26.66886 -153.70066,-49.50059 -152.51934,-52.95125 z"
     id="path4817"
     inkscape:path-effect="#path-effect4819"
     inkscape:original-d="m 450.97696,777.59192 154.38312,52.85247 -158.92376,73.99359"
     inkscape:connector-curvature="0" />
  <path
     style="fill:#ffffff;fill-rule:evenodd;stroke:none;stroke-width:1px;stroke-linecap:butt;stroke-linejoin:miter;stroke-opacity:1"
     d="m 328.37864,1066.5189 c 2.27193,2.7884 -38.09437,35.203 -88.52019,73.5361 0.95851,0.2525 1.92019,0.506 2.8839,0.7601 62.65267,16.5201 113.92339,31.4375 112.88039,34.9322 -1.03463,3.4666 -52.95796,-12.3537 -117.42611,-33.8041 -0.97795,-0.3254 -1.95328,-0.65 -2.92498,-0.9736 50.2386,-43.7256 90.85418,-77.2156 93.10699,-74.4507 z"
     id="path4821"
     inkscape:path-effect="#path-effect4823"
     inkscape:original-d="m 328.37864,1066.5189 -90.81359,73.9934 118.05769,35.235"
     inkscape:connector-curvature="0" />
  <path
     style="fill:#ffffff;fill-rule:evenodd;stroke:none;stroke-width:1px;stroke-linecap:butt;stroke-linejoin:miter;stroke-opacity:1"
     d="m 446.43632,1062.9953 c 1.50452,-3.1022 49.67797,20.6003 111.04404,52.9011 0,0 10e-6,10e-5 10e-6,10e-5 -3.34251,1.5471 -6.75143,3.1246 -10.17021,4.705 -67.49058,31.2003 -122.15135,54.9529 -123.57723,51.6224 -1.43496,-3.3517 52.79592,-26.1687 119.44399,-52.4224 3.41143,-1.3438 6.82322,-2.6864 10.16803,-4.0024 0,0 -1e-5,0 -1e-5,0 -60.61788,-26.8887 -108.42437,-49.6785 -106.90862,-52.8038 z"
     id="path4825"
     inkscape:path-effect="#path-effect4827"
     inkscape:original-d="m 446.43632,1062.9953 108.97634,52.8525 -131.67973,56.3761"
     inkscape:connector-curvature="0" />
  <path
     style="fill:#ffffff;fill-rule:evenodd;stroke:none;stroke-width:1px;stroke-linecap:butt;stroke-linejoin:miter;stroke-opacity:1"
     d="m 246.64639,1309.6403 c 2.25866,2.9107 -58.64525,49.4811 -134.18765,105.2306 0.59734,0.1072 1.19544,0.2147 1.79417,0.3222 93.26202,16.7535 169.46032,31.7566 168.71894,35.3871 -0.73734,3.6108 -77.53103,-12.587 -172.76302,-34.3458 -0.60593,-0.1384 -1.21116,-0.2767 -1.81555,-0.4149 75.1001,-61.1726 136.00699,-109.0737 138.25311,-106.1792 z"
     id="path4829"
     inkscape:path-effect="#path-effect4831"
     inkscape:original-d="m 246.64639,1309.6403 -136.22038,105.7049 172.54584,35.235"
     inkscape:connector-curvature="0" />
  <path
     style="fill:#ffffff;fill-rule:evenodd;stroke:none;stroke-width:1px;stroke-linecap:butt;stroke-linejoin:miter;stroke-opacity:1"
     d="m 423.73293,1316.6871 c 0.90827,-2.9794 55.84071,13.7939 129.15903,38.4887 0,0 10e-6,0 10e-6,0 -8.74217,5.7641 -18.31792,12.081 -27.61245,18.2002 -77.44386,50.9865 -140.52597,90.7735 -142.41273,87.7747 -1.89478,-3.0115 60.70573,-42.2655 138.09303,-88.7131 9.32596,-5.5974 19.07072,-11.4344 27.89221,-16.722 0,0 -10e-6,0 -10e-6,0 -71.65158,-19.5193 -126.03288,-36.031 -125.11909,-39.0285 z"
     id="path4833"
     inkscape:path-effect="#path-effect4835"
     inkscape:original-d="m 423.73293,1316.6871 127.13907,38.7586 -168.00521,105.705"
     inkscape:connector-curvature="0" />
  <path
     style="fill:#ffffff;fill-rule:evenodd;stroke:none;stroke-width:1px;stroke-linecap:butt;stroke-linejoin:miter;stroke-opacity:1"
     d="m 223.94301,1619.708 c 2.02727,2.8738 -64.08124,49.0263 -147.819279,105.3185 0,0 -1.3e-5,0 -1.3e-5,0 4.285609,0.9437 8.633118,1.9013 12.988524,2.8614 104.758138,23.0938 190.177118,43.2993 189.318918,46.8541 -0.85446,3.5394 -86.84075,-17.6027 -193.265468,-45.5085 -4.392965,-1.1519 -8.771963,-2.3011 -13.088278,-3.434 0,0 1.3e-5,-10e-5 1.3e-5,-10e-5 83.567603,-61.7533 149.848353,-108.9509 151.865583,-106.0914 z"
     id="path4837"
     inkscape:path-effect="#path-effect4839"
     inkscape:original-d="M 223.94301,1619.708 74.100566,1725.413 278.43116,1774.742"
     inkscape:connector-curvature="0" />
  <path
     style="fill:#ffffff;fill-rule:evenodd;stroke:none;stroke-width:1px;stroke-linecap:butt;stroke-linejoin:miter;stroke-opacity:1"
     d="m 378.32613,1626.755 c 1.5052,-3.2329 62.4568,25.4902 138.55301,63.3052 0,0 10e-6,0 10e-6,0 -1.17424,0.7381 -2.35315,1.4791 -3.53534,2.2219 -73.50872,46.19 -133.16671,82.0476 -135.01768,78.9363 -1.86258,-3.1308 57.38256,-37.9583 130.33925,-78.9302 1.18604,-0.666 2.36941,-1.3304 3.54857,-1.9924 0,0 -10e-6,0 -10e-6,0 -74.95639,-32.5397 -135.40294,-60.2866 -133.88781,-63.5408 z"
     id="path4841"
     inkscape:path-effect="#path-effect4843"
     inkscape:original-d="m 378.32613,1626.755 136.22042,63.423 -136.22042,81.0404"
     inkscape:connector-curvature="0" />
  <path
     style="fill:#ffffff;fill-rule:evenodd;stroke:none;stroke-width:1px;stroke-linecap:butt;stroke-linejoin:miter;stroke-opacity:1"
     d="m 278.43116,1697.2249 c -0.11887,-2.7574 18.09324,-5.7846 40.65203,-6.7572 11.86224,-0.5113 22.57596,-0.3533 30.08635,0.3125 l 0,0 c 4.33805,0.3846 7.60737,0.9386 9.412,1.6307 l 0,0 c 0.61667,0.2366 1.0623,0.4892 1.32111,0.7568 l 0,0 c 0.0933,0.096 0.16226,0.1948 0.20627,0.295 l 0,0 0,0 c 0.0215,0.1779 0.0356,0.2153 0.0433,0.2288 0.005,0.01 0.008,0.01 0.0105,0.01 8.8e-4,10e-5 6.8e-4,10e-5 6.8e-4,10e-5 0,0 2e-4,0 -6.7e-4,10e-5 -0.002,4e-4 -0.005,8e-4 -0.01,0.011 -0.007,0.014 -0.0173,0.053 -0.0235,0.2317 l 0,0 0,0 c -0.0352,0.1036 -0.0955,0.2076 -0.18011,0.3116 l 0,0 c -0.23483,0.2889 -0.65706,0.579 -1.25108,0.8677 l 0,0 c -1.73837,0.8449 -4.94789,1.6782 -9.23675,2.4347 l 0,0 c -7.42522,1.3097 -18.08559,2.3892 -29.94782,2.9006 -22.5588,0.9725 -40.96387,-0.4762 -41.08274,-3.2336 z"
     id="path4845"
     inkscape:path-effect="#path-effect4847"
     inkscape:original-d="m 278.43116,1697.2249 c 81.73225,-3.5235 81.73225,-3.5235 81.73225,-3.5235"
     inkscape:connector-curvature="0" />
  <path
     style="fill:#ffffff;fill-rule:evenodd;stroke:none;stroke-width:1px;stroke-linecap:butt;stroke-linejoin:miter;stroke-opacity:1"
     d="m 282.97185,1373.0632 c -0.1781,-2.7542 24.08835,-6.5681 54.1662,-8.5131 15.87801,-1.0267 30.2171,-1.3284 40.24344,-0.9792 l 0,0 c 5.76914,0.2009 10.1104,0.6173 12.49535,1.235 l 0,0 c 0.81319,0.2107 1.39894,0.4447 1.7363,0.7016 l 0,0 c 0.12925,0.2008 0.21808,0.31 0.27332,0.3849 l 0,0 0,0 0,0 c 0.0226,0.071 0.0391,0.099 0.0487,0.1117 m 0.0116,-7e-4 c 0,0 0,0 0,0 0.002,0.013 0.001,0.013 0.001,0.013 0,0 5.3e-4,-2e-4 2.6e-4,0.013 0,0 0,0 0,0 m -0.0116,7e-4 c -0.008,0.014 -0.0206,0.044 -0.0339,0.1171 l 0,0 0,0 0,0 c -0.0451,0.081 -0.11916,0.2011 -0.22146,0.4169 l 0,0 c -0.30147,0.2982 -0.85221,0.6058 -1.6315,0.9194 l 0,0 c -2.28552,0.9197 -6.537,1.8918 -12.23222,2.834 l 0,0 c -9.89786,1.6376 -24.15639,3.1851 -40.03441,4.2119 -30.07784,1.945 -54.63339,1.2881 -54.81149,-1.4661"
     id="path4849"
     inkscape:path-effect="#path-effect4851"
     inkscape:original-d="m 282.97185,1373.0632 c 108.97633,-7.0469 108.97633,-7.0469 108.97633,-7.0469"
     inkscape:connector-curvature="0" />
  <path
     style="fill:#ffffff;fill-rule:evenodd;stroke:none;stroke-width:1px;stroke-linecap:butt;stroke-linejoin:miter;stroke-opacity:1"
     d="m 355.62274,1112.3243 c 0.11263,-2.7577 19.52947,-4.2066 43.34116,-3.2341 23.67302,0.9669 42.82154,3.9648 42.93308,6.7094 -0.001,0.06 -0.001,0.048 -0.001,0.048 0,0 8.2e-4,-0.012 -0.003,0.048 -0.33499,2.7264 -19.6642,4.1528 -43.33723,3.186 -23.81169,-0.9725 -43.04571,-3.9999 -42.93308,-6.7576 z"
     id="path4853"
     inkscape:path-effect="#path-effect4855"
     inkscape:original-d="m 355.62274,1112.3243 c 86.27293,3.5235 86.27293,3.5235 86.27293,3.5235"
     inkscape:connector-curvature="0" />
  <path
     style="fill:#ffffff;fill-rule:evenodd;stroke:none;stroke-width:1px;stroke-linecap:butt;stroke-linejoin:miter;stroke-opacity:1"
     d="m 387.40748,848.062 c -0.12585,-2.75713 17.06292,-5.78406 38.36779,-6.75653 21.30487,-0.97248 38.69792,0.47593 38.82377,3.23306 0.12585,2.75713 -17.06292,5.78406 -38.36779,6.75653 -21.30487,0.97248 -38.69792,-0.47593 -38.82377,-3.23306 z"
     id="path4857"
     inkscape:path-effect="#path-effect4859"
     inkscape:original-d="m 387.40748,848.062 77.19156,-3.52347"
     inkscape:connector-curvature="0" />
  <path
     style="fill:#ffffff;fill-rule:evenodd;stroke:none;stroke-width:1px;stroke-linecap:butt;stroke-linejoin:miter;stroke-opacity:1"
     d="m 1213.8112,883.29693 c -3.3883,1.94062 -18.6688,-27.04176 -36.3254,-63.42296 22.4466,33.63775 39.7137,61.48234 36.3254,63.42296 -3.3883,1.94062 -18.6688,-27.04176 -36.3254,-63.42296 22.4466,33.63775 39.7137,61.48234 36.3254,63.42296 z"
     id="path4861"
     inkscape:path-effect="#path-effect4863"
     inkscape:original-d="m 1213.8112,883.29693 -36.3254,-63.42296 z"
     inkscape:connector-curvature="0" />
  <path
     style="fill:#ffffff;fill-rule:evenodd;stroke:none;stroke-width:1px;stroke-linecap:butt;stroke-linejoin:miter;stroke-opacity:1"
     d="m 273.89049,474.57115 c 0.0924,-1.03647 28.36892,0.95335 77.57758,3.40067 50.08058,2.49068 118.48413,5.22002 203.1175,5.42888 81.38586,0.2012 166.10973,-1.88933 265.24178,-6.01416 1.08992,-0.0454 2.18056,-0.0909 3.27195,-0.13663 1334.8502,-55.92991 -1053.78878,43.05373 263.8519,-12.05821 87.364,-3.65445 154.2556,-5.35059 206.7121,-5.8486 50.1771,-0.47637 79.0612,0.23575 79.0717,1.13409 0.012,0.99117 -28.8477,2.04684 -78.9451,4.02966 -56.1297,2.22159 -115.4101,4.72917 -206.4284,9.44676 -69.1056,3.58208 -177.34538,9.66295 -263.84355,13.28752 -1.0925,0.0458 -2.18427,0.0913 -3.27532,0.13661 -98.70856,4.09832 -184.69426,5.77384 -265.72317,4.74685 -84.55828,-1.07208 -153.59028,-5.04345 -203.38369,-9.04 -49.19314,-3.94836 -77.31909,-7.68538 -77.24528,-8.51344 z"
     id="path4865"
     inkscape:path-effect="#path-effect4867"
     inkscape:original-d="M 273.89049,474.57115 C 665.70107,509.49359 972.18375,465.17601 1372.735,460.47719"
     inkscape:connector-curvature="0"
     sodipodi:nodetypes="cc" />
  <path
     style="fill:#ffffff;fill-rule:evenodd;stroke:none;stroke-width:1px;stroke-linecap:butt;stroke-linejoin:miter;stroke-opacity:1"
     d="m 1113.9163,922.05556 c 1.0471,1.18076 -22.7911,24.128 -60.4876,58.55624 0,0 0,10e-6 0,10e-6 -7.9723,19.19542 -16.9773,40.14099 -27.2059,63.47629 17.8626,6.6111 28.6907,10.5811 47.7987,17.6447 5.8506,0.1198 11.7544,0.247 17.7239,0.3808 8.31,0.1861 16.5462,0.3803 24.6235,0.5762 2.6895,-3.1675 5.3359,-6.2881 7.9762,-9.4139 -19.1176,-9.9956 -37.3761,-19.5746 -54.1133,-28.3812 12.6911,-16.7757 30.2755,-40.00324 39.2581,-51.86925 0,0 0,10e-6 0,10e-6 21.4996,35.58074 32.9782,57.52114 31.6706,58.25834 -1.313,0.7403 -14.0427,-20.2821 -31.8994,-54.49346 0,0 0,-10e-6 0,-10e-6 -11.2143,15.69851 -19.7109,27.61327 -33.3923,46.78857 17.0517,8.6732 35.569,18.1191 54.8627,27.9946 -3.3614,6.1904 -6.7322,12.4049 -10.1868,18.7745 -9.2259,0.196 -18.6528,0.3901 -28.1728,0.5762 -6.8367,0.1337 -13.6,0.261 -20.2928,0.3808 -14.6405,-6.9126 -39.0585,-18.4774 -52.0967,-24.6373 10.0025,-26.3778 19.0255,-49.73237 27.283,-70.41709 5e-4,-4.3e-4 5e-4,-4.4e-4 5e-4,-4.4e-4 39.8784,-34.3655 65.6019,-55.37685 66.6504,-54.19461 z"
     id="path4881"
     inkscape:path-effect="#path-effect4883"
     inkscape:original-d="m 1113.9163,922.05556 c -63.5695,56.37587 -63.5695,56.37587 -63.5695,56.37587 l -27.2442,66.94647 49.9477,21.141 45.4065,0 9.0815,-14.0942 -54.488,-28.1879 36.3252,-49.32891 31.785,56.37591"
     inkscape:connector-curvature="0" />
  <path
     style="fill:#ffffff;fill-rule:evenodd;stroke:none;stroke-width:1px;stroke-linecap:butt;stroke-linejoin:miter;stroke-opacity:1"
     d="m 1136.6196,925.57896 c 2.7374,0.35275 3.9419,8.53168 2.6887,18.25654 -1.2532,9.72485 -4.4919,17.33119 -7.2293,16.97844 -2.7374,-0.35275 -3.9419,-8.53168 -2.6887,-18.25654 1.2532,-9.72485 4.4919,-17.33119 7.2293,-16.97844 z"
     id="path4885"
     inkscape:path-effect="#path-effect4887"
     inkscape:original-d="m 1136.6196,925.57896 -4.5406,35.23498"
     inkscape:connector-curvature="0" />
  <path
     style="fill:#ffffff;fill-rule:evenodd;stroke:none;stroke-width:1px;stroke-linecap:butt;stroke-linejoin:miter;stroke-opacity:1"
     d="m 1513.4961,939.673 c 1.0971,0.47126 -6.4651,20.69731 -20.4891,54.81312 0,0 0,10e-6 0,10e-6 -10.6454,6.60437 -23.0507,14.25577 -36.623,22.58847 -13.5633,7.2831 -28.1897,15.0067 -43.9837,23.2429 -0.3114,8.9162 -0.6664,18.0021 -1.0598,27.3471 24.8258,-1.1707 51.3646,-2.3889 78.7259,-3.6001 29.6231,-1.3113 57.9189,-2.5131 84.5451,-3.5876 0,0 0,0 0,0 0.9237,-23.1695 1.8911,-44.415 2.9742,-64.19787 -2.4143,-17.86563 -4.5628,-33.36493 -6.6177,-47.68953 -7.801,0.35249 -14.9287,0.56856 -21.3897,0.66017 -23.1628,-5.23307 -36.26,-8.66012 -36.0822,-9.57667 0.1777,-0.916 13.5899,0.79855 36.5684,4.51729 7.1066,0.0916 15.1019,0.30768 24.0171,0.66017 3.3414,14.9758 7.0739,31.44401 11.5453,50.96835 -1.6973,21.21209 -3.7395,44.33669 -6.107,69.69489 0,0 0,0 0,0 -27.9675,1.2154 -57.9866,2.4596 -89.4271,3.7096 -29.0467,1.1548 -57.1904,2.2302 -83.3123,3.1965 -0.3934,-12.4868 -0.7484,-24.498 -1.0598,-36.0755 16.8472,-9.4941 32.434,-18.1821 46.8297,-26.0861 13.1425,-7.2158 25.39,-13.91036 36.028,-19.69339 0,0 0,-10e-6 0,-10e-6 14.3906,-32.03612 23.822,-51.36245 24.9177,-50.8918 z"
     id="path4889"
     inkscape:path-effect="#path-effect4891"
     inkscape:original-d="m 1513.4961,939.673 -22.7034,52.85247 -36.3255,21.14093 -45.4067,24.6645 0,31.7113 168.0052,-7.0469 4.5406,-66.94638 -9.0815,-49.32894 -22.7034,0 z"
     inkscape:connector-curvature="0" />
  <path
     style="fill:#ffffff;fill-rule:evenodd;stroke:none;stroke-width:1px;stroke-linecap:butt;stroke-linejoin:miter;stroke-opacity:1"
     d="m 1132.079,978.43143 c -0.027,-2.75987 81.3205,-5.78904 181.5788,-6.76154 100.2582,-0.97249 181.6489,0.47813 181.6757,3.238 0.027,2.75987 -81.3205,5.78904 -181.5788,6.76154 -100.2582,0.97249 -181.6489,-0.47813 -181.6757,-3.238 z"
     id="path4893"
     inkscape:path-effect="#path-effect4895"
     inkscape:original-d="m 1132.079,978.43143 363.2545,-3.52354"
     inkscape:connector-curvature="0" />
  <path
     style="fill:#ffffff;fill-rule:evenodd;stroke:none;stroke-width:1px;stroke-linecap:butt;stroke-linejoin:miter;stroke-opacity:1"
     d="m 1136.6196,992.52547 c 2.5793,0.69977 -4.4125,28.64873 -15.8678,65.19103 0,0 0,0 0,0 8.837,-0.2295 18.472,-0.4702 28.1364,-0.6704 5.832,-0.1208 11.5085,-0.2234 17.0757,-0.3036 0,0 0,0 0,0 3.9607,-44.2179 8.7076,-78.62644 11.5219,-78.31107 2.796,0.31332 -0.2441,35.72497 -6.6409,83.76967 0,0 0,0 0,0 -6.688,-0.08 -13.5921,-0.1829 -20.6907,-0.3036 -11.808,-0.2009 -23.4711,-0.4402 -33.9924,-0.6704 0,0 0,0 0,0 9.5979,-41.1536 17.9027,-69.39483 20.4578,-68.70163 z"
     id="path4897"
     inkscape:path-effect="#path-effect4899"
     inkscape:original-d="m 1136.6196,992.52547 -18.1628,66.94633 49.9476,0 9.0814,-81.04037"
     inkscape:connector-curvature="0" />
  <path
     style="fill:#ffffff;fill-rule:evenodd;stroke:none;stroke-width:1px;stroke-linecap:butt;stroke-linejoin:miter;stroke-opacity:1"
     d="m 1390.8977,985.4784 c 2.5277,0 3.4467,29.1961 2.522,68.1058 0,0 0,0 0,0 9.5757,0.5119 19.7049,1.0977 30.2098,1.7572 6.6695,0.4187 13.1774,0.8474 19.5017,1.2837 0,0 0,0 0,0 6.4701,-44.4199 13.1253,-78.65618 15.8768,-78.19367 2.7341,0.45959 -2.2646,35.76657 -11.3676,83.88707 0,0 0,0 0,0 -7.4911,-0.4571 -15.2958,-0.9539 -23.3035,-1.4842 -12.6197,-0.8359 -24.7716,-1.6908 -35.9612,-2.5217 0,0 0,0 0,0 -0.9402,-43.0045 0.01,-72.8342 2.522,-72.8342 z"
     id="path4901"
     inkscape:path-effect="#path-effect4903"
     inkscape:original-d="m 1390.8977,985.4784 0,70.47 54.4881,3.5234 13.6222,-81.04037"
     inkscape:connector-curvature="0" />
  <path
     style="fill:none;fill-rule:evenodd;stroke:#000000;stroke-width:0.95997226px;stroke-linecap:butt;stroke-linejoin:miter;stroke-opacity:1"
     d="m 1104.8348,925.57896 c 14.9539,-4.50115 29.8632,-3.5234 45.4068,-3.5234 1.5135,0 4.5409,-1.17466 4.5409,0 0,1.17439 -6.0544,0 -4.5409,0 3.0273,0 6.0543,0 9.0815,0 1.5135,0 3.4704,0.83044 4.5407,0 1.0703,-0.83062 -1.0703,-2.6931 0,-3.52371 2.1406,-1.66097 6.9407,1.66105 9.0812,0 1.0705,-0.83044 -1.5135,-3.52345 0,-3.52345 1.5136,0 0,4.69802 0,3.52345 0,-2.34905 0,-4.69802 0,-7.04689 0,-1.17466 1.0705,-2.69309 0,-3.52354 -1.0702,-0.83052 -3.4704,0.83045 -4.5406,0 -1.0701,-0.83052 0.677,-2.47292 0,-3.52344 -0.9572,-1.48564 -3.5833,-2.0379 -4.5406,-3.52354 -0.6768,-1.05051 -1.5135,-3.52352 0,-3.52352 1.5135,0 1.5135,3.52352 0,3.52352 -2.1405,0 -3.5835,-2.0379 -4.5407,-3.52352 -1.2315,-1.91147 1.2424,-13.12992 0,-14.09399 -1.0704,-0.83053 -3.4703,0.83043 -4.5406,0 -2.1405,-1.66096 1.3537,-4.94604 0,-7.04704 -9.4487,-14.66392 0.3133,3.76689 -9.0814,-3.52347 -3.0325,-2.35307 3.0323,-4.69388 0,-7.04695 -2.1406,-1.66104 -6.9409,1.66095 -9.0815,0 -1.0701,-0.83044 1.0703,-2.69312 0,-3.52349 -2.1404,-1.66095 -6.9408,1.66105 -9.0813,0 -1.0702,-0.83051 1.0702,-2.69302 0,-3.52347 -2.1405,-1.66103 -9.0815,2.34893 -9.0815,0 0,-1.17454 6.0544,0 4.5408,0 -6.0543,0 -12.1084,0 -18.1628,0 -1.5135,0 -4.5405,1.17447 -4.5405,0 0,-1.17454 6.0542,0 4.5405,0 -3.0269,0 -6.3737,-1.05057 -9.0813,0 -1.3538,0.52513 0,2.34893 0,3.52347 0,4.69803 0,9.39605 0,14.09391 0,0.85464 0.146,10.45725 0,10.5706 -1.0702,0.83044 -3.4703,-0.83053 -4.5407,0 -2.1405,1.66097 2.1405,5.38583 0,7.04689 -1.0703,0.83053 -3.4704,-0.83053 -4.5406,0 -0.146,0.11326 0,9.71602 0,10.5706 0,1.17431 1.5135,3.52344 0,3.52344 -1.5136,0 0,-4.69801 0,-3.52344 0,7.04698 0,14.09387 0,21.14098 0,14.0551 -4.247,-23.18622 18.1626,0 3.7446,3.87405 -3.0269,9.39581 -4.5405,14.09404"
     id="path4909"
     inkscape:connector-curvature="0" />
  <path
     style="fill:none;fill-rule:evenodd;stroke:#000000;stroke-width:0.95997226px;stroke-linecap:butt;stroke-linejoin:miter;stroke-opacity:1"
     d="m 1513.4961,939.673 c 9.0814,0 18.1627,0 27.2441,0 1.5135,0 3.4704,-0.83055 4.5407,0 1.0703,0.83047 -1.0703,2.69289 0,3.52354 1.0703,0.83037 4.5405,-1.1747 4.5405,0 0,1.17433 -6.054,0 -4.5405,0 4.5405,0 9.0812,0 13.622,0 1.5136,0 3.4705,0.83037 4.5407,0 1.0703,-0.83065 -1.0702,-2.69307 0,-3.52354 1.0703,-0.83055 3.4703,0.83047 4.5405,0 1.0703,-0.83055 -1.0702,-2.69307 0,-3.52353 1.0703,-0.83056 3.4706,0.83046 4.5407,0 1.0702,-0.83056 -1.0701,-2.69298 0,-3.52344 3.0326,-2.35319 6.0491,2.353 9.0815,0 0.1461,-0.11342 0,-9.71607 0,-10.57047 0,-14.66188 0,-8.76631 0,-21.14112 0,-8.26327 1.0701,1.66106 -4.5406,-7.04706 -0.6772,-1.05042 -1.5136,-3.52336 0,-3.52336 1.5136,0 0,4.69784 0,3.52336 0,-3.52336 0,-7.04689 0,-10.57045 0,-1.17447 1.0702,-2.69297 0,-3.52333 -1.0705,-0.83067 -3.4707,0.83036 -4.5409,0 -2.2701,-1.76182 2.2705,-8.80884 0,-10.5705 -1.0701,-0.8306 -3.4704,0.83044 -4.5407,0 -1.0702,-0.8306 1.0703,-2.69319 0,-3.52363 -1.0924,-0.84777 -17.0699,0.84784 -18.1627,0 -1.0701,-0.83044 1.0703,-2.69312 0,-3.52349 -2.1404,-1.66095 -9.0812,2.34902 -9.0812,0 0,-1.17454 6.0542,0 4.5407,0 -3.0272,0 -6.0543,0 -9.0815,0 -1.5134,0 -3.4703,-0.83051 -4.5406,0 -1.0703,0.83037 1.0703,2.69305 0,3.52349 -0.1461,0.11342 -12.5208,0 -13.6218,0 -6.0545,0 -12.1086,0 -18.163,0 -1.5136,0 -4.5405,1.17454 -4.5405,0 0,-1.17447 6.054,0 4.5405,0 -3.027,0 -6.054,0 -9.0813,0 -1.5136,0 -3.4704,-0.83044 -4.5407,0 -0.1461,0.11342 0,9.71594 0,10.57042 0,1.17463 -1.0703,2.69304 0,3.52371 1.0703,0.83036 3.4704,-0.83067 4.5407,0 2.2701,1.76166 -2.2703,8.80857 0,10.57042 1.0701,0.83053 3.4706,-0.83061 4.5408,0 1.0702,0.83053 -1.0702,2.69283 0,3.52336 9.3946,7.29031 -0.3673,-11.14048 9.0813,3.52354 0.6767,1.0506 0,2.34896 0,3.52352 0,10.74346 -4.6021,0.0477 -9.0813,3.52354 -1.0702,0.83035 1.0702,2.69292 0,3.52344 -2.1405,1.66097 -6.9411,-1.66097 -9.0815,0 -0.1461,0.11327 0,9.71594 0,10.57043 0,5.87249 0,11.74506 0,17.61762 0,1.17442 -1.0703,2.69298 0,3.52353 1.0703,0.83047 3.0271,0 4.5407,0 1.5136,0 6.0543,0 4.5408,0 -3.0272,0 -9.0815,2.34884 -9.0815,0 0,-2.62627 5.6968,-3.52353 9.0815,-3.52353 6.2405,0 12.1083,2.34893 18.1626,3.52353 z"
     id="path4913"
     inkscape:connector-curvature="0" />
  <path
     style="fill:#ffffff;fill-rule:evenodd;stroke:none;stroke-width:1px;stroke-linecap:butt;stroke-linejoin:miter;stroke-opacity:1"
     d="m 596.27876,481.61818 c -1.5629,-1.43224 57.12981,-67.66777 143.62109,-162.37727 18.93653,-0.22629 38.91811,-0.4525 59.44439,-0.6668 25.17869,-15.25427 51.35016,-31.03466 78.57051,-47.39596 2.95408,-1.7756 5.89915,-3.5452 8.83383,-5.30803 30.52694,15.84889 59.6613,31.03274 87.52699,45.64489 28.95673,0.35602 57.05753,0.7341 82.32833,1.09062 63.3861,85.84832 104.2434,143.21864 102.7192,144.34807 -1.5237,1.12907 -44.3259,-54.40034 -106.152,-137.53179 -24.9809,0.35625 -52.7052,0.73487 -81.13597,1.09062 -27.13451,-14.5894 -55.40185,-29.8821 -85.01941,-45.96605 -2.85596,1.78463 -5.722,3.57503 -8.59686,5.37035 -26.49144,16.54363 -51.96555,32.40233 -76.54452,47.6306 -20.20135,-0.21427 -39.90601,-0.44054 -58.61309,-0.6668 -84.80676,92.21682 -145.42012,156.1693 -146.98249,154.73755 z"
     id="path4915"
     inkscape:path-effect="#path-effect4917"
     inkscape:original-d="m 596.27876,481.61818 145.30179,-158.55741 59.02874,0 86.27286,-52.85247 86.2732,45.80547 81.73215,0 104.4356,140.93993"
     inkscape:connector-curvature="0" />
  <path
     style="fill:#ffffff;fill-rule:evenodd;stroke:none;stroke-width:1px;stroke-linecap:butt;stroke-linejoin:miter;stroke-opacity:1"
     d="m 764.28391,386.48372 c -0.0397,-2.75971 54.85217,-5.78875 122.5264,-6.76123 67.67423,-0.97248 122.63039,0.47803 122.67009,3.23774 0.04,2.75972 -54.85217,5.78875 -122.5264,6.76123 -67.67423,0.97248 -122.63043,-0.47802 -122.67009,-3.23774 z"
     id="path4919"
     inkscape:path-effect="#path-effect4921"
     inkscape:original-d="m 764.28391,386.48372 245.19649,-3.52349"
     inkscape:connector-curvature="0" />
  <path
     style="fill:#ffffff;fill-rule:evenodd;stroke:none;stroke-width:1px;stroke-linecap:butt;stroke-linejoin:miter;stroke-opacity:1"
     d="m 714.33645,435.81269 c -0.0571,-2.75941 76.17999,-6.57746 170.17208,-8.52243 93.99209,-1.94496 170.32187,-1.28397 170.37897,1.47544 0.057,2.75941 -76.17999,6.57746 -170.17208,8.52243 -93.99209,1.94496 -170.32187,1.28397 -170.37897,-1.47544 z"
     id="path4923"
     inkscape:path-effect="#path-effect4925"
     inkscape:original-d="M 714.33645,435.81269 1054.8875,428.7657"
     inkscape:connector-curvature="0" />
  <path
     style="fill:#ffffff;fill-rule:evenodd;stroke:none;stroke-width:1px;stroke-linecap:butt;stroke-linejoin:miter;stroke-opacity:1"
     d="m 2576.0152,1041.8543 c -0.1978,-2.2089 48.8664,-8.1423 119.372,-14.6576 12.7145,10.9827 26.1488,22.6995 40.2782,35.1087 4.0615,-1.6131 8.1626,-3.2388 12.2955,-4.8737 31.8611,-12.6036 61.1244,-23.9752 86.837,-33.708 52.6624,19.8249 86.963,33.9685 86.3089,35.7481 -0.6533,1.7774 -35.6924,-9.5614 -86.2367,-27.6749 -26.0468,10.3495 -55.815,21.8818 -88.1746,34.1954 -4.1972,1.5971 -8.3609,3.1781 -12.4829,4.7401 -14.5965,-12.3585 -28.4405,-24.1614 -41.454,-35.3615 -67.624,5.8537 -116.5457,8.691 -116.7434,6.4834 z"
     id="path4931"
     inkscape:path-effect="#path-effect4933"
     inkscape:original-d="m 2576.0152,1041.8543 118.0577,-10.5705 40.8661,35.2351 99.895,-38.7586 86.2728,31.7115"
     inkscape:connector-curvature="0" />
  <path
     style="fill:#ffffff;fill-rule:evenodd;stroke:none;stroke-width:1px;stroke-linecap:butt;stroke-linejoin:miter;stroke-opacity:1"
     d="m 2548.771,967.86091 c 2.0702,0.0684 1.1555,55.06679 -2.4615,135.33659 40.564,-1.7752 91.384,-3.9537 141.8995,-5.9607 153.1539,-6.085 278.1991,-9.2186 278.3047,-6.0535 0.1055,3.1603 -125.5939,8.405 -281.3934,12.6268 -51.1953,1.3873 -102.3579,2.6133 -142.969,3.547 1.8128,-84.2159 4.5548,-139.56442 6.6197,-139.49619 z"
     id="path4935"
     inkscape:path-effect="#path-effect4937"
     inkscape:original-d="m 2548.771,967.86091 -4.5406,137.41639 422.2833,-14.094"
     inkscape:connector-curvature="0" />
  <path
     style="fill:#ffffff;fill-rule:evenodd;stroke:none;stroke-width:1px;stroke-linecap:butt;stroke-linejoin:miter;stroke-opacity:1"
     d="m 2539.6898,812.82702 c 2.073,-0.0722 4.8597,52.14625 6.7057,128.12773 37.4722,-0.41563 83.2871,-0.86112 129.5263,-1.14868 142.4799,-0.88609 258.8069,0.25963 258.8069,3.39047 0,3.12613 -117.0572,4.28127 -262.14,3.39047 -46.8759,-0.28781 -93.0281,-0.7328 -130.5234,-1.14868 -3.5855,-79.83173 -4.4438,-132.53927 -2.3755,-132.61131 z"
     id="path4939"
     inkscape:path-effect="#path-effect4941"
     inkscape:original-d="m 2539.6898,812.82702 4.5406,130.36952 390.4983,0"
     inkscape:connector-curvature="0" />
  <path
     style="fill:#ffffff;fill-rule:evenodd;stroke:none;stroke-width:1px;stroke-linecap:butt;stroke-linejoin:miter;stroke-opacity:1"
     d="m 2557.8526,929.10249 c -0.1534,-2.23999 64.6667,-8.57816 153.8225,-15.30793 0,0 0,0 0,0 20.1216,-3.51366 41.4672,-7.16135 63.6413,-10.86972 13.5538,-2.26673 26.83,-4.45793 39.71,-6.5573 18.7358,-10.71904 36.6276,-20.86856 53.0938,-30.13624 4.9017,-8.57853 9.5975,-16.76052 14.037,-24.46014 14.0281,-6.69212 26.5693,-12.57656 37.4679,-17.57975 25.901,-14.64224 41.7409,-22.94081 42.348,-21.9349 0.6073,1.00627 -14.1285,11.16046 -39.3846,27.39423 -10.2532,5.25523 -22.0318,11.16575 -35.1825,17.65516 -4.1564,7.86436 -8.5741,16.18362 -13.2072,24.86898 -17.1079,10.27207 -35.9659,21.51013 -55.8828,33.28646 -13.1084,2.28465 -26.6483,4.6171 -40.4874,6.97133 -22.6413,3.85159 -44.4729,7.48753 -65.0327,10.83647 0,0 -1e-4,0 -1e-4,0 -89.6454,5.51231 -154.7898,8.07383 -154.9432,5.83335 z"
     id="path4943"
     inkscape:path-effect="#path-effect4945"
     inkscape:original-d="m 2557.8526,929.10249 154.3829,-10.57064 104.4357,-17.61741 54.4883,-31.71134 13.6221,-24.66457 36.3252,-17.61746 40.8663,-24.66456"
     inkscape:connector-curvature="0"
     sodipodi:nodetypes="ccccccc" />
  <g
     inkscape:groupmode="layer"
     id="layer1"
     inkscape:label="Layer 1"
     transform="translate(-576.8717,-11.408636)" />
</svg>
