<?xml version="1.0" encoding="UTF-8" standalone="no"?>
<!-- Created with Inkscape (http://www.inkscape.org/) -->

<svg
   xmlns:dc="http://purl.org/dc/elements/1.1/"
   xmlns:cc="http://creativecommons.org/ns#"
   xmlns:rdf="http://www.w3.org/1999/02/22-rdf-syntax-ns#"
   xmlns:svg="http://www.w3.org/2000/svg"
   xmlns="http://www.w3.org/2000/svg"
   xmlns:sodipodi="http://sodipodi.sourceforge.net/DTD/sodipodi-0.dtd"
   xmlns:inkscape="http://www.inkscape.org/namespaces/inkscape"
   id="svg4208"
   version="1.1"
   inkscape:version="0.91 r"
   width="4080"
   height="3060"
   viewBox="0 0 4080 3060"
   sodipodi:docname="mockwhite2.svg">
  <metadata
     id="metadata4214">
    <rdf:RDF>
      <cc:Work
         rdf:about="">
        <dc:format>image/svg+xml</dc:format>
        <dc:type
           rdf:resource="http://purl.org/dc/dcmitype/StillImage" />
        <dc:title></dc:title>
      </cc:Work>
    </rdf:RDF>
  </metadata>
  <defs
     id="defs4212">
    <inkscape:path-effect
       effect="skeletal"
       id="path-effect4945"
       is_visible="true"
       pattern="M 0,5 C 0,2.24 2.24,0 5,0 7.76,0 10,2.24 10,5 10,7.76 7.76,10 5,10 2.24,10 0,7.76 0,5 Z"
       copytype="single_stretched"
       prop_scale="1"
       scale_y_rel="false"
       spacing="0"
       normal_offset="0"
       tang_offset="0"
       prop_units="false"
       vertical_pattern="false"
       fuse_tolerance="0" />
    <inkscape:path-effect
       effect="skeletal"
       id="path-effect4941"
       is_visible="true"
       pattern="M 0,5 C 0,2.24 2.24,0 5,0 7.76,0 10,2.24 10,5 10,7.76 7.76,10 5,10 2.24,10 0,7.76 0,5 Z"
       copytype="single_stretched"
       prop_scale="1"
       scale_y_rel="false"
       spacing="0"
       normal_offset="0"
       tang_offset="0"
       prop_units="false"
       vertical_pattern="false"
       fuse_tolerance="0" />
    <inkscape:path-effect
       effect="skeletal"
       id="path-effect4937"
       is_visible="true"
       pattern="M 0,5 C 0,2.24 2.24,0 5,0 7.76,0 10,2.24 10,5 10,7.76 7.76,10 5,10 2.24,10 0,7.76 0,5 Z"
       copytype="single_stretched"
       prop_scale="1"
       scale_y_rel="false"
       spacing="0"
       normal_offset="0"
       tang_offset="0"
       prop_units="false"
       vertical_pattern="false"
       fuse_tolerance="0" />
    <inkscape:path-effect
       effect="skeletal"
       id="path-effect4933"
       is_visible="true"
       pattern="M 0,5 C 0,2.24 2.24,0 5,0 7.76,0 10,2.24 10,5 10,7.76 7.76,10 5,10 2.24,10 0,7.76 0,5 Z"
       copytype="single_stretched"
       prop_scale="1"
       scale_y_rel="false"
       spacing="0"
       normal_offset="0"
       tang_offset="0"
       prop_units="false"
       vertical_pattern="false"
       fuse_tolerance="0" />
    <inkscape:path-effect
       effect="skeletal"
       id="path-effect4929"
       is_visible="true"
       pattern="M 0,5 C 0,2.24 2.24,0 5,0 7.76,0 10,2.24 10,5 10,7.76 7.76,10 5,10 2.24,10 0,7.76 0,5 Z"
       copytype="single_stretched"
       prop_scale="1"
       scale_y_rel="false"
       spacing="0"
       normal_offset="0"
       tang_offset="0"
       prop_units="false"
       vertical_pattern="false"
       fuse_tolerance="0" />
    <inkscape:path-effect
       effect="skeletal"
       id="path-effect4925"
       is_visible="true"
       pattern="M 0,5 C 0,2.24 2.24,0 5,0 7.76,0 10,2.24 10,5 10,7.76 7.76,10 5,10 2.24,10 0,7.76 0,5 Z"
       copytype="single_stretched"
       prop_scale="1"
       scale_y_rel="false"
       spacing="0"
       normal_offset="0"
       tang_offset="0"
       prop_units="false"
       vertical_pattern="false"
       fuse_tolerance="0" />
    <inkscape:path-effect
       effect="skeletal"
       id="path-effect4921"
       is_visible="true"
       pattern="M 0,5 C 0,2.24 2.24,0 5,0 7.76,0 10,2.24 10,5 10,7.76 7.76,10 5,10 2.24,10 0,7.76 0,5 Z"
       copytype="single_stretched"
       prop_scale="1"
       scale_y_rel="false"
       spacing="0"
       normal_offset="0"
       tang_offset="0"
       prop_units="false"
       vertical_pattern="false"
       fuse_tolerance="0" />
    <inkscape:path-effect
       effect="skeletal"
       id="path-effect4917"
       is_visible="true"
       pattern="M 0,5 C 0,2.24 2.24,0 5,0 7.76,0 10,2.24 10,5 10,7.76 7.76,10 5,10 2.24,10 0,7.76 0,5 Z"
       copytype="single_stretched"
       prop_scale="1"
       scale_y_rel="false"
       spacing="0"
       normal_offset="0"
       tang_offset="0"
       prop_units="false"
       vertical_pattern="false"
       fuse_tolerance="0" />
    <inkscape:path-effect
       effect="skeletal"
       id="path-effect4903"
       is_visible="true"
       pattern="M 0,5 C 0,2.24 2.24,0 5,0 7.76,0 10,2.24 10,5 10,7.76 7.76,10 5,10 2.24,10 0,7.76 0,5 Z"
       copytype="single_stretched"
       prop_scale="1"
       scale_y_rel="false"
       spacing="0"
       normal_offset="0"
       tang_offset="0"
       prop_units="false"
       vertical_pattern="false"
       fuse_tolerance="0" />
    <inkscape:path-effect
       effect="skeletal"
       id="path-effect4899"
       is_visible="true"
       pattern="M 0,5 C 0,2.24 2.24,0 5,0 7.76,0 10,2.24 10,5 10,7.76 7.76,10 5,10 2.24,10 0,7.76 0,5 Z"
       copytype="single_stretched"
       prop_scale="1"
       scale_y_rel="false"
       spacing="0"
       normal_offset="0"
       tang_offset="0"
       prop_units="false"
       vertical_pattern="false"
       fuse_tolerance="0" />
    <inkscape:path-effect
       effect="skeletal"
       id="path-effect4895"
       is_visible="true"
       pattern="M 0,5 C 0,2.24 2.24,0 5,0 7.76,0 10,2.24 10,5 10,7.76 7.76,10 5,10 2.24,10 0,7.76 0,5 Z"
       copytype="single_stretched"
       prop_scale="1"
       scale_y_rel="false"
       spacing="0"
       normal_offset="0"
       tang_offset="0"
       prop_units="false"
       vertical_pattern="false"
       fuse_tolerance="0" />
    <inkscape:path-effect
       effect="skeletal"
       id="path-effect4891"
       is_visible="true"
       pattern="M 0,5 C 0,2.24 2.24,0 5,0 7.76,0 10,2.24 10,5 10,7.76 7.76,10 5,10 2.24,10 0,7.76 0,5 Z"
       copytype="single_stretched"
       prop_scale="1"
       scale_y_rel="false"
       spacing="0"
       normal_offset="0"
       tang_offset="0"
       prop_units="false"
       vertical_pattern="false"
       fuse_tolerance="0" />
    <inkscape:path-effect
       effect="skeletal"
       id="path-effect4887"
       is_visible="true"
       pattern="M 0,5 C 0,2.24 2.24,0 5,0 7.76,0 10,2.24 10,5 10,7.76 7.76,10 5,10 2.24,10 0,7.76 0,5 Z"
       copytype="single_stretched"
       prop_scale="1"
       scale_y_rel="false"
       spacing="0"
       normal_offset="0"
       tang_offset="0"
       prop_units="false"
       vertical_pattern="false"
       fuse_tolerance="0" />
    <inkscape:path-effect
       effect="skeletal"
       id="path-effect4883"
       is_visible="true"
       pattern="M 0,5 C 0,2.24 2.24,0 5,0 7.76,0 10,2.24 10,5 10,7.76 7.76,10 5,10 2.24,10 0,7.76 0,5 Z"
       copytype="single_stretched"
       prop_scale="1"
       scale_y_rel="false"
       spacing="0"
       normal_offset="0"
       tang_offset="0"
       prop_units="false"
       vertical_pattern="false"
       fuse_tolerance="0" />
    <inkscape:path-effect
       effect="skeletal"
       id="path-effect4867"
       is_visible="true"
       pattern="M 0,5 C 0,2.24 2.24,0 5,0 7.76,0 10,2.24 10,5 10,7.76 7.76,10 5,10 2.24,10 0,7.76 0,5 Z"
       copytype="single_stretched"
       prop_scale="1"
       scale_y_rel="false"
       spacing="0"
       normal_offset="0"
       tang_offset="0"
       prop_units="false"
       vertical_pattern="false"
       fuse_tolerance="0" />
    <inkscape:path-effect
       effect="skeletal"
       id="path-effect4863"
       is_visible="true"
       pattern="M 0,5 C 0,2.24 2.24,0 5,0 7.76,0 10,2.24 10,5 10,7.76 7.76,10 5,10 2.24,10 0,7.76 0,5 Z"
       copytype="single_stretched"
       prop_scale="1"
       scale_y_rel="false"
       spacing="0"
       normal_offset="0"
       tang_offset="0"
       prop_units="false"
       vertical_pattern="false"
       fuse_tolerance="0" />
    <inkscape:path-effect
       effect="skeletal"
       id="path-effect4859"
       is_visible="true"
       pattern="M 0,5 C 0,2.24 2.24,0 5,0 7.76,0 10,2.24 10,5 10,7.76 7.76,10 5,10 2.24,10 0,7.76 0,5 Z"
       copytype="single_stretched"
       prop_scale="1"
       scale_y_rel="false"
       spacing="0"
       normal_offset="0"
       tang_offset="0"
       prop_units="false"
       vertical_pattern="false"
       fuse_tolerance="0" />
    <inkscape:path-effect
       effect="skeletal"
       id="path-effect4855"
       is_visible="true"
       pattern="M 0,5 C 0,2.24 2.24,0 5,0 7.76,0 10,2.24 10,5 10,7.76 7.76,10 5,10 2.24,10 0,7.76 0,5 Z"
       copytype="single_stretched"
       prop_scale="1"
       scale_y_rel="false"
       spacing="0"
       normal_offset="0"
       tang_offset="0"
       prop_units="false"
       vertical_pattern="false"
       fuse_tolerance="0" />
    <inkscape:path-effect
       effect="skeletal"
       id="path-effect4851"
       is_visible="true"
       pattern="M 0,5 C 0,2.24 2.24,0 5,0 7.76,0 10,2.24 10,5 10,7.76 7.76,10 5,10 2.24,10 0,7.76 0,5 Z"
       copytype="single_stretched"
       prop_scale="1"
       scale_y_rel="false"
       spacing="0"
       normal_offset="0"
       tang_offset="0"
       prop_units="false"
       vertical_pattern="false"
       fuse_tolerance="0" />
    <inkscape:path-effect
       effect="skeletal"
       id="path-effect4847"
       is_visible="true"
       pattern="M 0,5 C 0,2.24 2.24,0 5,0 7.76,0 10,2.24 10,5 10,7.76 7.76,10 5,10 2.24,10 0,7.76 0,5 Z"
       copytype="single_stretched"
       prop_scale="1"
       scale_y_rel="false"
       spacing="0"
       normal_offset="0"
       tang_offset="0"
       prop_units="false"
       vertical_pattern="false"
       fuse_tolerance="0" />
    <inkscape:path-effect
       effect="skeletal"
       id="path-effect4843"
       is_visible="true"
       pattern="M 0,5 C 0,2.24 2.24,0 5,0 7.76,0 10,2.24 10,5 10,7.76 7.76,10 5,10 2.24,10 0,7.76 0,5 Z"
       copytype="single_stretched"
       prop_scale="1"
       scale_y_rel="false"
       spacing="0"
       normal_offset="0"
       tang_offset="0"
       prop_units="false"
       vertical_pattern="false"
       fuse_tolerance="0" />
    <inkscape:path-effect
       effect="skeletal"
       id="path-effect4839"
       is_visible="true"
       pattern="M 0,5 C 0,2.24 2.24,0 5,0 7.76,0 10,2.24 10,5 10,7.76 7.76,10 5,10 2.24,10 0,7.76 0,5 Z"
       copytype="single_stretched"
       prop_scale="1"
       scale_y_rel="false"
       spacing="0"
       normal_offset="0"
       tang_offset="0"
       prop_units="false"
       vertical_pattern="false"
       fuse_tolerance="0" />
    <inkscape:path-effect
       effect="skeletal"
       id="path-effect4835"
       is_visible="true"
       pattern="M 0,5 C 0,2.24 2.24,0 5,0 7.76,0 10,2.24 10,5 10,7.76 7.76,10 5,10 2.24,10 0,7.76 0,5 Z"
       copytype="single_stretched"
       prop_scale="1"
       scale_y_rel="false"
       spacing="0"
       normal_offset="0"
       tang_offset="0"
       prop_units="false"
       vertical_pattern="false"
       fuse_tolerance="0" />
    <inkscape:path-effect
       effect="skeletal"
       id="path-effect4831"
       is_visible="true"
       pattern="M 0,5 C 0,2.24 2.24,0 5,0 7.76,0 10,2.24 10,5 10,7.76 7.76,10 5,10 2.24,10 0,7.76 0,5 Z"
       copytype="single_stretched"
       prop_scale="1"
       scale_y_rel="false"
       spacing="0"
       normal_offset="0"
       tang_offset="0"
       prop_units="false"
       vertical_pattern="false"
       fuse_tolerance="0" />
    <inkscape:path-effect
       effect="skeletal"
       id="path-effect4827"
       is_visible="true"
       pattern="M 0,5 C 0,2.24 2.24,0 5,0 7.76,0 10,2.24 10,5 10,7.76 7.76,10 5,10 2.24,10 0,7.76 0,5 Z"
       copytype="single_stretched"
       prop_scale="1"
       scale_y_rel="false"
       spacing="0"
       normal_offset="0"
       tang_offset="0"
       prop_units="false"
       vertical_pattern="false"
       fuse_tolerance="0" />
    <inkscape:path-effect
       effect="skeletal"
       id="path-effect4823"
       is_visible="true"
       pattern="M 0,5 C 0,2.24 2.24,0 5,0 7.76,0 10,2.24 10,5 10,7.76 7.76,10 5,10 2.24,10 0,7.76 0,5 Z"
       copytype="single_stretched"
       prop_scale="1"
       scale_y_rel="false"
       spacing="0"
       normal_offset="0"
       tang_offset="0"
       prop_units="false"
       vertical_pattern="false"
       fuse_tolerance="0" />
    <inkscape:path-effect
       effect="skeletal"
       id="path-effect4819"
       is_visible="true"
       pattern="M 0,5 C 0,2.24 2.24,0 5,0 7.76,0 10,2.24 10,5 10,7.76 7.76,10 5,10 2.24,10 0,7.76 0,5 Z"
       copytype="single_stretched"
       prop_scale="1"
       scale_y_rel="false"
       spacing="0"
       normal_offset="0"
       tang_offset="0"
       prop_units="false"
       vertical_pattern="false"
       fuse_tolerance="0" />
    <inkscape:path-effect
       effect="skeletal"
       id="path-effect4815"
       is_visible="true"
       pattern="M 0,5 C 0,2.24 2.24,0 5,0 7.76,0 10,2.24 10,5 10,7.76 7.76,10 5,10 2.24,10 0,7.76 0,5 Z"
       copytype="single_stretched"
       prop_scale="1"
       scale_y_rel="false"
       spacing="0"
       normal_offset="0"
       tang_offset="0"
       prop_units="false"
       vertical_pattern="false"
       fuse_tolerance="0" />
    <inkscape:path-effect
       effect="skeletal"
       id="path-effect4811"
       is_visible="true"
       pattern="M 0,5 C 0,2.24 2.24,0 5,0 7.76,0 10,2.24 10,5 10,7.76 7.76,10 5,10 2.24,10 0,7.76 0,5 Z"
       copytype="single_stretched"
       prop_scale="1"
       scale_y_rel="false"
       spacing="0"
       normal_offset="0"
       tang_offset="0"
       prop_units="false"
       vertical_pattern="false"
       fuse_tolerance="0" />
    <inkscape:path-effect
       effect="skeletal"
       id="path-effect4807"
       is_visible="true"
       pattern="M 0,5 C 0,2.24 2.24,0 5,0 7.76,0 10,2.24 10,5 10,7.76 7.76,10 5,10 2.24,10 0,7.76 0,5 Z"
       copytype="single_stretched"
       prop_scale="1"
       scale_y_rel="false"
       spacing="0"
       normal_offset="0"
       tang_offset="0"
       prop_units="false"
       vertical_pattern="false"
       fuse_tolerance="0" />
    <inkscape:path-effect
       effect="skeletal"
       id="path-effect4803"
       is_visible="true"
       pattern="M 0,5 C 0,2.24 2.24,0 5,0 7.76,0 10,2.24 10,5 10,7.76 7.76,10 5,10 2.24,10 0,7.76 0,5 Z"
       copytype="single_stretched"
       prop_scale="1"
       scale_y_rel="false"
       spacing="0"
       normal_offset="0"
       tang_offset="0"
       prop_units="false"
       vertical_pattern="false"
       fuse_tolerance="0" />
    <inkscape:path-effect
       effect="skeletal"
       id="path-effect4799"
       is_visible="true"
       pattern="M 0,5 C 0,2.24 2.24,0 5,0 7.76,0 10,2.24 10,5 10,7.76 7.76,10 5,10 2.24,10 0,7.76 0,5 Z"
       copytype="single_stretched"
       prop_scale="1"
       scale_y_rel="false"
       spacing="0"
       normal_offset="0"
       tang_offset="0"
       prop_units="false"
       vertical_pattern="false"
       fuse_tolerance="0" />
    <inkscape:path-effect
       fuse_tolerance="0"
       vertical_pattern="false"
       prop_units="false"
       tang_offset="0"
       normal_offset="0"
       spacing="0"
       scale_y_rel="false"
       prop_scale="1"
       copytype="single_stretched"
       pattern="m -45.833333,-207.5 c 0,-2.76 2.24,-5 5,-5 2.76,0 5,2.24 5,5 0,2.76 -2.24,5 -5,5 -2.76,0 -5,-2.24 -5,-5 z"
       is_visible="true"
       id="path-effect4795"
       effect="skeletal" />
    <inkscape:path-effect
       effect="skeletal"
       id="path-effect4791"
       is_visible="true"
       pattern="M 0,5 C 0,2.24 2.24,0 5,0 7.76,0 10,2.24 10,5 10,7.76 7.76,10 5,10 2.24,10 0,7.76 0,5 Z"
       copytype="single_stretched"
       prop_scale="1"
       scale_y_rel="false"
       spacing="0"
       normal_offset="0"
       tang_offset="0"
       prop_units="false"
       vertical_pattern="false"
       fuse_tolerance="0" />
    <inkscape:path-effect
       effect="skeletal"
       id="path-effect4787"
       is_visible="true"
       pattern="m -33.333334,-3.3333337 c 0,-2.76 2.24,-5 5,-5 2.76,0 5,2.24 5,5 0,2.76000033 -2.24,5.0000003 -5,5.0000003 -2.76,0 -5,-2.23999997 -5,-5.0000003 z"
       copytype="single_stretched"
       prop_scale="1"
       scale_y_rel="false"
       spacing="0"
       normal_offset="0"
       tang_offset="0"
       prop_units="false"
       vertical_pattern="false"
       fuse_tolerance="0" />
    <inkscape:path-effect
       effect="skeletal"
       id="path-effect4783"
       is_visible="true"
       pattern="M 0,5 C 0,2.24 2.24,0 5,0 7.76,0 10,2.24 10,5 10,7.76 7.76,10 5,10 2.24,10 0,7.76 0,5 Z"
       copytype="single_stretched"
       prop_scale="1"
       scale_y_rel="false"
       spacing="0"
       normal_offset="0"
       tang_offset="0"
       prop_units="false"
       vertical_pattern="false"
       fuse_tolerance="0" />
    <inkscape:path-effect
       effect="skeletal"
       id="path-effect4779"
       is_visible="true"
       pattern="M 0,5 C 0,2.24 2.24,0 5,0 7.76,0 10,2.24 10,5 10,7.76 7.76,10 5,10 2.24,10 0,7.76 0,5 Z"
       copytype="single_stretched"
       prop_scale="1"
       scale_y_rel="false"
       spacing="0"
       normal_offset="0"
       tang_offset="0"
       prop_units="false"
       vertical_pattern="false"
       fuse_tolerance="0" />
  </defs>
  <sodipodi:namedview
     pagecolor="#ffffff"
     bordercolor="#666666"
     borderopacity="1"
     objecttolerance="10"
     gridtolerance="10"
     guidetolerance="10"
     inkscape:pageopacity="0"
     inkscape:pageshadow="2"
     inkscape:window-width="1680"
     inkscape:window-height="1023"
     id="namedview4210"
     showgrid="false"
     inkscape:zoom="0.20526726"
     inkscape:cx="2016.1296"
     inkscape:cy="1536.316"
     inkscape:window-x="1680"
     inkscape:window-y="0"
     inkscape:window-maximized="1"
     inkscape:current-layer="svg4208" />
  <path
     style="fill:#ffffff;fill-rule:evenodd;stroke:none;stroke-width:1px;stroke-linecap:butt;stroke-linejoin:miter;stroke-opacity:1"
     d="m 208.61148,2632.3081 c -0.15934,0.01 -4.22427,-58.1165 -7.65786,-168.0507 -3.48473,-111.5718 -5.98204,-270.0187 -1.66224,-478.5766 3.90624,-188.5984 12.70183,-392.8963 27.98702,-646.7151 1e-5,0 2e-5,-2e-4 2e-5,-2e-4 13.37319,-222.0728 25.56514,-388.21561 42.68612,-646.6336 13.77975,-199.73251 28.40047,-423.85432 37.93203,-648.456744 486.39671,16.285316 1217.35063,49.764921 1815.68173,54.814802 287.5751,2.796002 586.7507,0.20222 889.7995,-13.728654 263.7821,-11.327329 533.4913,-31.26901 804.8068,-64.907776 21.0832,-2.613972 42.1305,-5.304972 63.1425,-8.074585 -17.9604,864.832137 -34.7451,1669.983357 -50.3769,2415.032157 -2134.0243,123.2233 -3622.20694,207.5945 -3622.33872,205.297 -0.13179,-2.2978 1487.41142,-88.6038 3617.50692,-209.9566 15.6153,-742.5379 32.5833,-1544.25727 50.8799,-2405.522887 -20.9001,2.896175 -41.835,5.713716 -62.8051,8.454192 -269.8665,35.26739 -538.0635,56.783934 -800.3613,69.581532 -303.3,13.875003 -602.6472,16.368053 -890.3493,13.433113 -595.968,-6.8463 -1327.12566,-42.58136 -1811.64307,-60.17427 -8.20769,223.46926 -21.64065,445.8053 -34.57651,644.69787 -17.69407,261.02034 -29.84175,421.91695 -43.83936,646.52095 0,0 -1e-5,3e-4 -1e-5,3e-4 -15.82493,253.9292 -25.1261,457.7276 -29.6497,646.4387 -4.99992,208.5883 -3.20607,366.7225 -0.4809,478.4113 2.68204,109.9216 5.96388,168.0837 5.31843,168.1158 z"
     id="path4777"
     inkscape:path-effect="#path-effect4779"
     inkscape:original-d="M 208.61148,2632.3081 C 165.707,1770.2052 275.73593,908.10229 309.86805,45.999168 1520.5266,88.244504 2745.8782,167.6044 3879.1627,14.403778 L 3828.5343,2424.6813 Z"
     inkscape:connector-curvature="0"
     sodipodi:nodetypes="ccccc" />
  <path
     style="fill:#ffffff;fill-rule:evenodd;stroke:none;stroke-width:1px;stroke-linecap:butt;stroke-linejoin:miter;stroke-opacity:1"
     d="m 892.09348,808.80235 c 2.75752,0.11687 -12.0156,401.59965 -32.97573,896.16695 -20.96013,494.5673 -40.20925,895.8604 -42.96677,895.7435 -2.75752,-0.1169 12.0156,-401.5997 32.97573,-896.1669 20.96013,-494.5673 40.20925,-895.86042 42.96677,-895.74355 z"
     id="path4781"
     inkscape:path-effect="#path-effect4783"
     inkscape:original-d="M 892.09348,808.80235 816.15098,2600.7128"
     inkscape:connector-curvature="0" />
  <path
     style="fill:#ffffff;fill-rule:evenodd;stroke:none;stroke-width:1px;stroke-linecap:butt;stroke-linejoin:miter;stroke-opacity:1"
     d="m 1499.6327,2299.8713 c 0.1995,-1.2525 49.6456,6.9607 136.4653,15.5933 90.9268,9.0411 206.9032,16.8193 359.8816,17.7887 154.7172,0.978 308.1944,-4.8881 497.6588,-14.3751 1.6831,-0.084 3.3653,-0.1686 5.0465,-0.253 197.2793,-9.9086 339.1565,-18.0997 500.9173,-21.4225 151.697,-3.1186 264.5051,-0.1949 355.1818,5.2967 85.77,5.1944 134.6014,11.64 134.5406,12.2829 -0.1116,1.1809 -49.0925,-3.5516 -134.8013,-7.2628 -91.4425,-3.9596 -202.4159,-5.7346 -354.7188,-1.706 -165.1781,4.372 -299.6532,12.6968 -500.6178,22.799 -1.6817,0.084 -3.3644,0.169 -5.0481,0.2533 -188.7555,9.4554 -344.032,14.9148 -498.2389,13.0479 -152.7872,-1.8473 -269.8896,-10.8584 -360.346,-21.4112 -86.8257,-10.1292 -136.0123,-20.0583 -135.921,-20.6312 z"
     id="path4785"
     inkscape:path-effect="#path-effect4787"
     inkscape:original-d="m 1499.6327,2299.8713 c 653.3197,104.0813 1348.2579,-45.7249 1989.6919,14.911"
     inkscape:connector-curvature="0"
     sodipodi:nodetypes="cc" />
  <path
     style="fill:#ffffff;fill-rule:evenodd;stroke:none;stroke-width:1px;stroke-linecap:butt;stroke-linejoin:miter;stroke-opacity:1"
     d="m 1514.8215,2131.2956 c 0.1296,0.4675 110.9177,-38.5336 298.3354,-64.2926 0,0 10e-5,0 10e-5,0 82.9514,-11.4004 177.9835,-19.6231 285.5537,-21.5307 85.8193,-1.5217 175.8504,1.0169 272.1289,7.6306 50.2221,3.4497 101.1149,7.9325 153.2802,13.2592 35.6048,3.6358 70.8542,7.5677 105.4436,11.6277 76.5901,8.9896 176.6525,21.9603 245.4564,30.3783 85.1314,10.4145 158.9627,18.5968 232.403,24.2041 85.1796,6.5018 155.6384,8.3381 219.6705,6.503 131.4806,-3.7704 207.3737,-23.2973 207.797,-21.3206 0.047,0.2211 -75.4974,21.9211 -207.5841,27.3934 -64.1504,2.6589 -135.1302,1.4881 -220.4765,-4.4341 -73.5276,-5.1005 -147.8435,-12.9376 -232.9319,-23.0341 -58.6126,-6.9542 -179.2653,-22.1069 -245.4888,-29.811 -34.5537,-4.0196 -69.7629,-7.9286 -105.3051,-11.5582 -52.0849,-5.3189 -102.8516,-9.8297 -152.949,-13.3452 -96.0519,-6.7399 -185.7399,-9.5411 -271.3037,-8.4107 -107.2508,1.4166 -201.9261,8.9543 -284.756,19.5268 0,0 -10e-5,0 -10e-5,0 -186.9895,23.8666 -298.403,60.3543 -299.2736,57.2141 z"
     id="path4789"
     inkscape:path-effect="#path-effect4791"
     inkscape:original-d="m 1514.8215,2131.2956 c 815.1994,-226.0193 1482.5501,101.5562 2020.0688,-13.541"
     inkscape:connector-curvature="0"
     sodipodi:nodetypes="cc" />
  <path
     sodipodi:nodetypes="cc"
     inkscape:connector-curvature="0"
     inkscape:original-d="m 1459.1304,1901.1006 c 727.0338,-114.3581 1460.7121,85.8132 2020.0688,-13.5412"
     inkscape:path-effect="#path-effect4795"
     id="path4793"
     d="m 1459.1304,1901.1006 c -0.087,-0.5513 54.2709,-11.451 149.6624,-21.9204 99.2723,-10.8953 227.8002,-19.53 394.0591,-18.9055 145.5522,0.5445 292.9796,7.8259 466.727,19.2413 21.0735,1.3846 42.056,2.7959 62.8023,4.2086 198.469,13.509 338.1449,24.082 497.5216,27.6244 89.649,1.9928 164.3261,0.9237 231.5438,-2.473 136.9899,-6.924 217.4537,-22.9995 217.7526,-21.3166 0.1083,0.6096 -80.0519,18.8668 -217.4006,27.5173 -67.2104,4.2338 -142.3537,5.9961 -232.0534,4.5918 -157.9177,-2.4726 -301.3709,-12.7146 -498.0389,-25.9858 -20.7352,-1.3987 -41.7263,-2.8039 -62.783,-4.1871 -174.1853,-11.4423 -320.3337,-19.0554 -466.1272,-20.3469 -166.369,-1.4714 -293.7832,5.9257 -393.4715,15.2606 -95.3591,8.9296 -149.9815,18.0436 -150.1942,16.6913 z"
     style="fill:#ffffff;fill-rule:evenodd;stroke:none;stroke-width:1px;stroke-linecap:butt;stroke-linejoin:miter;stroke-opacity:1" />
  <path
     style="fill:#ffffff;fill-rule:evenodd;stroke:none;stroke-width:1px;stroke-linecap:butt;stroke-linejoin:miter;stroke-opacity:1"
     d="m 2871.6597,1025.4565 c 1.6369,0.1546 -13.0943,166.2957 -38.3472,427.1029 0,0 0,10e-5 0,10e-5 64.412,8.7802 133.5363,12.0038 209.1326,9.5007 67.6892,-1.4638 136.7473,-7.1376 210.9264,-15.5968 70.3318,-8.0221 136.3271,-17.4358 211.2523,-27.4464 57.0843,-7.0368 116.5304,-13.9676 176.2405,-18.9017 11.0561,-0.9136 22.0821,-1.7559 33.0859,-2.5188 0.1122,-140.3394 0.2721,-276.4349 0.4505,-401.39737 -68.654,3.46684 -137.0014,3.63124 -199.0685,3.12648 -80.9838,-1.5117 -130.7312,-3.2474 -201.1964,-3.86345 -78.5319,-0.68533 -142.0517,0.80356 -201.0306,4.72344 -128.3977,8.5346 -201.0559,27.0684 -201.4455,25.2709 -0.034,-0.1556 72.2865,-20.5936 201.0492,-30.72935 58.9701,-4.64228 122.9308,-6.7484 201.4643,-6.63709 68.7807,0.0964 122.1638,1.56259 201.2985,2.65865 63.286,1.53252 133.3944,2.72127 203.4263,0.77418 0.1786,127.69291 0.3384,267.18171 0.4506,411.05581 -11.197,1.0206 -22.4206,2.1211 -33.6786,3.2934 -60.7792,6.3289 -121.4641,14.6468 -179.7411,22.9558 -74.7202,9.8962 -141.1329,19.2325 -211.4939,27.0701 -74.3704,8.2861 -143.7782,13.7351 -211.82,14.9085 -77.3632,0.4686 -148.0006,-4.5482 -213.6137,-14.8636 0,0 0,0 0,0 24.3579,-264.4193 41.0221,-430.641 42.6584,-430.4864 z"
     id="path4797"
     inkscape:path-effect="#path-effect4799"
     inkscape:original-d="m 2871.6597,1025.4565 -40.5028,428.7947 c 281.8308,41.39 563.6619,-31.5234 845.4925,-54.1636 l 0,-406.22655 c -268.3299,10.47225 -536.6599,-26.5639 -804.9897,31.59545 z"
     inkscape:connector-curvature="0"
     sodipodi:nodetypes="ccccc" />
  <path
     style="fill:#ffffff;fill-rule:evenodd;stroke:none;stroke-width:1px;stroke-linecap:butt;stroke-linejoin:miter;stroke-opacity:1"
     d="m 2178.0519,998.37469 c 0.2133,-0.0572 2.9673,7.83041 6.4769,23.39591 3.5737,15.8499 7.6178,38.5105 10.1108,69.2001 0,0 1e-4,0 1e-4,0 2.468,30.3612 3.2146,65.5384 1.1287,108.4529 -3.9483,74.0768 -15.1209,154.7333 -36.1576,257.0392 -70.6454,0.6012 -142.7694,3.5153 -225.0682,7.926 0,0 -10e-5,0 -10e-5,0 -64.8632,3.0101 -148.3856,7.508 -220.5534,10.1456 -145.3227,4.5852 -307.0058,3.2714 -470.3052,-17.7784 -0.1147,-12.7357 -0.2294,-25.5125 -0.3441,-38.3297 -1.4871,-166.1429 -2.8859,-328.6884 -4.1314,-476.54397 547.727,30.52719 938.9893,53.97064 938.8435,56.49236 -0.1459,2.52311 -390.8886,-19.25828 -934.4031,-51.83438 1.6646,145.31739 3.4615,304.72089 5.2404,467.61539 0.1373,12.5695 0.2738,25.0998 0.4095,37.5907 160.8951,19.2657 320.6228,19.0408 464.3622,13.4577 71.1465,-2.4052 156.4871,-6.6805 220.5026,-9.3769 0,0 10e-5,0 10e-5,0 80.8976,-2.8124 151.8905,-4.3892 221.8268,-3.7876 19.9002,-100.7342 30.5474,-179.531 34.6246,-252.8965 2.5763,-42.7377 2.3426,-77.631 0.4381,-107.9138 0,0 0,0 0,0 -1.928,-30.6279 -5.3682,-53.1153 -8.3401,-69.0851 -2.9062,-15.6167 -5.0593,-23.66269 -4.6611,-23.76951 z"
     id="path4801"
     inkscape:path-effect="#path-effect4803"
     inkscape:original-d="m 2178.0519,998.37469 c 30.166,112.46481 16.9572,271.33281 -20.2513,455.87651 -303.7696,0 -576.3955,41.6481 -911.3093,0 l -5.0627,-510.03988 z"
     inkscape:connector-curvature="0"
     sodipodi:nodetypes="ccccc" />
  <path
     style="fill:#ffffff;fill-rule:evenodd;stroke:none;stroke-width:1px;stroke-linecap:butt;stroke-linejoin:miter;stroke-opacity:1"
     d="m 2324.8741,659.85265 c -0.1067,-0.39634 56.1588,-20.22294 153.0298,-32.91827 44.0882,-5.77771 94.5245,-9.76339 152.4364,-10.58213 0,10e-6 0,0 0,0 87.9393,-1.23929 178.1636,4.84228 283.9547,15.85572 5.3404,0.55597 10.6643,1.11823 15.9677,1.68511 121.6046,12.98933 191.3094,22.84366 291.6022,30.46041 88.1456,6.68604 152.0496,6.99514 204.9259,4.74834 49.4462,-2.10105 77.5704,-5.89511 77.7224,-4.73554 0.082,0.62723 -27.8425,6.10687 -77.4389,9.68211 -52.5004,3.78459 -117.8,4.59648 -205.8116,-1.18576 -97.0353,-6.36609 -174.2275,-16.49339 -292.0597,-29.02947 -5.296,-0.56304 -10.6119,-1.12269 -15.9432,-1.67722 -105.895,-11.01469 -195.0867,-17.4643 -282.8356,-17.02548 0,0 0,0 0,0 -57.6462,0.28567 -107.7161,3.57233 -151.7025,8.51967 -96.4555,10.84819 -153.2825,28.30226 -153.8476,26.20251 z"
     id="path4805"
     inkscape:path-effect="#path-effect4807"
     inkscape:original-d="m 2324.8741,659.85265 c 410.844,-110.57481 808.8996,53.0982 1179.6391,4.51364"
     inkscape:connector-curvature="0"
     sodipodi:nodetypes="cc" />
  <path
     style="fill:#ffffff;fill-rule:evenodd;stroke:none;stroke-width:1px;stroke-linecap:butt;stroke-linejoin:miter;stroke-opacity:1"
     d="m 1990.7273,443.19845 c 0.4141,-2.56419 86.1233,14.11332 226.1116,20.74475 59.8632,2.83629 127.7917,3.60101 204.1245,0.55448 0,0 0,0 0,0 99.1658,-3.95375 197.0347,-13.92893 312.4085,-27.20908 17.2443,-1.98491 34.63,-4.01072 51.5768,-5.98206 59.6894,-6.94598 114.5336,-13.10198 169.9508,-17.70725 60.2163,-5.00492 115.4816,-7.62445 168.4691,-7.51251 65.0824,0.13785 122.0689,4.47332 171.7156,11.06947 113.8801,15.13284 178.9941,39.78919 179.0522,39.58309 -0.7329,2.60064 -66.4373,-19.7715 -179.8668,-33.07066 -49.5051,-5.80539 -106.1311,-9.46086 -170.8841,-9.06526 -52.7326,0.32185 -107.6456,3.26821 -167.6756,8.50779 -55.3328,4.83034 -109.8248,11.09296 -169.6036,18.10405 -16.9871,1.99306 -34.2934,4.01862 -51.5905,6.01003 -115.1431,13.25636 -213.9501,22.99096 -313.2189,26.33841 0,0 0,0 0,0 -76.5963,2.57974 -144.8554,1.17682 -204.8447,-2.44525 -140.4171,-8.47932 -225.7583,-27.71339 -225.7249,-27.92 z"
     id="path4809"
     inkscape:path-effect="#path-effect4811"
     inkscape:original-d="m 1990.7273,443.19845 c 635.4109,102.60259 989.5867,-125.61636 1483.4091,13.54089"
     inkscape:connector-curvature="0"
     sodipodi:nodetypes="cc" />
  <path
     style="fill:#ffffff;fill-rule:evenodd;stroke:none;stroke-width:1px;stroke-linecap:butt;stroke-linejoin:miter;stroke-opacity:1"
     d="m 588.32367,1020.9427 c 2.07787,3.0299 -55.93904,42.2698 -127.50319,88.7228 -0.63958,0.4152 -1.27829,0.8298 -1.91585,1.2435 80.46091,24.8932 145.77505,46.5038 144.60752,49.9564 -1.16013,3.4307 -67.01224,-19.2656 -149.03662,-49.3434 0.63135,-0.4565 1.26397,-0.9138 1.89762,-1.3718 71.6415,-51.7831 129.88544,-92.2187 131.95052,-89.2075 z"
     id="path4813"
     inkscape:path-effect="#path-effect4815"
     inkscape:original-d="m 588.32367,1020.9427 -131.63359,90.2728 146.82207,49.6499"
     inkscape:connector-curvature="0" />
  <path
     style="fill:#ffffff;fill-rule:evenodd;stroke:none;stroke-width:1px;stroke-linecap:butt;stroke-linejoin:miter;stroke-opacity:1"
     d="m 699.70585,1007.4019 c 1.30745,-3.3241 77.97652,27.2769 174.22866,67.5824 0,0 2e-5,0 2e-5,0 -2.33147,1.3093 -4.67952,2.6276 -7.03541,3.95 -94.14863,52.8477 -170.53108,94.1832 -172.25606,90.9584 -1.73308,-3.2399 74.35623,-43.4249 168.04656,-91.0746 2.36275,-1.2017 4.71935,-2.3999 7.05995,-3.5898 0,0 -10e-6,0 -10e-6,0 -95.10167,-34.9771 -171.35781,-64.4854 -170.04371,-67.8264 z"
     id="path4817"
     inkscape:path-effect="#path-effect4819"
     inkscape:original-d="m 699.70585,1007.4019 172.1362,67.7044 -177.19899,94.7864"
     inkscape:connector-curvature="0" />
  <path
     style="fill:#ffffff;fill-rule:evenodd;stroke:none;stroke-width:1px;stroke-linecap:butt;stroke-linejoin:miter;stroke-opacity:1"
     d="m 563.0095,1377.5195 c 2.4668,2.6352 -42.71214,44.5587 -98.7372,94.2465 -2.8e-4,-10e-5 0.2156,0.067 0.21532,0.067 71.56562,22.4143 130.07072,42.1911 128.89887,45.6086 -1.1632,3.3923 -60.42482,-17.156 -133.93467,-44.5153 -2.5e-4,-10e-5 -0.21803,-0.081 -0.21828,-0.081 55.77505,-55.0048 101.3274,-97.9416 103.77596,-95.3259 z"
     id="path4821"
     inkscape:path-effect="#path-effect4823"
     inkscape:original-d="m 563.0095,1377.5195 -101.25658,94.7862 131.63357,45.1363"
     inkscape:connector-curvature="0" />
  <path
     style="fill:#ffffff;fill-rule:evenodd;stroke:none;stroke-width:1px;stroke-linecap:butt;stroke-linejoin:miter;stroke-opacity:1"
     d="m 694.64306,1373.0059 c 1.66117,-2.9813 55.44506,27.1984 123.82068,67.7636 0,0 10e-6,10e-5 10e-6,10e-5 -3.62104,1.8911 -7.30365,3.8138 -11.00432,5.7442 -75.41597,39.3389 -136.55022,69.6275 -138.1305,66.4147 -1.5895,-3.2315 58.98825,-32.7636 133.50693,-67.1972 3.69403,-1.7069 7.37787,-3.4075 11.00235,-5.0803 0,0 -10e-6,0 -10e-6,0 -67.57732,-35.2143 -120.86756,-64.6436 -119.19514,-67.6451 z"
     id="path4825"
     inkscape:path-effect="#path-effect4827"
     inkscape:original-d="m 694.64306,1373.0059 121.50792,67.7044 -146.82205,72.2182"
     inkscape:connector-curvature="0" />
  <path
     style="fill:#ffffff;fill-rule:evenodd;stroke:none;stroke-width:1px;stroke-linecap:butt;stroke-linejoin:miter;stroke-opacity:1"
     d="m 471.87857,1688.9599 c 2.43377,2.7299 -64.56868,61.9222 -147.44371,132.95 -0.73669,0.6314 -1.47236,1.2618 -2.20671,1.8911 105.38849,22.506 190.98176,42.1719 190.15307,45.7041 -0.82453,3.5144 -87.09546,-17.1035 -194.62195,-44.5685 0.72355,-0.6705 1.44854,-1.3423 2.17471,-2.0151 82.37542,-76.3207 149.52271,-136.6782 151.94459,-133.9616 z"
     id="path4829"
     inkscape:path-effect="#path-effect4831"
     inkscape:original-d="m 471.87857,1688.9599 -151.88486,135.4089 192.38751,45.1363"
     inkscape:connector-curvature="0" />
  <path
     style="fill:#ffffff;fill-rule:evenodd;stroke:none;stroke-width:1px;stroke-linecap:butt;stroke-linejoin:miter;stroke-opacity:1"
     d="m 669.32893,1697.987 c 1.00462,-2.8684 62.09222,18.4145 143.99841,49.3241 0,0 2e-5,1e-4 2e-5,1e-4 -10.33868,7.7558 -21.58329,16.1932 -32.63416,24.4683 -85.31857,63.8882 -154.88212,114.0992 -156.92976,111.2665 -2.05535,-2.8434 66.85278,-52.6951 152.12438,-112.1354 11.10407,-7.7404 22.50779,-15.6733 32.96118,-22.9478 0,0 -1e-5,0 -1e-5,0 -80.10451,-25.8508 -140.53016,-47.0918 -139.52006,-49.9758 z"
     id="path4833"
     inkscape:path-effect="#path-effect4835"
     inkscape:original-d="m 669.32893,1697.987 141.75925,49.65 -187.32474,135.409"
     inkscape:connector-curvature="0" />
  <path
     style="fill:#ffffff;fill-rule:evenodd;stroke:none;stroke-width:1px;stroke-linecap:butt;stroke-linejoin:miter;stroke-opacity:1"
     d="m 446.56445,2086.1592 c 2.22601,2.7466 -71.77211,62.3012 -164.83352,134.9426 0,0 -2e-5,0 -2e-5,0 3.39848,0.8805 6.82312,1.768 10.25895,2.6589 119.16818,30.8997 216.29902,57.4992 215.32853,60.9982 -0.96651,3.4847 -98.7504,-23.947 -219.73123,-59.6712 -3.46345,-1.0227 -6.91341,-2.0419 -10.33589,-3.0533 0,0 1e-5,0 1e-5,0 92.84342,-78.0504 167.09712,-138.6095 169.31317,-135.8752 z"
     id="path4837"
     inkscape:path-effect="#path-effect4839"
     inkscape:original-d="m 446.56445,2086.1592 -167.07336,135.4089 227.8273,63.1908"
     inkscape:connector-curvature="0" />
  <path
     style="fill:#ffffff;fill-rule:evenodd;stroke:none;stroke-width:1px;stroke-linecap:butt;stroke-linejoin:miter;stroke-opacity:1"
     d="m 618.70064,2095.1865 c 1.64815,-3.0812 69.5727,33.4063 154.4734,81.1049 0,0 10e-6,0 10e-6,0 -1.60317,1.1431 -3.21422,2.2916 -4.83087,3.4438 -81.44556,58.0454 -147.6335,103.4493 -149.64254,100.51 -2.02006,-2.9555 63.5666,-47.5722 144.448,-100.501 1.62155,-1.0612 3.23851,-2.119 4.84839,-3.172 0,0 -2e-5,0 -2e-5,0 -83.69827,-42.5103 -150.95411,-78.2866 -149.29637,-81.3857 z"
     id="path4841"
     inkscape:path-effect="#path-effect4843"
     inkscape:original-d="m 618.70064,2095.1865 151.8849,81.2453 -151.8849,103.8134"
     inkscape:connector-curvature="0" />
  <path
     style="fill:#ffffff;fill-rule:evenodd;stroke:none;stroke-width:1px;stroke-linecap:butt;stroke-linejoin:miter;stroke-opacity:1"
     d="m 507.31839,2185.4589 c -0.13653,-2.7566 20.16657,-6.0049 45.31943,-7.2507 13.24657,-0.6561 25.20951,-0.6265 33.58683,-0.049 l 0,0 c 4.83132,0.3331 8.47006,0.8485 10.47466,1.5198 l 0,0 c 0.68421,0.2292 1.17805,0.4765 1.46394,0.7409 l 0,0 c 0.10285,0.095 0.17879,0.1924 0.22701,0.2919 l 0,0 0,0 c 0.0238,0.1766 0.0391,0.2119 0.0474,0.2246 0.006,0.01 0.009,0.01 0.0111,0.01 8.3e-4,0 6.4e-4,0 6.4e-4,0 0,0 1.9e-4,0 -6.3e-4,10e-5 -0.002,3e-4 -0.005,6e-4 -0.0101,0.01 -0.007,0.013 -0.0187,0.05 -0.025,0.2281 l 0,10e-5 0,0 c -0.0381,0.1037 -0.10409,0.2081 -0.19704,0.3129 l 0,0 c -0.25837,0.2914 -0.72535,0.5863 -1.38357,0.8819 l -10e-6,0 c -1.92845,0.8661 -5.49845,1.7386 -10.27321,2.5474 l 0,0 c -8.27924,1.4026 -20.18072,2.6141 -33.42729,3.2702 -25.15286,1.2457 -45.67757,0.019 -45.8141,-2.7371 z"
     id="path4845"
     inkscape:path-effect="#path-effect4847"
     inkscape:original-d="m 507.31839,2185.4589 c 91.13094,-4.5135 91.13094,-4.5135 91.13094,-4.5135"
     inkscape:connector-curvature="0" />
  <path
     style="fill:#ffffff;fill-rule:evenodd;stroke:none;stroke-width:1px;stroke-linecap:butt;stroke-linejoin:miter;stroke-opacity:1"
     d="m 512.38122,1770.2052 c -0.20449,-2.7524 26.84762,-7.0084 60.38417,-9.4999 17.72727,-1.317 33.73545,-1.8787 44.91891,-1.7091 l 0,0 c 6.42632,0.097 11.25954,0.4364 13.91039,1.0123 l 0,0 c 0.90293,0.1962 1.55267,0.4198 1.9259,0.6708 l 0,0 c 0.14312,0.1992 0.24113,0.3063 0.30168,0.3793 l 0,0 0,0 c 0.0248,0.069 0.0428,0.096 0.0531,0.1081 m 0.0123,-9e-4 c 0,0 0,0 0,0 0.002,0.012 0.001,0.012 0.001,0.012 0,0 5.1e-4,-2e-4 3.6e-4,0.012 0,0 0,0 0,0 m -0.0123,9e-4 c -0.008,0.013 -0.0222,0.043 -0.0366,0.1148 l 0,0 0,0 c -0.0491,0.081 -0.1302,0.2015 -0.2423,0.4197 l 0,0 c -0.33206,0.3034 -0.94161,0.6206 -1.80565,0.948 l 0,0 c -2.53665,0.9613 -7.26672,2.0107 -13.60809,3.0567 l 0,0 c -11.03561,1.8204 -26.95105,3.6304 -44.67832,4.9474 -33.53655,2.4915 -60.92057,2.2798 -61.12506,-0.4726"
     id="path4849"
     inkscape:path-effect="#path-effect4851"
     inkscape:original-d="m 512.38122,1770.2052 c 121.50791,-9.0272 121.50791,-9.0272 121.50791,-9.0272"
     inkscape:connector-curvature="0" />
  <path
     style="fill:#ffffff;fill-rule:evenodd;stroke:none;stroke-width:1px;stroke-linecap:butt;stroke-linejoin:miter;stroke-opacity:1"
     d="m 593.38649,1436.1966 c 0.12937,-2.757 21.78235,-3.9834 48.33256,-2.7376 13.99262,0.6566 26.56669,1.8695 35.31197,3.2735 l 0,0 c 5.03984,0.8091 8.80808,1.6817 10.84343,2.5479 l 0,0 c 0.69433,0.2955 1.187,0.5902 1.45969,0.8814 l 0,0 c 0.098,0.1047 0.16761,0.2089 0.20794,0.3126 l 0,0 0,0 0,0 c 0.007,0.1774 0.0198,0.2133 0.0271,0.2263 0.005,0.01 0.008,0.01 0.0105,0.01 0,0 0,0 0,0 8e-4,10e-5 6.2e-4,10e-5 6.2e-4,10e-5 0,0 1.8e-4,0 -6.2e-4,0 0,0 0,0 0,0 -0.002,10e-5 -0.005,0 -0.0113,0.01 -0.008,0.012 -0.0242,0.047 -0.0482,0.2227 l 0,0 0,0 0,0 c -0.0498,0.099 -0.1289,0.1967 -0.23629,0.2917 l 0,0 c -0.29876,0.2644 -0.81686,0.5117 -1.53581,0.7409 l 0,0 c -2.10752,0.6718 -5.94092,1.1877 -11.03437,1.5213 l 0,0 c -8.83833,0.579 -21.47072,0.6091 -35.46335,-0.047 -26.5502,-1.2458 -47.99321,-4.4944 -47.86384,-7.2514 z"
     id="path4853"
     inkscape:path-effect="#path-effect4855"
     inkscape:original-d="m 593.38649,1436.1966 c 96.19377,4.5137 96.19377,4.5137 96.19377,4.5137"
     inkscape:connector-curvature="0" />
  <path
     style="fill:#ffffff;fill-rule:evenodd;stroke:none;stroke-width:1px;stroke-linecap:butt;stroke-linejoin:miter;stroke-opacity:1"
     d="m 628.82629,1097.6746 c -0.14454,-2.7562 19.0174,-6.0042 42.77219,-7.2499 23.7548,-1.2458 43.15136,-0.02 43.2959,2.7363 0.14454,2.7562 -19.0174,6.0042 -42.77219,7.2499 -23.7548,1.2458 -43.15136,0.02 -43.2959,-2.7363 z"
     id="path4857"
     inkscape:path-effect="#path-effect4859"
     inkscape:original-d="m 628.82629,1097.6746 86.06809,-4.5136"
     inkscape:connector-curvature="0" />
  <path
     style="fill:#ffffff;fill-rule:evenodd;stroke:none;stroke-width:1px;stroke-linecap:butt;stroke-linejoin:miter;stroke-opacity:1"
     d="m 1550.2612,1142.8108 c -3.4945,1.7421 -20.6152,-35.1665 -40.5026,-81.2453 24.8275,43.616 43.9971,79.5032 40.5026,81.2453 -3.4945,1.7421 -20.6152,-35.1665 -40.5026,-81.2453 24.8275,43.616 43.9971,79.5032 40.5026,81.2453 z"
     id="path4861"
     inkscape:path-effect="#path-effect4863"
     inkscape:original-d="m 1550.2612,1142.8108 -40.5026,-81.2453 z"
     inkscape:connector-curvature="0" />
  <path
     style="fill:#ffffff;fill-rule:evenodd;stroke:none;stroke-width:1px;stroke-linecap:butt;stroke-linejoin:miter;stroke-opacity:1"
     d="m 502.25556,619.22993 c 0.10899,-1.06437 31.60435,1.7274 86.46056,5.0724 55.76345,3.40033 132.17008,7.07454 226.51378,7.46386 90.67485,0.37466 185.3033,-2.24691 295.7348,-7.52454 1.2148,-0.0581 2.4303,-0.11637 3.6468,-0.17493 7.1002,-0.34179 306.2894,-16.2156 294.1947,-15.61919 97.5853,-4.81257 171.795,-7.13623 230.4777,-7.99869 55.9528,-0.82235 88.1644,-0.15861 88.1763,0.72661 0.014,1.00413 -32.1696,2.10808 -88.0308,4.43636 -61.5671,2.56611 -129.7039,5.73928 -230.152,11.5943 -75.7798,4.41746 -199.0002,12.2666 -294.1851,16.84903 -1.2177,0.0586 -2.4346,0.11694 -3.6506,0.17496 -110.0958,5.25322 -205.87197,7.46042 -296.28777,6.26039 -94.33798,-1.25258 -171.30573,-6.17189 -226.81939,-11.07845 -54.83819,-4.84686 -86.16068,-9.38423 -86.07898,-10.18211 z"
     id="path4865"
     inkscape:path-effect="#path-effect4867"
     inkscape:original-d="M 502.25556,619.22993 C 939.12186,663.96585 1280.848,607.19469 1727.4602,601.17545"
     inkscape:connector-curvature="0"
     sodipodi:nodetypes="cc" />
  <path
     style="fill:#ffffff;fill-rule:evenodd;stroke:none;stroke-width:1px;stroke-linecap:butt;stroke-linejoin:miter;stroke-opacity:1"
     d="m 1438.879,1192.4609 c 1.1224,1.1016 -25.4902,30.1481 -67.6746,74.2187 0,0 0,0 0,0 -8.8297,24.7054 -18.868,51.9407 -30.294,82.4109 14.6778,6.5068 37.5008,16.6001 53.4932,23.6952 6.7056,0.1351 13.4681,0.2771 20.3034,0.4251 9.1233,0.1975 18.1758,0.4015 27.0661,0.6061 3.0038,-4.5372 5.9447,-8.9799 8.8925,-13.4409 -21.2662,-12.7475 -41.6089,-24.977 -60.3959,-36.3001 16.946,-25.4356 30.7256,-46.1434 43.6449,-65.6399 0,0 0,0 0,0 23.8148,45.261 36.7322,73.2646 35.3414,73.9471 -1.3959,0.685 -15.5526,-26.5077 -35.5384,-70.4887 0,0 0,0 0,0 -11.3836,18.4164 -23.2442,37.7188 -37.3601,60.7415 19.0916,11.1899 39.6805,23.2881 61.1119,35.9177 -3.8027,7.5871 -7.4517,14.871 -11.3591,22.6685 -10.0978,0.2047 -20.3959,0.4085 -30.7831,0.6061 -7.7799,0.148 -15.479,0.29 -23.1036,0.4251 -19.087,-10.03 -40.4538,-21.2923 -57.8894,-30.4682 11.2045,-33.419 21.2886,-62.9923 30.4607,-89.1075 4e-4,-5e-4 4e-4,-5e-4 4e-4,-5e-4 44.3351,-44.0802 72.9601,-71.319 74.0837,-70.2162 z"
     id="path4881"
     inkscape:path-effect="#path-effect4883"
     inkscape:original-d="m 1438.879,1192.4609 c -70.8796,72.2179 -70.8796,72.2179 -70.8796,72.2179 l -30.3771,85.759 55.6913,27.0817 50.6281,0 10.1258,-18.0547 -60.7539,-36.1089 40.5025,-63.1907 35.4399,72.2179"
     inkscape:connector-curvature="0" />
  <path
     style="fill:#ffffff;fill-rule:evenodd;stroke:none;stroke-width:1px;stroke-linecap:butt;stroke-linejoin:miter;stroke-opacity:1"
     d="m 1464.193,1196.9744 c 2.7428,0.3076 3.8348,10.6679 2.4375,23.1255 -1.3973,12.4576 -4.7574,22.3184 -7.5002,22.0108 -2.7428,-0.3076 -3.8348,-10.6679 -2.4375,-23.1255 1.3973,-12.4576 4.7574,-22.3184 7.5002,-22.0108 z"
     id="path4885"
     inkscape:path-effect="#path-effect4887"
     inkscape:original-d="m 1464.193,1196.9744 -5.0627,45.1363"
     inkscape:connector-curvature="0" />
  <path
     style="fill:#ffffff;fill-rule:evenodd;stroke:none;stroke-width:1px;stroke-linecap:butt;stroke-linejoin:miter;stroke-opacity:1"
     d="m 1884.4079,1215.029 c 1.1539,0.4314 -7.3743,26.2821 -22.9293,69.5924 0,0 0,0 0,0 -11.9707,8.4126 -25.7562,18.0591 -40.7445,28.5104 -15.2484,9.4481 -31.6522,19.4911 -49.3048,30.2015 -0.3475,11.7962 -0.7465,23.8574 -1.1903,36.3112 28.171,-1.4819 58.1653,-3.0302 89.0371,-4.5836 32.6349,-1.6421 63.911,-3.1723 93.5214,-4.5722 1.1135,-30.1263 2.2563,-57.5938 3.5157,-83.0398 -2.8282,-23.4438 -5.2838,-43.3314 -7.613,-61.6045 -8.7887,0.3551 -16.8064,0.5746 -24.0605,0.6712 -25.8652,-6.4878 -40.4292,-10.601 -40.2318,-11.4866 0.1973,-0.8851 15.1121,1.5709 40.7734,6.5678 7.8718,0.097 16.7171,0.3161 26.5677,0.6712 3.6241,18.8644 7.6806,39.6447 12.6386,64.7771 -1.8275,26.8441 -4.0382,56.1797 -6.6099,88.478 -30.9819,1.52 -63.9631,3.0863 -98.3875,4.6758 -32.5716,1.5039 -64.1916,2.9248 -93.7034,4.2226 -0.4438,-15.5676 -0.8429,-30.5213 -1.1903,-44.9338 18.6174,-11.9246 35.9138,-22.9127 51.9516,-32.9893 14.6204,-9.3469 28.279,-18.0494 40.2607,-25.653 0,0 0,0 0,0 16.0531,-41.2314 26.5464,-66.2474 27.6991,-65.8164 z"
     id="path4889"
     inkscape:path-effect="#path-effect4891"
     inkscape:original-d="m 1884.4079,1215.029 -25.3142,67.7044 -40.5026,27.0817 -50.6282,31.5954 0,40.6225 187.3247,-9.0271 5.0628,-85.7589 -10.1258,-63.1908 -25.3141,0 z"
     inkscape:connector-curvature="0" />
  <path
     style="fill:#ffffff;fill-rule:evenodd;stroke:none;stroke-width:1px;stroke-linecap:butt;stroke-linejoin:miter;stroke-opacity:1"
     d="m 1459.1303,1264.6788 c -0.031,-2.7598 90.6702,-6.0107 202.4575,-7.2565 111.7873,-1.2457 202.5381,-0.017 202.5689,2.7429 0.031,2.7598 -90.6702,6.0107 -202.4575,7.2565 -111.7873,1.2457 -202.5381,0.017 -202.5689,-2.7429 z"
     id="path4893"
     inkscape:path-effect="#path-effect4895"
     inkscape:original-d="m 1459.1303,1264.6788 405.0264,-4.5136"
     inkscape:connector-curvature="0" />
  <path
     style="fill:#ffffff;fill-rule:evenodd;stroke:none;stroke-width:1px;stroke-linecap:butt;stroke-linejoin:miter;stroke-opacity:1"
     d="m 1464.193,1282.7334 c 2.6384,0.623 -5.2534,36.5891 -17.922,83.9155 0,0 0,0 0,0 10.3839,-0.2113 21.5768,-0.4278 32.8678,-0.6095 6.1353,-0.099 12.1373,-0.1848 18.0373,-0.2553 0,0 0,0 0,0 4.4999,-56.9027 9.6903,-101.3874 12.5825,-101.1053 2.8762,0.2805 -0.6777,45.7777 -7.6689,106.5215 0,0 0,0 0,0 -6.9814,-0.071 -14.1414,-0.1565 -21.4653,-0.2553 -13.5125,-0.1821 -26.8295,-0.3978 -39.012,-0.6095 0,0 0,0 0,0 10.7409,-51.8944 19.9618,-88.2205 22.5806,-87.6021 z"
     id="path4897"
     inkscape:path-effect="#path-effect4899"
     inkscape:original-d="m 1464.193,1282.7334 -20.2513,85.7588 55.6912,0 10.1257,-103.8134"
     inkscape:connector-curvature="0" />
  <path
     style="fill:#ffffff;fill-rule:evenodd;stroke:none;stroke-width:1px;stroke-linecap:butt;stroke-linejoin:miter;stroke-opacity:1"
     d="m 1747.7115,1273.706 c 2.5843,0 3.5021,37.6772 2.5663,87.89 0,0 0,0 0,0 11.0576,0.7454 22.6755,1.5684 34.714,2.4644 7.2323,0.5383 14.3161,1.0806 21.2224,1.6233 0,0 0,0 0,0 7.2885,-57.1591 14.6044,-101.4197 17.4398,-101.0049 2.8199,0.4126 -2.9385,45.7299 -12.9376,106.6219 0,0 0,0 0,0 -8.0627,-0.5693 -16.403,-1.1729 -24.9257,-1.8051 -14.1903,-1.0526 -27.8785,-2.1096 -40.6455,-3.1342 0,0 0,0 0,0 -0.9487,-54.3131 -0.01,-92.6554 2.5663,-92.6554 z"
     id="path4901"
     inkscape:path-effect="#path-effect4903"
     inkscape:original-d="m 1747.7115,1273.706 0,90.2727 60.7538,4.5135 15.1887,-103.8134"
     inkscape:connector-curvature="0" />
  <path
     style="fill:none;fill-rule:evenodd;stroke:#000000;stroke-width:1.14728355px;stroke-linecap:butt;stroke-linejoin:miter;stroke-opacity:1"
     d="m 1428.7532,1196.9744 c 16.6734,-5.766 33.2972,-4.5135 50.6283,-4.5135 1.6876,0 5.063,-1.5047 5.063,0 0,1.5044 -6.7505,0 -5.063,0 3.3754,0 6.7505,0 10.1257,0 1.6876,0 3.8696,1.0638 5.0629,0 1.1934,-1.064 -1.1933,-3.4498 0,-4.5138 2.3867,-2.1278 7.7389,2.1278 10.1255,0 1.1936,-1.0638 -1.6875,-4.5136 0,-4.5136 1.6877,0 0,6.0182 0,4.5136 0,-3.0092 0,-6.0182 0,-9.0272 0,-1.5047 1.1936,-3.4498 0,-4.5136 -1.1932,-1.064 -3.8694,1.0638 -5.0627,0 -1.1932,-1.064 0.7548,-3.1679 0,-4.5136 -1.0673,-1.9031 -3.9954,-2.6106 -5.0628,-4.5137 -0.7547,-1.3457 -1.6876,-4.5136 0,-4.5136 1.6876,0 1.6876,4.5136 0,4.5136 -2.3866,0 -3.9955,-2.6106 -5.0629,-4.5136 -1.3731,-2.4486 1.3853,-16.8196 0,-18.0546 -1.1934,-1.0639 -3.8693,1.0638 -5.0627,0 -2.3866,-2.1277 1.5094,-6.3359 0,-9.0273 -10.5352,-18.7846 0.3493,4.8254 -10.1257,-4.5136 -3.3811,-3.0143 3.381,-6.0129 0,-9.0272 -2.3867,-2.1278 -7.7391,2.1277 -10.1258,0 -1.1932,-1.0638 1.1934,-3.4499 0,-4.5136 -2.3866,-2.1277 -7.7388,2.1278 -10.1255,0 -1.1934,-1.0639 1.1933,-3.4498 0,-4.5136 -2.3867,-2.1278 -10.1258,3.009 -10.1258,0 0,-1.5046 6.7506,0 5.0629,0 -6.7505,0 -13.5008,0 -20.2514,0 -1.6876,0 -5.0627,1.5045 -5.0627,0 0,-1.5046 6.7504,0 5.0627,0 -3.3751,0 -7.1067,-1.3458 -10.1256,0 -1.5095,0.6727 0,3.009 0,4.5136 0,6.0182 0,12.0364 0,18.0544 0,1.0948 0.1628,13.3958 0,13.5411 -1.1933,1.0637 -3.8694,-1.064 -5.0628,0 -2.3867,2.1277 2.3866,6.8993 0,9.0271 -1.1934,1.0639 -3.8695,-1.0639 -5.0628,0 -0.1628,0.1451 0,12.4463 0,13.541 0,1.5043 1.6876,4.5136 0,4.5136 -1.6876,0 0,-6.0182 0,-4.5136 0,9.0272 0,18.0544 0,27.0817 0,18.0047 -4.7354,-29.7017 20.2512,0 4.1751,4.9627 -3.3751,12.0362 -5.0627,18.0546"
     id="path4909"
     inkscape:connector-curvature="0" />
  <path
     style="fill:none;fill-rule:evenodd;stroke:#000000;stroke-width:1.14728355px;stroke-linecap:butt;stroke-linejoin:miter;stroke-opacity:1"
     d="m 1884.4079,1215.029 c 10.1257,0 20.2513,0 30.377,0 1.6876,0 3.8695,-1.0639 5.0628,0 1.1934,1.0638 -1.1933,3.4496 0,4.5136 1.1934,1.0639 5.0628,-1.5047 5.0628,0 0,1.5045 -6.7503,0 -5.0628,0 5.0628,0 10.1256,0 15.1885,0 1.6876,0 3.8697,1.0639 5.0629,0 1.1933,-1.064 -1.1932,-3.4498 0,-4.5136 1.1933,-1.0639 3.8694,1.0638 5.0627,0 1.1934,-1.0639 -1.1933,-3.4498 0,-4.5137 1.1934,-1.0639 3.8696,1.0639 5.0628,0 1.1933,-1.0639 -1.1932,-3.4498 0,-4.5136 3.3813,-3.0144 6.7447,3.0143 10.1258,0 0.1628,-0.1452 0,-12.4463 0,-13.5408 0,-18.7819 0,-11.2297 0,-27.0819 0,-10.5853 1.1931,2.1278 -5.0628,-9.0273 -0.755,-1.3456 -1.6876,-4.5135 0,-4.5135 1.6876,0 0,6.018 0,4.5135 0,-4.5135 0,-9.0271 0,-13.5409 0,-1.5045 1.1933,-3.4497 0,-4.5134 -1.1935,-1.0641 -3.8697,1.0637 -5.063,0 -2.5312,-2.2569 2.5315,-11.2842 0,-13.5409 -1.1932,-1.064 -3.8694,1.0638 -5.0628,0 -1.1933,-1.064 1.1934,-3.45 0,-4.5138 -1.2181,-1.086 -19.0329,1.0861 -20.2513,0 -1.1932,-1.0638 1.1933,-3.4499 0,-4.5136 -2.3866,-2.1277 -10.1256,3.0091 -10.1256,0 0,-1.5046 6.7505,0 5.0628,0 -3.3752,0 -6.7505,0 -10.1257,0 -1.6875,0 -3.8694,-1.0639 -5.0628,0 -1.1934,1.0637 1.1934,3.4498 0,4.5136 -0.1629,0.1453 -13.9606,0 -15.1883,0 -6.7506,0 -13.5009,0 -20.2516,0 -1.6876,0 -5.0626,1.5046 -5.0626,0 0,-1.5045 6.7502,0 5.0626,0 -3.375,0 -6.7501,0 -10.1256,0 -1.6875,0 -3.8694,-1.0638 -5.0627,0 -0.1629,0.1453 0,12.4462 0,13.5408 0,1.5047 -1.1934,3.4498 0,4.5139 1.1933,1.0637 3.8694,-1.0641 5.0627,0 2.5313,2.2567 -2.5313,11.2839 0,13.5408 1.1933,1.0639 3.8697,-1.064 5.063,0 1.1934,1.0639 -1.1933,3.4496 0,4.5135 10.475,9.3389 -0.4095,-14.2711 10.1255,4.5137 0.7547,1.3458 0,3.009 0,4.5136 0,13.7625 -5.1312,0.061 -10.1255,4.5137 -1.1933,1.0637 1.1934,3.4496 0,4.5136 -2.3867,2.1277 -7.7392,-2.1278 -10.1257,0 -0.1629,0.1451 0,12.4461 0,13.5408 0,7.5227 0,15.0455 0,22.5682 0,1.5045 -1.1934,3.4498 0,4.5137 1.1933,1.0638 3.3752,0 5.0627,0 1.6877,0 6.7506,0 5.063,0 -3.3753,0 -10.1257,3.0089 -10.1257,0 0,-3.3643 6.3518,-4.5137 10.1257,-4.5137 6.9582,0 13.5008,3.0091 20.2512,4.5137 z"
     id="path4913"
     inkscape:connector-curvature="0" />
  <path
     style="fill:#ffffff;fill-rule:evenodd;stroke:none;stroke-width:1px;stroke-linecap:butt;stroke-linejoin:miter;stroke-opacity:1"
     d="m 861.71643,628.25722 c -1.69198,-1.34958 64.02453,-86.05673 160.21657,-206.83917 21.1569,-0.22843 43.426,-0.45964 66.2151,-0.68161 28.0098,-19.46627 57.0325,-39.55823 87.2527,-60.43089 3.411,-2.35591 6.8115,-4.70401 10.1996,-7.04302 34.0163,20.29561 66.4413,39.6959 97.5772,58.41804 32.0303,0.36378 63.4244,0.74612 91.7024,1.10066 70.4366,109.34976 116.2665,182.82334 114.6272,183.88061 -1.6391,1.05715 -49.4788,-70.70075 -118.2628,-177.20969 -27.9841,0.3542 -59.0334,0.73722 -90.5592,1.10066 -30.3247,-18.76812 -61.7956,-38.34353 -94.8108,-58.9363 -3.2976,2.36663 -6.6073,4.74139 -9.9271,7.12288 -29.4145,21.10033 -57.666,41.31979 -85.008,60.81207 -22.4793,-0.22193 -44.4847,-0.45322 -65.4182,-0.68163 -94.39875,118.16241 -162.11296,200.73676 -163.80467,199.38739 z"
     id="path4915"
     inkscape:path-effect="#path-effect4917"
     inkscape:original-d="m 861.71643,628.25722 162.01057,-203.11327 65.8167,0 96.1937,-67.70443 96.194,58.67717 91.1308,0 116.445,180.54515"
     inkscape:connector-curvature="0" />
  <path
     style="fill:#ffffff;fill-rule:evenodd;stroke:none;stroke-width:1px;stroke-linecap:butt;stroke-linejoin:miter;stroke-opacity:1"
     d="m 1049.0411,506.38925 c -0.046,-2.75962 61.1574,-6.01037 136.6138,-7.25613 75.4563,-1.24576 136.7332,-0.0171 136.7788,2.74251 0.046,2.75962 -61.1574,6.01037 -136.6138,7.25613 -75.4563,1.24576 -136.7332,0.0171 -136.7788,-2.74251 z"
     id="path4919"
     inkscape:path-effect="#path-effect4921"
     inkscape:original-d="m 1049.0411,506.38925 273.3926,-4.51362"
     inkscape:connector-curvature="0" />
  <path
     style="fill:#ffffff;fill-rule:evenodd;stroke:none;stroke-width:1px;stroke-linecap:butt;stroke-linejoin:miter;stroke-opacity:1"
     d="m 993.35,569.58005 c -0.0656,-2.75922 84.9367,-7.02069 189.7373,-9.51222 104.8005,-2.49152 189.9093,-2.27426 189.9749,0.48496 0.066,2.75922 -84.9367,7.02069 -189.7373,9.51222 -104.8005,2.49152 -189.9093,2.27426 -189.9749,-0.48496 z"
     id="path4923"
     inkscape:path-effect="#path-effect4925"
     inkscape:original-d="m 993.35,569.58005 379.7122,-9.02726"
     inkscape:connector-curvature="0" />
  <path
     style="fill:#ffffff;fill-rule:evenodd;stroke:none;stroke-width:1px;stroke-linecap:butt;stroke-linejoin:miter;stroke-opacity:1"
     d="m 3069.11,1345.924 c -0.2262,-2.1992 54.3232,-9.2889 133.0282,-17.4952 14.1388,14.0633 29.1006,29.0789 44.9105,45.0412 4.4798,-2.0385 9.0032,-4.0939 13.561,-6.1618 35.6534,-16.1759 68.2829,-30.7841 97.0426,-43.3946 58.7312,25.1532 96.9752,42.8201 96.2326,44.5786 -0.742,1.757 -39.7954,-13.2154 -96.1546,-36.6668 -29.1008,13.1815 -62.247,27.8936 -98.4107,43.731 -4.6227,2.0245 -9.2093,4.03 -13.7503,6.0126 -16.3348,-15.8797 -31.7548,-30.9598 -46.2205,-45.2316 -75.5981,7.6672 -130.0126,11.7851 -130.2388,9.5866 z"
     id="path4931"
     inkscape:path-effect="#path-effect4933"
     inkscape:original-d="m 3069.11,1345.924 131.6335,-13.5409 45.5655,45.1364 111.3823,-49.65 96.1936,40.6227"
     inkscape:connector-curvature="0" />
  <path
     style="fill:#ffffff;fill-rule:evenodd;stroke:none;stroke-width:1px;stroke-linecap:butt;stroke-linejoin:miter;stroke-opacity:1"
     d="m 3038.7328,1251.1379 c 2.2124,0.064 1.0443,71.3969 -2.9235,173.8717 43.2209,-2.036 95.0346,-4.4408 146.8856,-6.7246 177.1461,-7.8026 321.6964,-12.3495 321.8183,-9.1701 0.1217,3.1749 -145.1021,9.7484 -324.9997,15.6322 -52.4654,1.7159 -104.6419,3.2991 -147.9826,4.5821 2.0375,-106.5033 4.9945,-178.2548 7.2019,-178.1913 z"
     id="path4935"
     inkscape:path-effect="#path-effect4937"
     inkscape:original-d="m 3038.7328,1251.1379 -5.0627,176.0315 470.8431,-18.0545"
     inkscape:connector-curvature="0" />
  <path
     style="fill:#ffffff;fill-rule:evenodd;stroke:none;stroke-width:1px;stroke-linecap:butt;stroke-linejoin:miter;stroke-opacity:1"
     d="m 3028.6073,1052.5383 c 2.2145,-0.067 5.2223,67.6979 7.3005,164.6978 39.7138,-0.3678 86.3913,-0.7516 133.6523,-1.0162 164.9355,-0.9237 299.5132,0.1765 299.5132,3.3227 0,3.1418 -135.3352,4.2508 -302.971,3.3227 -47.8344,-0.2648 -94.8596,-0.6483 -134.6699,-1.0162 -3.9269,-100.9386 -5.035,-169.2438 -2.8251,-169.3108 z"
     id="path4939"
     inkscape:path-effect="#path-effect4941"
     inkscape:original-d="m 3028.6073,1052.5383 5.0628,167.0043 435.4032,0"
     inkscape:connector-curvature="0" />
  <path
     style="fill:#ffffff;fill-rule:evenodd;stroke:none;stroke-width:1px;stroke-linecap:butt;stroke-linejoin:miter;stroke-opacity:1"
     d="m 3048.8588,1201.4881 c -0.174,-2.2123 71.8723,-9.7612 171.4973,-18.2434 0,0 0,0 0,0 23.8491,-4.749 49.2532,-9.7182 75.7078,-14.8034 13.4497,-2.5853 26.6589,-5.1022 39.5352,-7.5354 20.9219,-13.8279 40.9083,-26.9447 59.3484,-38.9668 0,0 0,0 0,0 5.4749,-11.0406 10.711,-21.552 15.6431,-31.4066 15.5614,-8.5582 29.4982,-16.1223 41.6377,-22.5977 28.8632,-18.9785 46.5457,-29.9131 47.2222,-28.9374 0.6767,0.976 -15.776,13.71 -43.909,34.2536 -11.4824,6.6867 -24.6612,14.2316 -39.3673,22.5385 -4.6188,10.0133 -9.5498,20.6518 -14.7339,31.7844 0,0 0,0 0,0 -19.0871,13.0701 -40.0503,27.3337 -62.1596,42.2782 -13.1071,2.6026 -26.5763,5.2562 -40.3046,7.9382 -27.0037,5.2755 -52.9813,10.2645 -77.3428,14.8592 0,0 -10e-5,0 -10e-5,0 -100.1873,7.2354 -172.6003,11.0514 -172.7744,8.8386 z"
     id="path4943"
     inkscape:path-effect="#path-effect4945"
     inkscape:original-d="m 3048.8588,1201.4881 172.1359,-13.541 116.4452,-22.5681 60.754,-40.6225 15.1885,-31.5955 40.5025,-22.5681 45.5656,-31.5955"
     inkscape:connector-curvature="0"
     sodipodi:nodetypes="ccccccc" />
  <g
     inkscape:groupmode="layer"
     id="layer1"
     inkscape:label="Layer 1" />
</svg>
