<?xml version="1.0" encoding="UTF-8" standalone="no"?>
<!-- Created with Inkscape (http://www.inkscape.org/) -->

<svg
   xmlns:dc="http://purl.org/dc/elements/1.1/"
   xmlns:cc="http://creativecommons.org/ns#"
   xmlns:rdf="http://www.w3.org/1999/02/22-rdf-syntax-ns#"
   xmlns:svg="http://www.w3.org/2000/svg"
   xmlns="http://www.w3.org/2000/svg"
   xmlns:sodipodi="http://sodipodi.sourceforge.net/DTD/sodipodi-0.dtd"
   xmlns:inkscape="http://www.inkscape.org/namespaces/inkscape"
   id="svg4208"
   version="1.1"
   inkscape:version="0.91 r"
   width="4080"
   height="3060"
   viewBox="0 0 4080 3060"
   sodipodi:docname="mockwhite1.svg">
  <metadata
     id="metadata4214">
    <rdf:RDF>
      <cc:Work
         rdf:about="">
        <dc:format>image/svg+xml</dc:format>
        <dc:type
           rdf:resource="http://purl.org/dc/dcmitype/StillImage" />
        <dc:title></dc:title>
      </cc:Work>
    </rdf:RDF>
  </metadata>
  <defs
     id="defs4212">
    <inkscape:path-effect
       effect="skeletal"
       id="path-effect4945"
       is_visible="true"
       pattern="M 0,5 C 0,2.24 2.24,0 5,0 7.76,0 10,2.24 10,5 10,7.76 7.76,10 5,10 2.24,10 0,7.76 0,5 Z"
       copytype="single_stretched"
       prop_scale="1"
       scale_y_rel="false"
       spacing="0"
       normal_offset="0"
       tang_offset="0"
       prop_units="false"
       vertical_pattern="false"
       fuse_tolerance="0" />
    <inkscape:path-effect
       effect="skeletal"
       id="path-effect4941"
       is_visible="true"
       pattern="M 0,5 C 0,2.24 2.24,0 5,0 7.76,0 10,2.24 10,5 10,7.76 7.76,10 5,10 2.24,10 0,7.76 0,5 Z"
       copytype="single_stretched"
       prop_scale="1"
       scale_y_rel="false"
       spacing="0"
       normal_offset="0"
       tang_offset="0"
       prop_units="false"
       vertical_pattern="false"
       fuse_tolerance="0" />
    <inkscape:path-effect
       effect="skeletal"
       id="path-effect4937"
       is_visible="true"
       pattern="M 0,5 C 0,2.24 2.24,0 5,0 7.76,0 10,2.24 10,5 10,7.76 7.76,10 5,10 2.24,10 0,7.76 0,5 Z"
       copytype="single_stretched"
       prop_scale="1"
       scale_y_rel="false"
       spacing="0"
       normal_offset="0"
       tang_offset="0"
       prop_units="false"
       vertical_pattern="false"
       fuse_tolerance="0" />
    <inkscape:path-effect
       effect="skeletal"
       id="path-effect4933"
       is_visible="true"
       pattern="M 0,5 C 0,2.24 2.24,0 5,0 7.76,0 10,2.24 10,5 10,7.76 7.76,10 5,10 2.24,10 0,7.76 0,5 Z"
       copytype="single_stretched"
       prop_scale="1"
       scale_y_rel="false"
       spacing="0"
       normal_offset="0"
       tang_offset="0"
       prop_units="false"
       vertical_pattern="false"
       fuse_tolerance="0" />
    <inkscape:path-effect
       effect="skeletal"
       id="path-effect4929"
       is_visible="true"
       pattern="M 0,5 C 0,2.24 2.24,0 5,0 7.76,0 10,2.24 10,5 10,7.76 7.76,10 5,10 2.24,10 0,7.76 0,5 Z"
       copytype="single_stretched"
       prop_scale="1"
       scale_y_rel="false"
       spacing="0"
       normal_offset="0"
       tang_offset="0"
       prop_units="false"
       vertical_pattern="false"
       fuse_tolerance="0" />
    <inkscape:path-effect
       effect="skeletal"
       id="path-effect4925"
       is_visible="true"
       pattern="M 0,5 C 0,2.24 2.24,0 5,0 7.76,0 10,2.24 10,5 10,7.76 7.76,10 5,10 2.24,10 0,7.76 0,5 Z"
       copytype="single_stretched"
       prop_scale="1"
       scale_y_rel="false"
       spacing="0"
       normal_offset="0"
       tang_offset="0"
       prop_units="false"
       vertical_pattern="false"
       fuse_tolerance="0" />
    <inkscape:path-effect
       effect="skeletal"
       id="path-effect4921"
       is_visible="true"
       pattern="M 0,5 C 0,2.24 2.24,0 5,0 7.76,0 10,2.24 10,5 10,7.76 7.76,10 5,10 2.24,10 0,7.76 0,5 Z"
       copytype="single_stretched"
       prop_scale="1"
       scale_y_rel="false"
       spacing="0"
       normal_offset="0"
       tang_offset="0"
       prop_units="false"
       vertical_pattern="false"
       fuse_tolerance="0" />
    <inkscape:path-effect
       effect="skeletal"
       id="path-effect4917"
       is_visible="true"
       pattern="M 0,5 C 0,2.24 2.24,0 5,0 7.76,0 10,2.24 10,5 10,7.76 7.76,10 5,10 2.24,10 0,7.76 0,5 Z"
       copytype="single_stretched"
       prop_scale="1"
       scale_y_rel="false"
       spacing="0"
       normal_offset="0"
       tang_offset="0"
       prop_units="false"
       vertical_pattern="false"
       fuse_tolerance="0" />
    <inkscape:path-effect
       effect="skeletal"
       id="path-effect4903"
       is_visible="true"
       pattern="M 0,5 C 0,2.24 2.24,0 5,0 7.76,0 10,2.24 10,5 10,7.76 7.76,10 5,10 2.24,10 0,7.76 0,5 Z"
       copytype="single_stretched"
       prop_scale="1"
       scale_y_rel="false"
       spacing="0"
       normal_offset="0"
       tang_offset="0"
       prop_units="false"
       vertical_pattern="false"
       fuse_tolerance="0" />
    <inkscape:path-effect
       effect="skeletal"
       id="path-effect4899"
       is_visible="true"
       pattern="M 0,5 C 0,2.24 2.24,0 5,0 7.76,0 10,2.24 10,5 10,7.76 7.76,10 5,10 2.24,10 0,7.76 0,5 Z"
       copytype="single_stretched"
       prop_scale="1"
       scale_y_rel="false"
       spacing="0"
       normal_offset="0"
       tang_offset="0"
       prop_units="false"
       vertical_pattern="false"
       fuse_tolerance="0" />
    <inkscape:path-effect
       effect="skeletal"
       id="path-effect4895"
       is_visible="true"
       pattern="M 0,5 C 0,2.24 2.24,0 5,0 7.76,0 10,2.24 10,5 10,7.76 7.76,10 5,10 2.24,10 0,7.76 0,5 Z"
       copytype="single_stretched"
       prop_scale="1"
       scale_y_rel="false"
       spacing="0"
       normal_offset="0"
       tang_offset="0"
       prop_units="false"
       vertical_pattern="false"
       fuse_tolerance="0" />
    <inkscape:path-effect
       effect="skeletal"
       id="path-effect4891"
       is_visible="true"
       pattern="M 0,5 C 0,2.24 2.24,0 5,0 7.76,0 10,2.24 10,5 10,7.76 7.76,10 5,10 2.24,10 0,7.76 0,5 Z"
       copytype="single_stretched"
       prop_scale="1"
       scale_y_rel="false"
       spacing="0"
       normal_offset="0"
       tang_offset="0"
       prop_units="false"
       vertical_pattern="false"
       fuse_tolerance="0" />
    <inkscape:path-effect
       effect="skeletal"
       id="path-effect4887"
       is_visible="true"
       pattern="M 0,5 C 0,2.24 2.24,0 5,0 7.76,0 10,2.24 10,5 10,7.76 7.76,10 5,10 2.24,10 0,7.76 0,5 Z"
       copytype="single_stretched"
       prop_scale="1"
       scale_y_rel="false"
       spacing="0"
       normal_offset="0"
       tang_offset="0"
       prop_units="false"
       vertical_pattern="false"
       fuse_tolerance="0" />
    <inkscape:path-effect
       effect="skeletal"
       id="path-effect4883"
       is_visible="true"
       pattern="M 0,5 C 0,2.24 2.24,0 5,0 7.76,0 10,2.24 10,5 10,7.76 7.76,10 5,10 2.24,10 0,7.76 0,5 Z"
       copytype="single_stretched"
       prop_scale="1"
       scale_y_rel="false"
       spacing="0"
       normal_offset="0"
       tang_offset="0"
       prop_units="false"
       vertical_pattern="false"
       fuse_tolerance="0" />
    <inkscape:path-effect
       effect="skeletal"
       id="path-effect4867"
       is_visible="true"
       pattern="M 0,5 C 0,2.24 2.24,0 5,0 7.76,0 10,2.24 10,5 10,7.76 7.76,10 5,10 2.24,10 0,7.76 0,5 Z"
       copytype="single_stretched"
       prop_scale="1"
       scale_y_rel="false"
       spacing="0"
       normal_offset="0"
       tang_offset="0"
       prop_units="false"
       vertical_pattern="false"
       fuse_tolerance="0" />
    <inkscape:path-effect
       effect="skeletal"
       id="path-effect4863"
       is_visible="true"
       pattern="M 0,5 C 0,2.24 2.24,0 5,0 7.76,0 10,2.24 10,5 10,7.76 7.76,10 5,10 2.24,10 0,7.76 0,5 Z"
       copytype="single_stretched"
       prop_scale="1"
       scale_y_rel="false"
       spacing="0"
       normal_offset="0"
       tang_offset="0"
       prop_units="false"
       vertical_pattern="false"
       fuse_tolerance="0" />
    <inkscape:path-effect
       effect="skeletal"
       id="path-effect4859"
       is_visible="true"
       pattern="M 0,5 C 0,2.24 2.24,0 5,0 7.76,0 10,2.24 10,5 10,7.76 7.76,10 5,10 2.24,10 0,7.76 0,5 Z"
       copytype="single_stretched"
       prop_scale="1"
       scale_y_rel="false"
       spacing="0"
       normal_offset="0"
       tang_offset="0"
       prop_units="false"
       vertical_pattern="false"
       fuse_tolerance="0" />
    <inkscape:path-effect
       effect="skeletal"
       id="path-effect4855"
       is_visible="true"
       pattern="M 0,5 C 0,2.24 2.24,0 5,0 7.76,0 10,2.24 10,5 10,7.76 7.76,10 5,10 2.24,10 0,7.76 0,5 Z"
       copytype="single_stretched"
       prop_scale="1"
       scale_y_rel="false"
       spacing="0"
       normal_offset="0"
       tang_offset="0"
       prop_units="false"
       vertical_pattern="false"
       fuse_tolerance="0" />
    <inkscape:path-effect
       effect="skeletal"
       id="path-effect4851"
       is_visible="true"
       pattern="M 0,5 C 0,2.24 2.24,0 5,0 7.76,0 10,2.24 10,5 10,7.76 7.76,10 5,10 2.24,10 0,7.76 0,5 Z"
       copytype="single_stretched"
       prop_scale="1"
       scale_y_rel="false"
       spacing="0"
       normal_offset="0"
       tang_offset="0"
       prop_units="false"
       vertical_pattern="false"
       fuse_tolerance="0" />
    <inkscape:path-effect
       effect="skeletal"
       id="path-effect4847"
       is_visible="true"
       pattern="M 0,5 C 0,2.24 2.24,0 5,0 7.76,0 10,2.24 10,5 10,7.76 7.76,10 5,10 2.24,10 0,7.76 0,5 Z"
       copytype="single_stretched"
       prop_scale="1"
       scale_y_rel="false"
       spacing="0"
       normal_offset="0"
       tang_offset="0"
       prop_units="false"
       vertical_pattern="false"
       fuse_tolerance="0" />
    <inkscape:path-effect
       effect="skeletal"
       id="path-effect4843"
       is_visible="true"
       pattern="M 0,5 C 0,2.24 2.24,0 5,0 7.76,0 10,2.24 10,5 10,7.76 7.76,10 5,10 2.24,10 0,7.76 0,5 Z"
       copytype="single_stretched"
       prop_scale="1"
       scale_y_rel="false"
       spacing="0"
       normal_offset="0"
       tang_offset="0"
       prop_units="false"
       vertical_pattern="false"
       fuse_tolerance="0" />
    <inkscape:path-effect
       effect="skeletal"
       id="path-effect4839"
       is_visible="true"
       pattern="M 0,5 C 0,2.24 2.24,0 5,0 7.76,0 10,2.24 10,5 10,7.76 7.76,10 5,10 2.24,10 0,7.76 0,5 Z"
       copytype="single_stretched"
       prop_scale="1"
       scale_y_rel="false"
       spacing="0"
       normal_offset="0"
       tang_offset="0"
       prop_units="false"
       vertical_pattern="false"
       fuse_tolerance="0" />
    <inkscape:path-effect
       effect="skeletal"
       id="path-effect4835"
       is_visible="true"
       pattern="M 0,5 C 0,2.24 2.24,0 5,0 7.76,0 10,2.24 10,5 10,7.76 7.76,10 5,10 2.24,10 0,7.76 0,5 Z"
       copytype="single_stretched"
       prop_scale="1"
       scale_y_rel="false"
       spacing="0"
       normal_offset="0"
       tang_offset="0"
       prop_units="false"
       vertical_pattern="false"
       fuse_tolerance="0" />
    <inkscape:path-effect
       effect="skeletal"
       id="path-effect4831"
       is_visible="true"
       pattern="M 0,5 C 0,2.24 2.24,0 5,0 7.76,0 10,2.24 10,5 10,7.76 7.76,10 5,10 2.24,10 0,7.76 0,5 Z"
       copytype="single_stretched"
       prop_scale="1"
       scale_y_rel="false"
       spacing="0"
       normal_offset="0"
       tang_offset="0"
       prop_units="false"
       vertical_pattern="false"
       fuse_tolerance="0" />
    <inkscape:path-effect
       effect="skeletal"
       id="path-effect4827"
       is_visible="true"
       pattern="M 0,5 C 0,2.24 2.24,0 5,0 7.76,0 10,2.24 10,5 10,7.76 7.76,10 5,10 2.24,10 0,7.76 0,5 Z"
       copytype="single_stretched"
       prop_scale="1"
       scale_y_rel="false"
       spacing="0"
       normal_offset="0"
       tang_offset="0"
       prop_units="false"
       vertical_pattern="false"
       fuse_tolerance="0" />
    <inkscape:path-effect
       effect="skeletal"
       id="path-effect4823"
       is_visible="true"
       pattern="M 0,5 C 0,2.24 2.24,0 5,0 7.76,0 10,2.24 10,5 10,7.76 7.76,10 5,10 2.24,10 0,7.76 0,5 Z"
       copytype="single_stretched"
       prop_scale="1"
       scale_y_rel="false"
       spacing="0"
       normal_offset="0"
       tang_offset="0"
       prop_units="false"
       vertical_pattern="false"
       fuse_tolerance="0" />
    <inkscape:path-effect
       effect="skeletal"
       id="path-effect4819"
       is_visible="true"
       pattern="M 0,5 C 0,2.24 2.24,0 5,0 7.76,0 10,2.24 10,5 10,7.76 7.76,10 5,10 2.24,10 0,7.76 0,5 Z"
       copytype="single_stretched"
       prop_scale="1"
       scale_y_rel="false"
       spacing="0"
       normal_offset="0"
       tang_offset="0"
       prop_units="false"
       vertical_pattern="false"
       fuse_tolerance="0" />
    <inkscape:path-effect
       effect="skeletal"
       id="path-effect4815"
       is_visible="true"
       pattern="M 0,5 C 0,2.24 2.24,0 5,0 7.76,0 10,2.24 10,5 10,7.76 7.76,10 5,10 2.24,10 0,7.76 0,5 Z"
       copytype="single_stretched"
       prop_scale="1"
       scale_y_rel="false"
       spacing="0"
       normal_offset="0"
       tang_offset="0"
       prop_units="false"
       vertical_pattern="false"
       fuse_tolerance="0" />
    <inkscape:path-effect
       effect="skeletal"
       id="path-effect4811"
       is_visible="true"
       pattern="M 0,5 C 0,2.24 2.24,0 5,0 7.76,0 10,2.24 10,5 10,7.76 7.76,10 5,10 2.24,10 0,7.76 0,5 Z"
       copytype="single_stretched"
       prop_scale="1"
       scale_y_rel="false"
       spacing="0"
       normal_offset="0"
       tang_offset="0"
       prop_units="false"
       vertical_pattern="false"
       fuse_tolerance="0" />
    <inkscape:path-effect
       effect="skeletal"
       id="path-effect4807"
       is_visible="true"
       pattern="M 0,5 C 0,2.24 2.24,0 5,0 7.76,0 10,2.24 10,5 10,7.76 7.76,10 5,10 2.24,10 0,7.76 0,5 Z"
       copytype="single_stretched"
       prop_scale="1"
       scale_y_rel="false"
       spacing="0"
       normal_offset="0"
       tang_offset="0"
       prop_units="false"
       vertical_pattern="false"
       fuse_tolerance="0" />
    <inkscape:path-effect
       effect="skeletal"
       id="path-effect4803"
       is_visible="true"
       pattern="M 0,5 C 0,2.24 2.24,0 5,0 7.76,0 10,2.24 10,5 10,7.76 7.76,10 5,10 2.24,10 0,7.76 0,5 Z"
       copytype="single_stretched"
       prop_scale="1"
       scale_y_rel="false"
       spacing="0"
       normal_offset="0"
       tang_offset="0"
       prop_units="false"
       vertical_pattern="false"
       fuse_tolerance="0" />
    <inkscape:path-effect
       effect="skeletal"
       id="path-effect4799"
       is_visible="true"
       pattern="M 0,5 C 0,2.24 2.24,0 5,0 7.76,0 10,2.24 10,5 10,7.76 7.76,10 5,10 2.24,10 0,7.76 0,5 Z"
       copytype="single_stretched"
       prop_scale="1"
       scale_y_rel="false"
       spacing="0"
       normal_offset="0"
       tang_offset="0"
       prop_units="false"
       vertical_pattern="false"
       fuse_tolerance="0" />
    <inkscape:path-effect
       fuse_tolerance="0"
       vertical_pattern="false"
       prop_units="false"
       tang_offset="0"
       normal_offset="0"
       spacing="0"
       scale_y_rel="false"
       prop_scale="1"
       copytype="single_stretched"
       pattern="m -45.833333,-207.5 c 0,-2.76 2.24,-5 5,-5 2.76,0 5,2.24 5,5 0,2.76 -2.24,5 -5,5 -2.76,0 -5,-2.24 -5,-5 z"
       is_visible="true"
       id="path-effect4795"
       effect="skeletal" />
    <inkscape:path-effect
       effect="skeletal"
       id="path-effect4791"
       is_visible="true"
       pattern="M 0,5 C 0,2.24 2.24,0 5,0 7.76,0 10,2.24 10,5 10,7.76 7.76,10 5,10 2.24,10 0,7.76 0,5 Z"
       copytype="single_stretched"
       prop_scale="1"
       scale_y_rel="false"
       spacing="0"
       normal_offset="0"
       tang_offset="0"
       prop_units="false"
       vertical_pattern="false"
       fuse_tolerance="0" />
    <inkscape:path-effect
       effect="skeletal"
       id="path-effect4787"
       is_visible="true"
       pattern="m -33.333334,-3.3333337 c 0,-2.76 2.24,-5 5,-5 2.76,0 5,2.24 5,5 0,2.76000033 -2.24,5.0000003 -5,5.0000003 -2.76,0 -5,-2.23999997 -5,-5.0000003 z"
       copytype="single_stretched"
       prop_scale="1"
       scale_y_rel="false"
       spacing="0"
       normal_offset="0"
       tang_offset="0"
       prop_units="false"
       vertical_pattern="false"
       fuse_tolerance="0" />
    <inkscape:path-effect
       effect="skeletal"
       id="path-effect4783"
       is_visible="true"
       pattern="M 0,5 C 0,2.24 2.24,0 5,0 7.76,0 10,2.24 10,5 10,7.76 7.76,10 5,10 2.24,10 0,7.76 0,5 Z"
       copytype="single_stretched"
       prop_scale="1"
       scale_y_rel="false"
       spacing="0"
       normal_offset="0"
       tang_offset="0"
       prop_units="false"
       vertical_pattern="false"
       fuse_tolerance="0" />
    <inkscape:path-effect
       effect="skeletal"
       id="path-effect4779"
       is_visible="true"
       pattern="M 0,5 C 0,2.24 2.24,0 5,0 7.76,0 10,2.24 10,5 10,7.76 7.76,10 5,10 2.24,10 0,7.76 0,5 Z"
       copytype="single_stretched"
       prop_scale="1"
       scale_y_rel="false"
       spacing="0"
       normal_offset="0"
       tang_offset="0"
       prop_units="false"
       vertical_pattern="false"
       fuse_tolerance="0" />
  </defs>
  <sodipodi:namedview
     pagecolor="#ffffff"
     bordercolor="#666666"
     borderopacity="1"
     objecttolerance="10"
     gridtolerance="10"
     guidetolerance="10"
     inkscape:pageopacity="0"
     inkscape:pageshadow="2"
     inkscape:window-width="1680"
     inkscape:window-height="1023"
     id="namedview4210"
     showgrid="false"
     inkscape:zoom="0.24"
     inkscape:cx="2016.1296"
     inkscape:cy="1536.316"
     inkscape:window-x="1680"
     inkscape:window-y="0"
     inkscape:window-maximized="1"
     inkscape:current-layer="svg4208" />
  <path
     style="fill:#ffffff;fill-rule:evenodd;stroke:none;stroke-width:1px;stroke-linecap:butt;stroke-linejoin:miter;stroke-opacity:1"
     d="m 106.97722,2909.9909 c -0.1509,0.01 -4.4381,-64.3587 -8.05381,-185.9793 -3.670441,-123.4613 -6.290319,-298.633 -1.705502,-529.1713 4.149142,-208.6377 13.472172,-434.5958 29.655682,-715.2356 0,0 1e-5,-3e-4 1e-5,-3e-4 14.16374,-245.6186 27.08005,-429.4809 45.1999,-715.15657 14.57094,-220.96948 30.01123,-468.72202 40.06479,-717.006129 519.59341,18.256018 1287.80821,55.229879 1921.22331,60.916409 304.5821,3.10509 621.1092,0.23066 941.5739,-15.161401 277.9842,-12.555639 561.9978,-34.566409 847.4928,-71.514001 23.6471,-3.060316 47.2512,-6.21617 70.8126,-9.469641 C 3974.18,971.18413 3956.4167,1861.4952 3939.9262,2682.6746 1678.103,2819.0743 107.11328,2912.2606 106.97722,2909.9909 c -0.13607,-2.2699 1570.22148,-97.3991 3828.13098,-231.9463 16.467,-818.7099 34.4206,-1705.5861 53.8335,-2660.981451 -23.4432,3.387761 -46.9284,6.677872 -70.456,9.872394 -284.057,38.568508 -566.5697,62.146432 -843.0754,76.167117 -320.7264,15.33979 -637.4343,18.11795 -942.1489,14.87901 C 1502.0994,110.50262 733.88637,71.298697 216.11205,51.722325 207.39913,298.86633 193.16309,544.79334 179.44956,764.92081 160.75307,1053.3575 147.8839,1231.6582 133.08968,1479.9688 c 0,0 -10e-6,3e-4 -10e-6,3e-4 -16.7276,280.7652 -26.56112,506.2032 -31.33451,714.9681 -5.272065,230.5808 -3.363263,405.4239 -0.46182,529.0114 2.85498,121.6082 6.34875,186.0106 5.68388,186.0423 z"
     id="path4777"
     inkscape:path-effect="#path-effect4779"
     inkscape:original-d="M 106.97722,2909.9909 C 61.576437,1956.5214 178.00715,1003.0518 214.12517,49.582013 1495.2232,96.304557 2791.8692,184.07511 3991.0913,14.638108 L 3937.5172,2680.3596 Z"
     inkscape:connector-curvature="0"
     sodipodi:nodetypes="ccccc" />
  <path
     style="fill:#ffffff;fill-rule:evenodd;stroke:none;stroke-width:1px;stroke-linecap:butt;stroke-linejoin:miter;stroke-opacity:1"
     d="m 830.22609,893.22794 c 2.75773,0.11182 -13.00498,444.13006 -35.18463,991.11216 -22.17964,546.9821 -42.41868,990.8188 -45.17641,990.707 -2.75773,-0.1118 13.00498,-444.1301 35.18463,-991.1122 22.17964,-546.982 42.41868,-990.81878 45.17641,-990.70696 z"
     id="path4781"
     inkscape:path-effect="#path-effect4783"
     inkscape:original-d="M 830.22609,893.22794 749.86505,2875.0471"
     inkscape:connector-curvature="0" />
  <path
     style="fill:#ffffff;fill-rule:evenodd;stroke:none;stroke-width:1px;stroke-linecap:butt;stroke-linejoin:miter;stroke-opacity:1"
     d="m 1473.1137,2542.3221 c 0.2143,-1.2869 52.4789,7.8792 144.3337,17.5042 96.1414,10.0742 219.0049,18.7549 380.8914,19.8743 163.6711,1.1292 326.1576,-5.3368 526.5606,-15.8244 1.8001,-0.094 3.5993,-0.1885 5.3973,-0.2829 208.904,-10.9668 358.7281,-20.0368 530.0601,-23.7661 160.5619,-3.4977 279.9008,-0.3215 375.8705,5.6704 90.7557,5.6663 142.4047,12.7017 142.344,13.3158 -0.1194,1.2088 -51.9246,-4.1139 -142.6164,-8.2967 -96.6971,-4.4597 -214.2647,-6.4856 -375.3866,-2.0791 -174.5757,4.7774 -317.3194,13.9816 -529.7471,25.1418 -1.7986,0.095 -3.5983,0.189 -5.3991,0.2832 -199.7313,10.4568 -363.9598,16.5164 -527.1667,14.499 -161.7299,-1.9967 -285.6846,-11.9133 -381.3767,-23.4997 -91.8608,-11.1226 -143.8543,-22.0033 -143.765,-22.5398 z"
     id="path4785"
     inkscape:path-effect="#path-effect4787"
     inkscape:original-d="m 1473.1137,2542.3221 c 691.3316,115.1119 1426.7032,-50.5709 2105.4576,16.4913"
     inkscape:connector-curvature="0"
     sodipodi:nodetypes="cc" />
  <path
     style="fill:#ffffff;fill-rule:evenodd;stroke:none;stroke-width:1px;stroke-linecap:butt;stroke-linejoin:miter;stroke-opacity:1"
     d="m 1489.1861,2355.8805 c 0.1968,0.6792 117.1247,-42.3025 315.6996,-70.7303 0,0 10e-5,0 10e-5,0 87.7423,-12.5605 188.3247,-21.6242 302.1627,-23.708 90.8233,-1.6623 186.0975,1.1615 287.9567,8.4823 53.113,3.8171 106.9262,8.7727 162.0782,14.6577 37.7189,4.0249 75.0588,8.377 111.6955,12.8698 80.8017,9.9081 187.18,24.303 259.7379,33.5679 90.0646,11.4992 168.2019,20.5299 245.9287,26.7052 90.1142,7.1576 164.6972,9.1548 232.4568,7.0813 139.2829,-4.2646 219.4193,-25.9869 219.8859,-23.902 0.024,0.1054 -79.7468,24.0064 -219.6633,29.9748 -67.8923,2.8973 -143.002,1.5654 -233.2992,-5.0149 -77.8301,-5.6701 -156.449,-14.3572 -246.4807,-25.5393 -63.0713,-7.8328 -188.6397,-24.3477 -259.7719,-33.0003 -36.5997,-4.4517 -73.8971,-8.7805 -111.5508,-12.7987 -55.0674,-5.8764 -108.7503,-10.8591 -161.7326,-14.7409 -101.6202,-7.4451 -196.5405,-10.5305 -287.0943,-9.2592 -113.5004,1.5931 -213.7172,9.9697 -301.3293,21.7009 0,0 -10e-5,0 -10e-5,0 -198.1288,26.528 -315.7111,66.997 -316.6799,63.6537 z"
     id="path4789"
     inkscape:path-effect="#path-effect4791"
     inkscape:original-d="m 1489.1861,2355.8805 c 862.63,-249.973 1568.809,112.3193 2137.6021,-14.9761"
     inkscape:connector-curvature="0"
     sodipodi:nodetypes="cc" />
  <path
     sodipodi:nodetypes="cc"
     inkscape:connector-curvature="0"
     inkscape:original-d="m 1430.2547,2101.2891 c 769.3347,-126.4778 1545.7004,94.9079 2137.602,-14.9762"
     inkscape:path-effect="#path-effect4795"
     id="path4793"
     d="m 1430.2547,2101.2891 c -0.084,-0.5085 57.3735,-12.4577 158.2983,-23.9544 105.016,-11.9628 241.0754,-21.4643 417.0581,-20.7281 154.0637,0.6422 310.0214,8.7147 493.8868,21.3407 22.2967,1.5312 44.4978,3.0916 66.4478,4.653 209.8998,14.9261 357.8962,26.604 526.4722,30.4642 94.8545,2.1723 173.902,0.9533 245.019,-2.8474 145.0548,-7.7536 230.0958,-25.6497 230.4198,-23.9042 0.1008,0.5428 -84.6222,20.6228 -230.0519,30.1052 -71.1212,4.638 -150.6323,6.5506 -245.5515,4.9661 -167.2079,-2.7916 -318.8385,-14.1393 -527.0128,-28.8278 -21.9391,-1.5475 -44.1479,-3.1016 -66.4277,-4.6314 -184.2774,-12.6523 -338.9899,-21.0558 -493.2601,-22.4442 -176.0573,-1.5819 -311.033,6.6789 -416.4442,17.0806 -100.8911,9.9557 -158.6248,20.1207 -158.8538,18.7277 z"
     style="fill:#ffffff;fill-rule:evenodd;stroke:none;stroke-width:1px;stroke-linecap:butt;stroke-linejoin:miter;stroke-opacity:1" />
  <path
     style="fill:#ffffff;fill-rule:evenodd;stroke:none;stroke-width:1px;stroke-linecap:butt;stroke-linejoin:miter;stroke-opacity:1"
     d="m 2924.9689,1132.8434 c 1.6644,0.1504 -14.0134,184.3662 -40.6662,472.5219 0,0 0,10e-5 0,10e-5 68.3314,9.8105 141.5769,13.4426 221.3891,10.7963 71.7358,-1.6 144.8566,-7.8737 223.2043,-17.1981 74.4322,-8.8604 144.3832,-19.2792 223.546,-30.3278 60.2795,-7.8278 123.0129,-15.5419 186.037,-21.07 11.8982,-1.0436 23.7646,-2.0061 35.6079,-2.8778 0.1174,-155.6579 0.2856,-306.5574 0.4725,-444.4599 -72.7031,3.7504 -145.1032,3.8554 -210.7934,3.2387 -85.6111,-1.6504 -138.4543,-3.5569 -212.9035,-4.2091 -83.1126,-0.7268 -150.3519,0.9554 -212.7315,5.329 -136.0642,9.5408 -212.7335,30.1491 -213.1622,28.2567 -0.01,-0.04 76.3082,-22.5413 212.7508,-33.6785 62.3823,-5.0924 130.0554,-7.39 213.1817,-7.2356 72.8704,0.1341 129.1485,1.7707 213.0097,3.0042 66.9063,1.6358 141.0482,2.8749 215.1198,0.6371 0.1869,140.6018 0.3551,294.8969 0.4725,454.098 -12.0367,1.1332 -24.101,2.3576 -36.2017,3.6637 -64.0772,6.9161 -128.0312,16.0115 -189.4961,25.1101 -78.971,10.9376 -149.3119,21.2818 -223.7967,29.9665 -78.5487,9.1606 -152.03,15.2191 -224.1387,16.5401 -81.592,0.6312 -156.3789,-4.7926 -225.9537,-16.15 0,0 1e-4,-10e-5 1e-4,-10e-5 25.7594,-291.7939 43.3885,-476.1059 45.0523,-475.9555 z"
     id="path4797"
     inkscape:path-effect="#path-effect4799"
     inkscape:original-d="m 2924.9689,1132.8434 -42.8593,474.2388 c 298.2285,45.7765 596.4572,-34.8644 894.6856,-59.9039 l 0,-449.2789 c -283.9421,11.5821 -567.8843,-29.3792 -851.8263,34.944 z"
     inkscape:connector-curvature="0"
     sodipodi:nodetypes="ccccc" />
  <path
     style="fill:#ffffff;fill-rule:evenodd;stroke:none;stroke-width:1px;stroke-linecap:butt;stroke-linejoin:miter;stroke-opacity:1"
     d="m 2191.0052,1102.8914 c 0.2128,-0.055 3.122,8.7091 6.8241,25.9415 3.7737,17.5662 8.0262,42.5859 10.6487,76.4856 2.5998,33.5847 3.3765,72.4655 1.1585,119.9101 -4.1804,81.8612 -15.9935,171.0076 -38.2272,284.0749 -74.9299,0.6065 -151.3344,3.7767 -238.0831,8.5571 0,0 -10e-5,0 -10e-5,0 -68.8517,3.3202 -157.0248,8.2648 -233.386,11.1683 -76.6561,2.9154 -157.6639,4.4986 -239.8393,2.3876 -83.8341,-2.9178 -170.1653,-9.7226 -257.6781,-21.8323 -0.1203,-13.9355 -0.2406,-27.9166 -0.361,-41.9429 -1.5792,-183.9971 -3.0646,-364.0483 -4.3807,-526.9743 580.3748,33.9373 993.4751,59.7281 993.3242,62.2244 -0.151,2.4975 -412.7493,-21.6198 -988.9132,-57.583 1.7547,160.4157 3.6595,337.3215 5.5442,518.0604 0.1437,13.7811 0.2866,27.5183 0.4287,41.2114 85.6274,10.3937 170.15,15.5748 252.2944,17.0325 81.8734,2.2136 162.7031,0.7862 239.2371,-1.9307 75.4342,-2.6785 165.2255,-7.4058 233.3318,-10.4233 0,0 10e-5,0 10e-5,0 85.3417,-3.1804 160.6123,-5.0046 234.8136,-4.3978 21.0846,-111.4884 32.3639,-198.7477 36.6732,-279.9042 2.715,-47.2768 2.4568,-85.8753 0.4276,-119.3874 -2.0511,-33.8474 -5.6943,-58.6842 -8.8578,-76.3734 -3.0908,-17.2818 -5.389,-26.1995 -4.9797,-26.3045 z"
     id="path4801"
     inkscape:path-effect="#path-effect4803"
     inkscape:original-d="m 2191.0052,1102.8914 c 31.921,124.384 17.9438,300.089 -21.4296,504.1908 -321.4438,0 -609.9319,46.062 -964.3318,0 l -5.3573,-564.0945 z"
     inkscape:connector-curvature="0"
     sodipodi:nodetypes="ccccc" />
  <path
     style="fill:#ffffff;fill-rule:evenodd;stroke:none;stroke-width:1px;stroke-linecap:butt;stroke-linejoin:miter;stroke-opacity:1"
     d="m 2346.3698,728.49238 c -0.082,-0.29282 59.3067,-22.08818 161.9389,-36.05063 46.6383,-6.34454 100.0165,-10.71851 161.3007,-11.59554 0,0 1e-4,0 1e-4,0 93.0655,-1.32748 188.4931,5.419 300.3807,17.59166 5.6806,0.61801 11.3434,1.24298 16.9842,1.87305 128.4453,14.33701 202.6514,25.2592 308.5716,33.61163 93.2394,7.34357 160.975,7.62386 216.8818,5.05852 52.3232,-2.40089 82.0533,-6.68328 82.2158,-5.49669 0.082,0.59834 -29.4397,6.56537 -81.9196,10.44141 -55.5586,4.10343 -124.6629,4.94696 -217.8071,-1.49694 -102.8452,-7.10523 -184.2168,-18.29963 -309.0494,-32.18304 -5.633,-0.62605 -11.2876,-1.24826 -16.9586,-1.8647 -111.971,-12.17129 -206.3709,-19.28396 -299.2117,-18.75525 0,0 -1e-4,0 -1e-4,0 -61.0016,0.34452 -114.0065,4.01769 -160.5338,9.53068 -102.199,12.10877 -162.1759,31.53122 -162.7935,29.33584 z"
     id="path4805"
     inkscape:path-effect="#path-effect4807"
     inkscape:original-d="m 2346.3698,728.49238 c 434.7481,-122.29365 855.9637,58.7256 1248.2738,4.992"
     inkscape:connector-curvature="0"
     sodipodi:nodetypes="cc" />
  <path
     style="fill:#ffffff;fill-rule:evenodd;stroke:none;stroke-width:1px;stroke-linecap:butt;stroke-linejoin:miter;stroke-opacity:1"
     d="m 1992.7815,488.87693 c 0.4543,-2.69202 91.0402,15.88819 239.2648,23.32393 63.3409,3.17805 135.2369,4.05745 216.0057,0.71359 0,0 10e-5,0 10e-5,0 105.0011,-4.34266 208.628,-15.36962 330.7354,-30.06148 18.2024,-2.19011 36.5446,-4.42444 54.4333,-6.60019 63.1593,-7.68477 121.1796,-14.49954 179.8364,-19.60663 63.7043,-5.54747 122.1842,-8.46398 178.2659,-8.36356 68.87,0.12373 129.1857,4.88626 181.701,12.13764 120.6754,16.66588 189.3663,43.80268 189.4753,43.43266 -0.8119,2.75649 -70.1207,-22.09643 -190.3266,-36.92102 -52.3645,-6.45919 -112.3096,-10.53976 -180.8321,-10.13098 -55.8122,0.33259 -113.9299,3.57465 -177.4367,9.35458 -58.5588,5.33042 -116.2311,12.25057 -179.4741,20 -17.9268,2.19745 -36.1937,4.43166 -54.4474,6.62838 -121.8921,14.66901 -226.4467,25.45734 -331.5819,29.1955 0,0 0,0 0,0 -81.0477,2.87826 -153.2823,1.36026 -216.7584,-2.60405 -148.6725,-9.2864 -238.8733,-30.42385 -238.8607,-30.49837 z"
     id="path4809"
     inkscape:path-effect="#path-effect4811"
     inkscape:original-d="M 1992.7815,488.87693 C 2665.1623,602.35345 3039.945,349.9476 3562.4994,503.85289"
     inkscape:connector-curvature="0"
     sodipodi:nodetypes="cc" />
  <path
     style="fill:#ffffff;fill-rule:evenodd;stroke:none;stroke-width:1px;stroke-linecap:butt;stroke-linejoin:miter;stroke-opacity:1"
     d="m 508.78211,1127.8512 c 2.12824,2.9692 -58.94372,46.2626 -134.31079,97.6783 -0.8993,0.6135 -1.79702,1.2258 -2.69251,1.8366 85.24086,27.8426 154.27982,51.8294 153.07549,55.2369 -1.19711,3.387 -70.81297,-21.5861 -157.65367,-54.5867 0.88695,-0.6668 1.77636,-1.3354 2.66766,-2.0054 75.44061,-56.7041 136.79788,-101.1118 138.91382,-98.1597 z"
     id="path4813"
     inkscape:path-effect="#path-effect4815"
     inkscape:original-d="m 508.78211,1127.8512 -139.29239,99.84 155.36458,54.9118"
     inkscape:connector-curvature="0" />
  <path
     style="fill:#ffffff;fill-rule:evenodd;stroke:none;stroke-width:1px;stroke-linecap:butt;stroke-linejoin:miter;stroke-opacity:1"
     d="m 626.64482,1112.8753 c 1.3507,-3.2857 82.45296,30.4527 184.32003,74.7498 0,0 1e-5,0 1e-5,0 -2.58111,1.5077 -5.18135,3.0264 -7.79086,4.55 -99.42557,58.0531 -180.10952,103.5904 -181.88654,100.4119 -1.78493,-3.1926 78.56246,-47.6471 177.5231,-100.5257 2.61685,-1.3983 5.22627,-2.7923 7.81732,-4.1762 0,0 -2e-5,0 -2e-5,0 -100.68828,-38.989 -181.34027,-71.7082 -179.98304,-75.0098 z"
     id="path4817"
     inkscape:path-effect="#path-effect4819"
     inkscape:original-d="m 626.64482,1112.8753 182.15155,74.8798 -187.50891,104.8319"
     inkscape:connector-curvature="0" />
  <path
     style="fill:#ffffff;fill-rule:evenodd;stroke:none;stroke-width:1px;stroke-linecap:butt;stroke-linejoin:miter;stroke-opacity:1"
     d="m 481.9951,1522.2184 c 2.51031,2.5658 -44.97307,48.7415 -103.85924,103.6158 -0.23249,0.2166 -0.46483,0.4331 -0.69701,0.6495 75.97981,25.1396 137.90738,47.1191 136.70065,50.4863 -1.19839,3.3439 -63.92525,-19.298 -141.88409,-49.3535 0.22822,-0.2341 0.45664,-0.4684 0.68523,-0.7028 58.62504,-60.131 106.5613,-107.2435 109.05446,-104.6953 z"
     id="path4821"
     inkscape:path-effect="#path-effect4823"
     inkscape:original-d="M 481.9951,1522.2184 374.84713,1627.0501 514.1395,1676.97"
     inkscape:connector-curvature="0" />
  <path
     style="fill:#ffffff;fill-rule:evenodd;stroke:none;stroke-width:1px;stroke-linecap:butt;stroke-linejoin:miter;stroke-opacity:1"
     d="m 621.28746,1517.2264 c 1.71136,-2.9386 58.6443,30.3819 130.97114,74.9426 0,0 10e-6,0 10e-6,0 -3.79155,2.0572 -7.64467,4.1471 -11.5184,6.2463 -79.8551,43.2741 -144.60953,76.7338 -146.23972,73.5628 -1.63918,-3.1885 62.51137,-35.9537 141.45447,-74.3389 3.86723,-1.8804 7.72127,-3.7527 11.51653,-5.5958 0,0 -10e-6,0 -10e-6,0 -71.51483,-39.2336 -127.90631,-71.8596 -126.18402,-74.817 z"
     id="path4825"
     inkscape:path-effect="#path-effect4827"
     inkscape:original-d="m 621.28746,1517.2264 128.57759,74.8798 -155.36456,79.8719"
     inkscape:connector-curvature="0" />
  <path
     style="fill:#ffffff;fill-rule:evenodd;stroke:none;stroke-width:1px;stroke-linecap:butt;stroke-linejoin:miter;stroke-opacity:1"
     d="m 385.56192,1866.6656 c 2.47742,2.6588 -67.77808,67.6622 -154.71379,145.8264 -1.23936,1.1143 -2.47612,2.2261 -3.7091,3.3344 0,0 2e-5,0 2e-5,0 111.72497,25.2114 202.13639,47.0346 201.28207,50.5187 -0.85027,3.4676 -91.96886,-19.1869 -205.88017,-49.3209 0,0 -2e-5,0 -2e-5,0 1.21528,-1.173 2.43464,-2.3498 3.65703,-3.5293 86.42398,-83.3938 156.89777,-149.476 159.36396,-146.8293 z"
     id="path4829"
     inkscape:path-effect="#path-effect4831"
     inkscape:original-d="m 385.56192,1866.6656 -160.72194,149.7597 203.58114,49.9198"
     inkscape:connector-curvature="0" />
  <path
     style="fill:#ffffff;fill-rule:evenodd;stroke:none;stroke-width:1px;stroke-linecap:butt;stroke-linejoin:miter;stroke-opacity:1"
     d="m 594.50049,1876.6494 c 1.03581,-2.8296 65.60911,20.6476 152.31748,54.5674 0,0 2e-5,0 2e-5,0 -11.15342,8.7156 -23.26834,18.1839 -35.21231,27.4997 -89.90547,70.1229 -163.22468,125.3804 -165.32181,122.6046 -2.10452,-2.7856 70.4955,-57.7405 160.35778,-123.449 12.00261,-8.7765 24.27697,-17.7335 35.55572,-25.9661 0,0 -10e-6,0 -10e-6,0 -84.86631,-28.9036 -148.73798,-52.4125 -147.69687,-55.2566 z"
     id="path4833"
     inkscape:path-effect="#path-effect4835"
     inkscape:original-d="m 594.50049,1876.6494 150.00719,54.912 -198.22381,149.7597"
     inkscape:connector-curvature="0" />
  <path
     style="fill:#ffffff;fill-rule:evenodd;stroke:none;stroke-width:1px;stroke-linecap:butt;stroke-linejoin:miter;stroke-opacity:1"
     d="m 358.77495,2305.9605 c 2.28892,2.7021 -76.12475,68.7324 -174.48399,149.2665 0,0 -2e-5,0 -2e-5,0 3.06434,0.8362 6.14717,1.6777 9.23972,2.5222 127.02831,34.6864 230.54145,64.3803 229.53306,67.8588 -1.00444,3.4649 -105.20063,-27.0248 -234.08622,-66.5403 -3.11634,-0.9554 -6.22138,-1.9078 -9.30684,-2.8543 0,0 1e-5,0 1e-5,0 98.12345,-85.923 176.82502,-152.9436 179.10428,-150.2529 z"
     id="path4837"
     inkscape:path-effect="#path-effect4839"
     inkscape:original-d="M 358.77495,2305.9605 181.9808,2455.7202 423.06372,2525.608"
     inkscape:connector-curvature="0" />
  <path
     style="fill:#ffffff;fill-rule:evenodd;stroke:none;stroke-width:1px;stroke-linecap:butt;stroke-linejoin:miter;stroke-opacity:1"
     d="m 540.9265,2315.9445 c 1.69319,-3.0286 73.54738,37.2295 163.39354,89.708 0,0 1e-5,0 1e-5,0 -1.80355,1.3384 -3.61655,2.6835 -5.43628,4.0331 -85.98981,63.7773 -155.89959,113.8107 -157.95727,110.9303 -2.06818,-2.8951 67.1705,-52.2214 152.59509,-110.9203 1.82498,-1.254 3.64441,-2.5038 5.45532,-3.7475 0,0 -2e-5,0 -2e-5,0 -88.62752,-47.3235 -159.75277,-86.9586 -158.05039,-90.0036 z"
     id="path4841"
     inkscape:path-effect="#path-effect4843"
     inkscape:original-d="m 540.9265,2315.9445 160.72198,89.8558 -160.72198,114.8156"
     inkscape:connector-curvature="0" />
  <path
     style="fill:#ffffff;fill-rule:evenodd;stroke:none;stroke-width:1px;stroke-linecap:butt;stroke-linejoin:miter;stroke-opacity:1"
     d="m 423.06372,2415.7841 c -0.14268,-2.7563 21.34283,-6.1115 47.95873,-7.4893 26.47339,-1.3704 48.1003,-0.2709 48.47155,2.4532 0.004,0.055 0.003,0.044 0.003,0.044 0,0 -2.6e-4,-0.011 0.002,0.044 -0.088,2.7478 -21.48578,6.0745 -47.95917,7.4449 -26.6159,1.3778 -48.33301,0.259 -48.47569,-2.4973 z"
     id="path4845"
     inkscape:path-effect="#path-effect4847"
     inkscape:original-d="m 423.06372,2415.7841 c 96.43319,-4.9919 96.43319,-4.9919 96.43319,-4.9919"
     inkscape:connector-curvature="0" />
  <path
     style="fill:#ffffff;fill-rule:evenodd;stroke:none;stroke-width:1px;stroke-linecap:butt;stroke-linejoin:miter;stroke-opacity:1"
     d="m 428.42112,1956.5214 c -0.21367,-2.7517 28.41458,-7.2214 63.90235,-9.977 18.771,-1.4576 35.71987,-2.1451 47.55409,-2.0621 l 0,0 c 6.79572,0.048 11.90486,0.3493 14.70392,0.9051 l 0,0 c 0.95294,0.1893 1.63812,0.408 2.03096,0.6561 l 0,0 c 0.15048,0.1985 0.2534,0.3046 0.31677,0.3767 l 0,0 0,0 c 0.0258,0.067 0.0446,0.095 0.0554,0.1063 m 0.0127,-10e-4 c 0,0 0,0 0,0 0.002,0.012 0.001,0.012 0.001,0.012 0,0 5e-4,-2e-4 3.9e-4,0.012 0,0 0,0 0,0 m -0.0127,0 c -0.009,0.013 -0.0232,0.043 -0.0383,0.1137 l 0,0 0,0 c -0.0515,0.081 -0.13679,0.2017 -0.25483,0.421 l 0,0 c -0.34982,0.3058 -0.99304,0.6277 -1.90533,0.9617 l 0,0 c -2.67972,0.9813 -7.68104,2.068 -14.38795,3.1642 l 0,0 c -11.67956,1.9087 -28.53139,3.8459 -47.30239,5.3034 -35.48777,2.7557 -64.46285,2.7588 -64.67652,0.01"
     id="path4849"
     inkscape:path-effect="#path-effect4851"
     inkscape:original-d="m 428.42112,1956.5214 c 128.57757,-9.984 128.57757,-9.984 128.57757,-9.984"
     inkscape:connector-curvature="0" />
  <path
     style="fill:#ffffff;fill-rule:evenodd;stroke:none;stroke-width:1px;stroke-linecap:butt;stroke-linejoin:miter;stroke-opacity:1"
     d="m 514.1395,1587.1142 c 0.13519,-2.7567 23.04628,-3.8758 51.14081,-2.498 27.95007,1.3708 50.55267,4.6989 50.65126,7.4475 0,0 0,0 0,0 -0.002,0.053 -0.001,0.043 -0.001,0.043 0,0 8.2e-4,-0.011 -0.003,0.043 0,0 0,0 0,0 -0.36706,2.7257 -23.18685,3.8263 -51.13692,2.4555 -28.09453,-1.3778 -50.78617,-4.7333 -50.65098,-7.49 z"
     id="path4853"
     inkscape:path-effect="#path-effect4855"
     inkscape:original-d="m 514.1395,1587.1142 c 101.79059,4.992 101.79059,4.992 101.79059,4.992"
     inkscape:connector-curvature="0" />
  <path
     style="fill:#ffffff;fill-rule:evenodd;stroke:none;stroke-width:1px;stroke-linecap:butt;stroke-linejoin:miter;stroke-opacity:1"
     d="m 551.64129,1212.7152 c -0.15105,-2.7559 20.12733,-6.1107 45.26424,-7.4885 25.13691,-1.3778 45.66048,-0.2594 45.81153,2.4965 0.15105,2.7559 -20.12733,6.1107 -45.26424,7.4885 -25.13691,1.3778 -45.66048,0.2594 -45.81153,-2.4965 z"
     id="path4857"
     inkscape:path-effect="#path-effect4859"
     inkscape:original-d="m 551.64129,1212.7152 91.07577,-4.992"
     inkscape:connector-curvature="0" />
  <path
     style="fill:#ffffff;fill-rule:evenodd;stroke:none;stroke-width:1px;stroke-linecap:butt;stroke-linejoin:miter;stroke-opacity:1"
     d="m 1526.6878,1262.635 c -3.5243,1.681 -21.692,-39.0672 -42.8591,-89.8558 26.1494,48.4122 46.3834,88.1748 42.8591,89.8558 -3.5243,1.681 -21.692,-39.0672 -42.8591,-89.8558 26.1494,48.4122 46.3834,88.1748 42.8591,89.8558 z"
     id="path4861"
     inkscape:path-effect="#path-effect4863"
     inkscape:original-d="m 1526.6878,1262.635 -42.8591,-89.8558 z"
     inkscape:connector-curvature="0" />
  <path
     style="fill:#ffffff;fill-rule:evenodd;stroke:none;stroke-width:1px;stroke-linecap:butt;stroke-linejoin:miter;stroke-opacity:1"
     d="m 417.70632,683.56442 c 0.11537,-1.07796 33.42788,2.10103 91.47106,5.87974 58.9801,3.83972 139.88262,7.97087 239.71249,8.44735 95.92921,0.45841 196.12297,-2.41972 312.94503,-8.2544 1.2853,-0.0642 2.5715,-0.12869 3.8585,-0.19344 35.6971,-1.79601 295.9322,-16.54005 311.3123,-17.33963 103.3313,-5.37247 181.7083,-7.99832 243.8815,-9.03732 59.2094,-0.98948 93.2972,-0.34911 93.3096,0.52978 0.014,1.0104 -34.0439,2.13768 -93.1576,4.6329 -64.8551,2.73757 -137.5504,6.22239 -243.5411,12.63195 -79.6507,4.81707 -211.1149,13.52855 -311.3022,18.56967 -1.2884,0.0648 -2.5758,0.12932 -3.8625,0.19348 -116.51267,5.81107 -217.82292,8.27509 -313.52292,6.99147 -99.84591,-1.33978 -181.29099,-6.71717 -240.03184,-12.06326 -58.02428,-5.28088 -91.15617,-10.20487 -91.07232,-10.98829 z"
     id="path4865"
     inkscape:path-effect="#path-effect4867"
     inkscape:original-d="M 417.70632,683.56442 C 879.99071,733.0415 1241.5994,670.25367 1714.1968,663.5965"
     inkscape:connector-curvature="0"
     sodipodi:nodetypes="cc" />
  <path
     style="fill:#ffffff;fill-rule:evenodd;stroke:none;stroke-width:1px;stroke-linecap:butt;stroke-linejoin:miter;stroke-opacity:1"
     d="m 1408.8251,1317.547 c 1.0519,0.9878 -23.0635,28.5687 -62.4633,71.8593 l 0,0 c -2.7199,2.9886 -5.5128,6.052 -8.3752,9.1868 l 0,0 c -0.3793,0.4154 -0.7599,0.8321 -1.1416,1.25 0,0 0,0 0,0 0.084,-0.1729 0.169,-0.3461 0.2538,-0.5195 0,0 0,0 0,0 0,0 -0.028,0.029 -0.028,0.029 -9.3359,27.3739 -19.9588,57.646 -32.0523,91.5521 16.7377,7.8525 38.6121,18.0942 56.7196,26.5988 7.1745,0.1397 14.4087,0.2861 21.7198,0.4384 9.6143,0.2003 19.157,0.4065 28.5331,0.6131 3.1941,-5.2018 6.3059,-10.2688 9.4398,-15.3782 -22.4885,-14.0781 -44.0131,-27.5893 -63.9366,-40.1253 17.7992,-27.8664 32.4791,-50.8878 46.0672,-72.3051 0,0 0,0 0,0 25.1027,49.9467 38.8244,80.8869 37.4083,81.5518 -1.4209,0.6672 -16.3763,-29.4945 -37.5953,-78.1913 0,0 0,-10e-5 0,-10e-5 -12.0466,20.3811 -24.7037,41.9413 -39.6512,67.4703 20.2245,12.4037 41.991,25.7847 64.641,39.7463 -3.7968,7.7761 -8.0827,16.5563 -11.99,24.558 -10.6007,0.2066 -21.4046,0.4127 -32.298,0.6131 -8.2815,0.1523 -16.4778,0.2987 -24.5969,0.4384 -20.3825,-11.0856 -42.4608,-23.1274 -61.1434,-33.305 11.876,-36.8199 22.5553,-69.4037 32.245,-98.1527 0.01,-0.01 0.037,-0.04 0.037,-0.04 0,0 0,0 0,0 0.1982,-0.2943 0.3963,-0.5883 0.5941,-0.8819 0,-10e-5 0,-10e-5 0,-10e-5 0.3931,-0.4072 0.7851,-0.8132 1.1759,-1.2178 l 0,0 c 2.9488,-3.0537 5.8308,-6.0334 8.6426,-8.9357 l 0,0 c 40.7308,-42.0407 66.7428,-67.8406 67.7947,-66.8528 z"
     id="path4881"
     inkscape:path-effect="#path-effect4883"
     inkscape:original-d="m 1408.8251,1317.547 c -75.0036,79.8716 -75.0036,79.8716 -75.0036,79.8716 l -32.1445,94.8479 58.9315,29.9519 53.5739,0 10.7149,-19.9681 -64.2888,-39.9358 42.8592,-69.8877 37.5018,79.8716"
     inkscape:connector-curvature="0" />
  <path
     style="fill:#ffffff;fill-rule:evenodd;stroke:none;stroke-width:1px;stroke-linecap:butt;stroke-linejoin:miter;stroke-opacity:1"
     d="m 1435.6119,1322.5389 c 2.7442,0.2945 3.7714,11.7156 2.2928,25.4935 -1.4786,13.7779 -4.9059,24.7209 -7.6501,24.4264 -2.7442,-0.2945 -3.7714,-11.7156 -2.2928,-25.4935 1.4786,-13.7779 4.9059,-24.7209 7.6501,-24.4264 z"
     id="path4885"
     inkscape:path-effect="#path-effect4887"
     inkscape:original-d="m 1435.6119,1322.5389 -5.3573,49.9199"
     inkscape:connector-curvature="0" />
  <path
     style="fill:#ffffff;fill-rule:evenodd;stroke:none;stroke-width:1px;stroke-linecap:butt;stroke-linejoin:miter;stroke-opacity:1"
     d="m 1880.2761,1342.5069 c 1.1713,0.419 -7.9078,28.9905 -24.3476,76.7428 0,0 -10e-5,0 -10e-5,0 -12.6998,9.2839 -27.2698,19.8942 -43.0813,31.372 -16.1844,10.4942 -33.5818,21.6569 -52.2831,33.561 -0.3594,13.1856 -0.773,26.6823 -1.2335,40.6356 29.9836,-1.6331 61.8675,-3.3414 94.665,-5.0599 34.4281,-1.804 67.4567,-3.4933 98.7827,-5.0489 1.2213,-33.481 2.4625,-63.9539 3.8171,-92.1372 -3.0623,-26.14 -5.6963,-48.1387 -8.1863,-68.3186 -9.3397,0.3552 -17.855,0.5753 -25.5537,0.6731 -27.3811,-7.0957 -42.7831,-11.5446 -42.5792,-12.4199 0.2038,-0.8749 15.9685,1.9354 43.1392,7.5479 8.3071,0.098 17.6362,0.3179 28.0201,0.6731 3.788,20.753 8.0274,43.617 13.2435,71.4572 -1.9075,29.5722 -4.2142,61.9104 -6.8975,97.5582 -32.7067,1.6695 -67.4349,3.3929 -103.6443,5.1467 -34.5014,1.6711 -68.0171,3.2568 -99.3556,4.7123 -0.4604,-17.056 -0.8741,-33.4333 -1.2335,-49.22 19.6378,-13.1028 37.9057,-25.2029 54.8649,-36.3268 15.4649,-10.38 29.9188,-20.0518 42.6369,-28.5316 0,0 0,0 0,0 16.9821,-45.6785 28.0562,-73.4356 29.2263,-73.017 z"
     id="path4889"
     inkscape:path-effect="#path-effect4891"
     inkscape:original-d="m 1880.2761,1342.5069 -26.787,74.8799 -42.8591,29.9518 -53.574,34.9439 0,44.9278 198.2238,-9.9839 5.3573,-94.8477 -10.7149,-69.8879 -26.7869,0 z"
     inkscape:connector-curvature="0" />
  <path
     style="fill:#ffffff;fill-rule:evenodd;stroke:none;stroke-width:1px;stroke-linecap:butt;stroke-linejoin:miter;stroke-opacity:1"
     d="m 1430.2546,1397.4186 c -0.032,-2.7598 95.9464,-6.1178 214.2378,-7.4956 118.2914,-1.3777 214.3222,-0.256 214.3543,2.5038 0.032,2.7598 -95.9464,6.1178 -214.2378,7.4956 -118.2914,1.3777 -214.3222,0.256 -214.3543,-2.5038 z"
     id="path4893"
     inkscape:path-effect="#path-effect4895"
     inkscape:original-d="m 1430.2546,1397.4186 428.5921,-4.9918"
     inkscape:connector-curvature="0" />
  <path
     style="fill:#ffffff;fill-rule:evenodd;stroke:none;stroke-width:1px;stroke-linecap:butt;stroke-linejoin:miter;stroke-opacity:1"
     d="m 1435.6119,1417.3868 c 2.6557,0.6 -5.7407,40.4396 -19.0906,92.9782 0,0 0,0 0,0 11.1963,-0.2057 23.229,-0.4151 35.384,-0.5914 6.3694,-0.092 12.6093,-0.1733 18.7475,-0.2407 0,0 0,0 0,0 4.8162,-63.0444 10.2604,-112.3864 13.1759,-112.1143 2.9005,0.2707 -0.9293,50.6287 -8.2537,117.5173 0,0 0,0 0,0 -7.2031,-0.067 -14.5766,-0.1483 -22.1076,-0.2407 -14.4033,-0.1767 -28.5915,-0.3854 -41.6239,-0.5914 0,0 0,0 0,0 11.4009,-57.0929 21.1306,-97.313 23.7684,-96.717 z"
     id="path4897"
     inkscape:path-effect="#path-effect4899"
     inkscape:original-d="m 1435.6119,1417.3868 -21.4295,94.8476 58.9315,0 10.7148,-114.8158"
     inkscape:connector-curvature="0" />
  <path
     style="fill:#ffffff;fill-rule:evenodd;stroke:none;stroke-width:1px;stroke-linecap:butt;stroke-linejoin:miter;stroke-opacity:1"
     d="m 1735.6264,1407.4026 c 2.6011,0 3.5191,41.7688 2.5804,97.4521 0,0 0,0 0,0 11.8563,0.8543 24.2913,1.7889 37.172,2.7977 7.5875,0.5943 15.0275,1.1906 22.2878,1.7851 0,0 0,0 0,0 7.7665,-63.327 15.4599,-112.4194 18.3207,-112.0189 2.8463,0.3984 -3.3224,50.5443 -13.8239,117.6126 0,0 0,1e-4 0,1e-4 -8.4107,-0.6223 -17.0926,-1.2778 -25.9538,-1.9608 -15.0461,-1.1597 -29.5677,-2.3182 -43.1636,-3.4402 0,0 0,0 0,0 -0.9505,-59.7841 -0.01,-102.2277 2.5804,-102.2277 z"
     id="path4901"
     inkscape:path-effect="#path-effect4903"
     inkscape:original-d="m 1735.6264,1407.4026 0,99.8399 64.2886,4.9919 16.0723,-114.8158"
     inkscape:connector-curvature="0" />
  <path
     style="fill:none;fill-rule:evenodd;stroke:#000000;stroke-width:1.24115193px;stroke-linecap:butt;stroke-linejoin:miter;stroke-opacity:1"
     d="m 1398.1102,1322.5389 c 17.6435,-6.3771 35.2345,-4.9919 53.574,-4.9919 1.7858,0 5.3575,-1.6641 5.3575,0 0,1.6639 -7.1433,0 -5.3575,0 3.5717,0 7.1433,0 10.7148,0 1.7857,0 4.0947,1.1766 5.3575,0 1.2628,-1.1767 -1.2628,-3.8154 0,-4.9921 2.5256,-2.3533 8.1891,2.3532 10.7146,0 1.263,-1.1765 -1.7857,-4.992 0,-4.992 1.7859,0 0,6.656 0,4.992 0,-3.3281 0,-6.6561 0,-9.984 0,-1.664 1.263,-3.8153 0,-4.9919 -1.2627,-1.1767 -4.0945,1.1766 -5.3572,0 -1.2627,-1.1767 0.7986,-3.5037 0,-4.992 -1.1295,-2.1048 -4.228,-2.8872 -5.3574,-4.992 -0.7987,-1.4883 -1.7858,-4.992 0,-4.992 1.7857,0 1.7857,4.992 0,4.992 -2.5255,0 -4.228,-2.8873 -5.3575,-4.992 -1.453,-2.7081 1.4659,-18.6021 0,-19.968 -1.2629,-1.1766 -4.0945,1.1766 -5.3573,0 -2.5255,-2.3532 1.5972,-7.0074 0,-9.984 -11.1482,-20.7755 0.3697,5.3368 -10.7148,-4.992 -3.5779,-3.3337 3.5777,-6.6502 0,-9.9839 -2.5256,-2.3533 -8.1894,2.3532 -10.715,0 -1.2626,-1.1765 1.2629,-3.8155 0,-4.992 -2.5254,-2.3532 -8.189,2.3533 -10.7146,0 -1.2628,-1.1767 1.2628,-3.8153 0,-4.9919 -2.5255,-2.3533 -10.7149,3.3278 -10.7149,0 0,-1.6641 7.1433,0 5.3575,0 -7.1433,0 -14.2864,0 -21.4297,0 -1.7859,0 -5.3573,1.664 -5.3573,0 0,-1.6641 7.1432,0 5.3573,0 -3.5715,0 -7.5203,-1.4884 -10.7148,0 -1.5973,0.744 0,3.3278 0,4.9919 0,6.6561 0,13.312 0,19.9679 0,1.2107 0.1723,14.8155 0,14.9761 -1.2627,1.1765 -4.0946,-1.1767 -5.3574,0 -2.5255,2.3532 2.5255,7.6306 0,9.9838 -1.2628,1.1767 -4.0945,-1.1765 -5.3573,0 -0.1723,0.1605 0,13.7654 0,14.9761 0,1.6638 1.7858,4.992 0,4.992 -1.7858,0 0,-6.6561 0,-4.992 0,9.9839 0,19.9679 0,29.9519 0,19.9128 -5.011,-32.8495 21.4295,0 4.418,5.4887 -3.5715,13.3119 -5.3573,19.968"
     id="path4909"
     inkscape:connector-curvature="0" />
  <path
     style="fill:none;fill-rule:evenodd;stroke:#000000;stroke-width:1.24115193px;stroke-linecap:butt;stroke-linejoin:miter;stroke-opacity:1"
     d="m 1880.2761,1342.5069 c 10.7148,0 21.4296,0 32.1444,0 1.7859,0 4.0946,-1.1766 5.3574,0 1.2628,1.1766 -1.2628,3.8153 0,4.992 1.2628,1.1767 5.3574,-1.6641 5.3574,0 0,1.6639 -7.1431,0 -5.3574,0 5.3574,0 10.7148,0 16.0722,0 1.7858,0 4.0948,1.1767 5.3575,0 1.2627,-1.1767 -1.2627,-3.8154 0,-4.992 1.2627,-1.1766 4.0945,1.1766 5.3572,0 1.2629,-1.1766 -1.2627,-3.8154 0,-4.9921 1.2629,-1.1765 4.0948,1.1767 5.3574,0 1.2628,-1.1765 -1.2626,-3.8153 0,-4.9919 3.578,-3.3338 7.1371,3.3338 10.7149,0 0.1723,-0.1606 0,-13.7653 0,-14.9759 0,-20.7724 0,-12.4198 0,-29.952 0,-11.7071 1.2626,2.3532 -5.3573,-9.9841 -0.7989,-1.4882 -1.7858,-4.9918 0,-4.9918 1.7858,0 0,6.6558 0,4.9918 0,-4.9918 0,-9.9838 0,-14.9759 0,-1.664 1.2627,-3.8153 0,-4.9918 -1.2629,-1.1768 -4.0948,1.1765 -5.3576,0 -2.6785,-2.4961 2.6788,-12.4801 0,-14.976 -1.2626,-1.1767 -4.0945,1.1766 -5.3574,0 -1.2627,-1.1767 1.2629,-3.8155 0,-4.9921 -1.289,-1.2011 -20.1403,1.2012 -21.4295,0 -1.2627,-1.1765 1.2627,-3.8155 0,-4.992 -2.5255,-2.3532 -10.7148,3.328 -10.7148,0 0,-1.6641 7.1432,0 5.3574,0 -3.5715,0 -7.1433,0 -10.7148,0 -1.7858,0 -4.0946,-1.1767 -5.3574,0 -1.2628,1.1765 1.2628,3.8155 0,4.992 -0.1724,0.1606 -14.7729,0 -16.0721,0 -7.1433,0 -14.2864,0 -21.4298,0 -1.7858,0 -5.3571,1.6641 -5.3571,0 0,-1.664 7.1429,0 5.3571,0 -3.5714,0 -7.1429,0 -10.7147,0 -1.7858,0 -4.0946,-1.1765 -5.3573,0 -0.1724,0.1606 0,13.7653 0,14.9759 0,1.6641 -1.2628,3.8154 0,4.9922 1.2627,1.1765 4.0945,-1.1768 5.3573,0 2.6786,2.4959 -2.6786,12.4798 0,14.9759 1.2627,1.1767 4.0948,-1.1767 5.3576,0 1.2627,1.1767 -1.2628,3.8153 0,4.9918 11.0844,10.3288 -0.4334,-15.7835 10.7146,4.9921 0.7986,1.4884 0,3.328 0,4.992 0,15.221 -5.4298,0.067 -10.7146,4.992 -1.2628,1.1765 1.2627,3.8153 0,4.992 -2.5256,2.3532 -8.1895,-2.3533 -10.7149,0 -0.1724,0.1605 0,13.7652 0,14.9759 0,8.32 0,16.64 0,24.9599 0,1.664 -1.2628,3.8155 0,4.9921 1.2627,1.1766 3.5715,0 5.3573,0 1.7858,0 7.1433,0 5.3576,0 -3.5718,0 -10.7149,3.3279 -10.7149,0 0,-3.7208 6.7214,-4.9921 10.7149,-4.9921 7.363,0 14.2863,3.3281 21.4294,4.9921 z"
     id="path4913"
     inkscape:connector-curvature="0" />
  <path
     style="fill:#ffffff;fill-rule:evenodd;stroke:none;stroke-width:1px;stroke-linecap:butt;stroke-linejoin:miter;stroke-opacity:1"
     d="m 798.08162,693.54843 c -1.73229,-1.32202 67.92722,-94.9633 169.60859,-228.33451 22.4003,-0.22866 45.95859,-0.46086 70.03689,-0.68456 29.6,-21.49879 60.2376,-43.672 92.1515,-66.72148 3.6583,-2.64219 7.3054,-5.27567 10.939,-7.89888 35.9763,22.44855 70.256,43.89124 103.2154,64.60264 33.7991,0.36515 67.043,0.74808 96.9939,1.10148 74.4335,120.69906 123.047,201.95783 121.3721,202.99141 -1.6748,1.03352 -52.3149,-78.54883 -125.0681,-196.36763 -29.6565,0.35305 -62.5692,0.73668 -95.8723,1.10148 -32.1225,-20.78104 -65.4202,-42.42168 -100.3662,-65.18906 -3.5389,2.65304 -7.0908,5.31539 -10.6538,7.98539 -31.0836,23.29313 -60.9265,45.61098 -89.8367,67.15389 -23.7749,-0.22366 -47.07524,-0.45594 -69.25523,-0.68458 -99.85558,130.70983 -171.53294,222.26629 -173.26505,220.94441 z"
     id="path4915"
     inkscape:path-effect="#path-effect4917"
     inkscape:original-d="m 798.08162,693.54843 171.4368,-224.63945 69.64608,0 101.7905,-74.87982 101.7908,64.89585 96.4331,0 123.2201,199.67952"
     inkscape:connector-curvature="0" />
  <path
     style="fill:#ffffff;fill-rule:evenodd;stroke:none;stroke-width:1px;stroke-linecap:butt;stroke-linejoin:miter;stroke-opacity:1"
     d="m 996.30527,558.76476 c -0.0476,-2.75959 64.71683,-6.11746 144.56343,-7.49525 79.8467,-1.37779 144.6884,-0.25633 144.736,2.50326 0.048,2.75959 -64.7168,6.11746 -144.5635,7.49525 -79.8466,1.37779 -144.68831,0.25633 -144.73593,-2.50326 z"
     id="path4919"
     inkscape:path-effect="#path-effect4921"
     inkscape:original-d="m 996.30527,558.76476 289.29943,-4.99199"
     inkscape:connector-curvature="0" />
  <path
     style="fill:#ffffff;fill-rule:evenodd;stroke:none;stroke-width:1px;stroke-linecap:butt;stroke-linejoin:miter;stroke-opacity:1"
     d="m 937.37395,628.65259 c -0.0686,-2.75915 89.88015,-7.23487 200.77825,-9.99045 110.8982,-2.75558 200.9581,-2.75268 201.0267,0.006 0.069,2.75915 -89.8801,7.23487 -200.7783,9.99045 -110.8981,2.75558 -200.95809,2.75268 -201.02665,-0.006 z"
     id="path4923"
     inkscape:path-effect="#path-effect4925"
     inkscape:original-d="m 937.37395,628.65259 401.80495,-9.98398"
     inkscape:connector-curvature="0" />
  <path
     style="fill:#ffffff;fill-rule:evenodd;stroke:none;stroke-width:1px;stroke-linecap:butt;stroke-linejoin:miter;stroke-opacity:1"
     d="m 3133.9074,1487.2744 c -0.236,-2.195 57.4263,-9.8522 140.7098,-18.8853 14.9509,15.5503 30.7822,32.1577 47.5398,49.8362 4.7288,-2.2461 9.5036,-4.5112 14.3146,-6.7903 37.7733,-17.8946 72.303,-34.0599 102.7677,-48.0551 62.1239,27.7278 102.603,47.1038 101.8303,48.8545 -0.7721,1.7494 -42.0827,-14.9715 -101.7505,-41.0013 -30.8065,14.5508 -65.8543,30.8015 -104.1395,48.3423 -4.8757,2.2339 -9.7138,4.4474 -14.5038,6.6361 -17.3017,-17.5841 -33.6069,-34.2484 -48.8934,-50.0038 -80.1079,8.5344 -137.6391,13.2612 -137.875,11.0667 z"
     id="path4931"
     inkscape:path-effect="#path-effect4933"
     inkscape:original-d="m 3133.9074,1487.2744 139.2924,-14.976 48.2166,49.92 117.8628,-54.9119 101.7904,44.9279"
     inkscape:connector-curvature="0" />
  <path
     style="fill:#ffffff;fill-rule:evenodd;stroke:none;stroke-width:1px;stroke-linecap:butt;stroke-linejoin:miter;stroke-opacity:1"
     d="m 3101.7629,1382.4428 c 2.259,0.062 0.9543,79.2812 -3.2007,192.5035 44.8936,-2.1638 98.0092,-4.6904 151.2669,-7.1118 189.8305,-8.6308 344.6869,-13.8566 344.8145,-10.6722 0.1275,3.1801 -155.4094,10.4025 -348.0284,17.0949 -53.851,1.871 -107.3325,3.6168 -152.3662,5.0569 2.1829,-117.2731 5.2596,-196.9333 7.5139,-196.8713 z"
     id="path4935"
     inkscape:path-effect="#path-effect4937"
     inkscape:original-d="m 3101.7629,1382.4428 -5.3573,194.6874 498.238,-19.9679"
     inkscape:connector-curvature="0" />
  <path
     style="fill:#ffffff;fill-rule:evenodd;stroke:none;stroke-width:1px;stroke-linecap:butt;stroke-linejoin:miter;stroke-opacity:1"
     d="m 3091.0482,1162.7953 c 2.2608,-0.066 5.391,75.2033 7.6169,182.3776 41.1744,-0.3521 88.9999,-0.7167 137.4685,-0.9735 176.7958,-0.9365 321.0082,0.1481 321.0082,3.2995 0,3.1472 -144.9794,4.2403 -324.5093,3.2995 -49.0215,-0.2569 -97.1953,-0.6213 -138.4864,-0.9735 -4.1107,-111.1372 -5.3543,-186.9642 -3.0979,-187.0296 z"
     id="path4939"
     inkscape:path-effect="#path-effect4941"
     inkscape:original-d="m 3091.0482,1162.7953 5.3574,184.7036 460.7362,0"
     inkscape:connector-curvature="0" />
  <path
     style="fill:#ffffff;fill-rule:evenodd;stroke:none;stroke-width:1px;stroke-linecap:butt;stroke-linejoin:miter;stroke-opacity:1"
     d="m 3112.4779,1327.5309 c -0.1811,-2.2023 75.9761,-10.3386 181.486,-19.6654 25.7829,-5.3524 53.2882,-10.9692 81.9558,-16.7307 13.6007,-2.7334 26.9705,-5.4003 40.0242,-7.986 22.1623,-15.336 43.3343,-29.8916 62.8826,-43.2485 0,0 0,0 0,0 5.7929,-12.2283 11.3298,-23.8645 16.5389,-34.7607 16.4305,-9.4545 31.1549,-17.8258 43.9898,-25.0088 30.5273,-21.0716 49.2318,-33.2765 49.9311,-32.3115 0.6996,0.9653 -16.734,14.9497 -46.5023,37.5765 -12.175,7.382 -26.1442,15.7211 -41.7284,24.911 -4.8861,11.0527 -10.1097,22.8122 -15.6053,35.1272 0,0 0,10e-5 0,10e-5 -20.1956,14.4179 -42.346,30.1376 -65.6952,46.6071 -13.283,2.7492 -26.9089,5.5506 -40.7834,8.3826 -29.2456,5.9697 -57.3556,11.6185 -83.677,16.8205 -106.0975,8.0705 -182.6357,12.4894 -182.8168,10.2866 z"
     id="path4943"
     inkscape:path-effect="#path-effect4945"
     inkscape:original-d="m 3112.4779,1327.5309 182.1514,-14.976 123.2202,-24.9599 64.2889,-44.9278 16.0721,-34.944 42.8591,-24.9599 48.2167,-34.944"
     inkscape:connector-curvature="0"
     sodipodi:nodetypes="ccccccc" />
  <g
     inkscape:groupmode="layer"
     id="layer1"
     inkscape:label="Layer 1" />
</svg>
