<?xml version="1.0" encoding="UTF-8" standalone="no"?>
<!-- Created with Inkscape (http://www.inkscape.org/) -->

<svg
   xmlns:dc="http://purl.org/dc/elements/1.1/"
   xmlns:cc="http://creativecommons.org/ns#"
   xmlns:rdf="http://www.w3.org/1999/02/22-rdf-syntax-ns#"
   xmlns:svg="http://www.w3.org/2000/svg"
   xmlns="http://www.w3.org/2000/svg"
   xmlns:sodipodi="http://sodipodi.sourceforge.net/DTD/sodipodi-0.dtd"
   xmlns:inkscape="http://www.inkscape.org/namespaces/inkscape"
   width="297mm"
   height="210mm"
   viewBox="0 0 1052.3622 744.09448"
   id="svg5396"
   version="1.1"
   inkscape:version="0.91 r"
   sodipodi:docname="seo.svg">
  <defs
     id="defs5398">
    <inkscape:path-effect
       effect="skeletal"
       id="path-effect5950"
       is_visible="true"
       pattern="m 0,313.26772 c 0,-2.76 2.24,-5 5,-5 2.76,0 5,2.24 5,5 0,2.76 -2.24,5 -5,5 -2.76,0 -5,-2.24 -5,-5 z"
       copytype="single_stretched"
       prop_scale="1"
       scale_y_rel="false"
       spacing="0"
       normal_offset="0"
       tang_offset="0"
       prop_units="false"
       vertical_pattern="false"
       fuse_tolerance="0" />
  </defs>
  <sodipodi:namedview
     id="base"
     pagecolor="#ffffff"
     bordercolor="#666666"
     borderopacity="1.0"
     inkscape:pageopacity="0.0"
     inkscape:pageshadow="2"
     inkscape:zoom="1"
     inkscape:cx="587.19026"
     inkscape:cy="402.58677"
     inkscape:document-units="px"
     inkscape:current-layer="layer1"
     showgrid="false"
     inkscape:window-width="1680"
     inkscape:window-height="1023"
     inkscape:window-x="1680"
     inkscape:window-y="0"
     inkscape:window-maximized="1" />
  <metadata
     id="metadata5401">
    <rdf:RDF>
      <cc:Work
         rdf:about="">
        <dc:format>image/svg+xml</dc:format>
        <dc:type
           rdf:resource="http://purl.org/dc/dcmitype/StillImage" />
        <dc:title></dc:title>
      </cc:Work>
    </rdf:RDF>
  </metadata>
  <g
     inkscape:label="Layer 1"
     inkscape:groupmode="layer"
     id="layer1"
     transform="translate(0,-308.26772)">
    <text
       xml:space="preserve"
       style="font-style:normal;font-weight:normal;font-size:304.36883545px;line-height:125%;font-family:sans-serif;letter-spacing:56.76478577px;word-spacing:0px;fill:#000000;fill-opacity:1;stroke:none;stroke-width:1px;stroke-linecap:butt;stroke-linejoin:miter;stroke-opacity:1"
       x="93.45237"
       y="803.27399"
       id="text5944"
       sodipodi:linespacing="125%"
       transform="scale(1.2036808,0.83078506)"><tspan
         sodipodi:role="line"
         id="tspan5946"
         x="93.45237"
         y="803.27399">Seo</tspan></text>
    <path
       style="fill:#000000;fill-rule:evenodd;stroke:none;stroke-width:1px;stroke-linecap:butt;stroke-linejoin:miter;stroke-opacity:1"
       d="m 851,669.3622 c 2.24608,-1.50764 46.2255,61.04433 100.44706,142.16641 5.29504,0.65868 10.67061,1.33147 16.08866,2.01648 1.31308,-0.42687 2.62998,-0.85431 3.95152,-1.28267 1.49311,-0.48397 2.9817,-0.96573 4.4651,-1.44516 1.60447,-2.42975 3.21164,-4.85947 4.79761,-7.25674 C 933.42471,730.82907 883.87639,653.39591 883.79178,653.25138 884.66034,653.02884 885,653.1911 885,653.3622 c 0,0.17187 -0.33765,0.3326 -0.79178,0.11082 -0.36847,-0.49101 56.80027,80.41632 105.04183,149.69086 -2.37422,4.86395 -4.78069,9.79081 -7.20239,14.74326 -2.39165,0.92968 -4.79372,1.8627 -7.20411,2.79819 -2.13326,0.82793 -4.25975,1.65263 -6.37927,2.47398 -7.39705,-1.33849 -14.72223,-2.67095 -21.91134,-3.98351 C 890.3549,735.81764 848.75505,670.86908 851,669.3622 Z"
       id="path5948"
       inkscape:path-effect="#path-effect5950"
       inkscape:original-d="m 851,669.3622 98,146 19,3 11,-4 6,-11 -101,-150 1,0"
       inkscape:connector-curvature="0" />
    <g
       style="font-style:normal;font-weight:normal;font-size:40px;line-height:125%;font-family:sans-serif;letter-spacing:7.46000004px;word-spacing:0px;fill:#000000;fill-opacity:1;stroke:none;stroke-width:1px;stroke-linecap:butt;stroke-linejoin:miter;stroke-opacity:1"
       id="text5952">
      <path
         id="path6022"
         style=""
         d="m 887.07812,748.15906 0,13.20312 -3.59375,0 0,-13.08593 q 0,-3.10547 -1.21093,-4.64844 -1.21094,-1.54297 -3.63282,-1.54297 -2.91015,0 -4.58984,1.85547 -1.67969,1.85547 -1.67969,5.05859 l 0,12.36328 -3.61328,0 0,-21.875 3.61328,0 0,3.39844 q 1.28907,-1.97266 3.02735,-2.94922 1.75781,-0.97656 4.04297,-0.97656 3.76953,0 5.70312,2.34375 1.93359,2.32422 1.93359,6.85547 z m -41.62017,-6.15235 q -2.89063,0 -4.57032,2.26563 -1.67968,2.24609 -1.67968,6.17187 0,3.92579 1.66015,6.19141 1.67969,2.24609 4.58985,2.24609 2.87109,0 4.55078,-2.26562 1.67969,-2.26563 1.67969,-6.17188 0,-3.88671 -1.67969,-6.15234 -1.67969,-2.28516 -4.55078,-2.28516 z m 0,-3.04687 q 4.6875,0 7.36328,3.04687 2.67578,3.04688 2.67578,8.4375 0,5.3711 -2.67578,8.4375 -2.67578,3.04688 -7.36328,3.04688 -4.70703,0 -7.38282,-3.04688 -2.65625,-3.0664 -2.65625,-8.4375 0,-5.39062 2.65625,-8.4375 2.67579,-3.04687 7.38282,-3.04687 z m -27.03028,0.52734 3.59375,0 0,21.875 -3.59375,0 0,-21.875 z m 0,-8.51562 3.59375,0 0,4.55078 -3.59375,0 0,-4.55078 z m -19.60846,2.30469 0,6.21093 7.40235,0 0,2.79297 -7.40235,0 0,11.875 q 0,2.67578 0.72266,3.4375 0.74219,0.76172 2.98828,0.76172 l 3.69141,0 0,3.00781 -3.69141,0 q -4.16015,0 -5.74219,-1.54297 -1.58203,-1.5625 -1.58203,-5.66406 l 0,-11.875 -2.63672,0 0,-2.79297 2.63672,0 0,-6.21093 3.61328,0 z m -25.60455,17.08984 q -4.35547,0 -6.03516,0.99609 -1.67968,0.9961 -1.67968,3.39844 0,1.91406 1.25,3.04688 1.26953,1.11328 3.4375,1.11328 2.98828,0 4.78515,-2.10938 1.81641,-2.1289 1.81641,-5.64453 l 0,-0.80078 -3.57422,0 z m 7.16797,-1.48438 0,12.48047 -3.59375,0 0,-3.32031 q -1.23047,1.99219 -3.06641,2.94922 -1.83593,0.9375 -4.49218,0.9375 -3.35938,0 -5.35157,-1.875 -1.97265,-1.89453 -1.97265,-5.05859 0,-3.69141 2.46093,-5.56641 2.48047,-1.875 7.38282,-1.875 l 5.03906,0 0,-0.35156 q 0,-2.48047 -1.64063,-3.82813 -1.62109,-1.36719 -4.57031,-1.36719 -1.875,0 -3.65234,0.44922 -1.77735,0.44922 -3.41797,1.34766 l 0,-3.32031 q 1.97266,-0.76172 3.82812,-1.13282 1.85547,-0.39062 3.61329,-0.39062 4.74609,0 7.08984,2.46094 2.34375,2.46093 2.34375,7.46093 z m -31.4834,-8.75 0,3.39844 q -1.52344,-0.78125 -3.16406,-1.17187 -1.64063,-0.39063 -3.39844,-0.39063 -2.67578,0 -4.02344,0.82031 -1.32812,0.82032 -1.32812,2.46094 0,1.25 0.95703,1.97266 0.95703,0.70312 3.84766,1.34765 l 1.23046,0.27344 q 3.82813,0.82031 5.42969,2.32422 1.6211,1.48438 1.6211,4.16016 0,3.04687 -2.42188,4.82422 -2.40234,1.77734 -6.62109,1.77734 -1.75782,0 -3.67188,-0.35156 -1.89453,-0.33203 -4.0039,-1.01563 l 0,-3.71094 q 1.99218,1.03516 3.92578,1.5625 1.93359,0.50782 3.82812,0.50782 2.53906,0 3.90625,-0.85938 1.36719,-0.8789 1.36719,-2.46094 0,-1.46484 -0.99609,-2.24609 -0.97657,-0.78125 -4.31641,-1.50391 l -1.25,-0.29296 q -3.33984,-0.70313 -4.82422,-2.14844 -1.48437,-1.46485 -1.48437,-4.00391 0,-3.08594 2.1875,-4.76562 2.1875,-1.67969 6.21093,-1.67969 1.99219,0 3.75,0.29297 1.75782,0.29297 3.24219,0.8789 z m -32.49908,-0.64453 3.59375,0 0,21.875 -3.59375,0 0,-21.875 z m 0,-8.51562 3.59375,0 0,4.55078 -3.59375,0 0,-4.55078 z m -29.41309,12.71484 q 1.34766,-2.42187 3.22266,-3.57422 1.875,-1.15234 4.41406,-1.15234 3.41797,0 5.27344,2.40234 1.85547,2.38282 1.85547,6.79688 l 0,13.20312 -3.61329,0 0,-13.08593 q 0,-3.14454 -1.11328,-4.66797 -1.11328,-1.52344 -3.39843,-1.52344 -2.79297,0 -4.41407,1.85547 -1.62109,1.85547 -1.62109,5.05859 l 0,12.36328 -3.61328,0 0,-13.08593 q 0,-3.16407 -1.11328,-4.66797 -1.11328,-1.52344 -3.4375,-1.52344 -2.75391,0 -4.375,1.875 -1.6211,1.85547 -1.6211,5.03906 l 0,12.36328 -3.61328,0 0,-21.875 3.61328,0 0,3.39844 q 1.23047,-2.01172 2.94922,-2.96875 1.71875,-0.95703 4.08203,-0.95703 2.38282,0 4.04297,1.21094 1.67969,1.21093 2.48047,3.51562 z m -35.58502,-4.19922 3.59375,0 0,21.875 -3.59375,0 0,-21.875 z m 0,-8.51562 3.59375,0 0,4.55078 -3.59375,0 0,-4.55078 z m -19.60846,2.30469 0,6.21093 7.40234,0 0,2.79297 -7.40234,0 0,11.875 q 0,2.67578 0.72266,3.4375 0.74218,0.76172 2.98828,0.76172 l 3.6914,0 0,3.00781 -3.6914,0 q -4.16016,0 -5.74219,-1.54297 -1.58203,-1.5625 -1.58203,-5.66406 l 0,-11.875 -2.63672,0 0,-2.79297 2.63672,0 0,-6.21093 3.61328,0 z m -32.92874,24.80468 0,11.60157 -3.61328,0 0,-30.19532 3.61328,0 0,3.32032 q 1.13281,-1.95313 2.85156,-2.89063 1.73828,-0.95703 4.14063,-0.95703 3.98437,0 6.46484,3.16406 2.5,3.16406 2.5,8.32031 0,5.15625 -2.5,8.32032 -2.48047,3.16406 -6.46484,3.16406 -2.40235,0 -4.14063,-0.9375 -1.71875,-0.95703 -2.85156,-2.91016 z m 12.22656,-7.63672 q 0,-3.96484 -1.64062,-6.21093 -1.6211,-2.26563 -4.47266,-2.26563 -2.85156,0 -4.49219,2.26563 -1.62109,2.24609 -1.62109,6.21093 0,3.96485 1.62109,6.23047 1.64063,2.2461 4.49219,2.2461 2.85156,0 4.47266,-2.2461 1.64062,-2.26562 1.64062,-6.23047 z m -42.6553,-15.5664 q -4.29688,0 -6.83594,3.20312 -2.51953,3.20313 -2.51953,8.73047 0,5.50781 2.51953,8.71094 2.53906,3.20312 6.83594,3.20312 4.29687,0 6.79687,-3.20312 2.51953,-3.20313 2.51953,-8.71094 0,-5.52734 -2.51953,-8.73047 -2.5,-3.20312 -6.79687,-3.20312 z m 0,-3.20313 q 6.13281,0 9.80468,4.1211 3.67188,4.10156 3.67188,11.01562 0,6.89453 -3.67188,11.01563 -3.67187,4.10156 -9.80468,4.10156 -6.15235,0 -9.84375,-4.10156 -3.67188,-4.10157 -3.67188,-11.01563 0,-6.91406 3.67188,-11.01562 3.6914,-4.1211 9.84375,-4.1211 z m -45.54502,17.85157 0,1.75781 -16.52343,0 q 0.23437,3.71094 2.22656,5.66406 2.01172,1.93359 5.58594,1.93359 2.07031,0 4.0039,-0.50781 1.95313,-0.50781 3.86719,-1.52344 l 0,3.39844 q -1.93359,0.82031 -3.96484,1.25 -2.03125,0.42969 -4.1211,0.42969 -5.23437,0 -8.30078,-3.04688 -3.04687,-3.04687 -3.04687,-8.24218 0,-5.3711 2.89062,-8.51563 2.91016,-3.16406 7.83203,-3.16406 4.41406,0 6.97266,2.85156 2.57812,2.83203 2.57812,7.71485 z m -3.59375,-1.05469 q -0.0391,-2.94922 -1.66015,-4.70703 -1.60157,-1.75782 -4.25782,-1.75782 -3.00781,0 -4.82421,1.69922 -1.79688,1.69922 -2.07032,4.78516 l 12.8125,-0.0195 z m -29.78421,-0.3125 0,13.20312 -3.59375,0 0,-13.08593 q 0,-3.10547 -1.21093,-4.64844 -1.21094,-1.54297 -3.63282,-1.54297 -2.91015,0 -4.58984,1.85547 -1.67969,1.85547 -1.67969,5.05859 l 0,12.36328 -3.61328,0 0,-21.875 3.61328,0 0,3.39844 q 1.28906,-1.97266 3.02735,-2.94922 1.75781,-0.97656 4.04296,-0.97656 3.76954,0 5.70313,2.34375 1.93359,2.32422 1.93359,6.85547 z m -36.73733,-8.67188 3.59375,0 0,21.875 -3.59375,0 0,-21.875 z m 0,-8.51562 3.59375,0 0,4.55078 -3.59375,0 0,-4.55078 z m -18.45609,19.19922 q 0,-3.90625 -1.62109,-6.05469 -1.60156,-2.14844 -4.51172,-2.14844 -2.89063,0 -4.51172,2.14844 -1.60156,2.14844 -1.60156,6.05469 0,3.88672 1.60156,6.03515 1.62109,2.14844 4.51172,2.14844 2.91016,0 4.51172,-2.14844 1.62109,-2.14843 1.62109,-6.03515 z m 3.59375,8.47656 q 0,5.58594 -2.48047,8.30078 -2.48047,2.73438 -7.59765,2.73438 -1.89453,0 -3.57422,-0.29297 -1.67969,-0.27344 -3.26172,-0.85938 l 0,-3.49609 q 1.58203,0.85937 3.125,1.26953 1.54297,0.41016 3.14453,0.41016 3.53516,0 5.29297,-1.85547 1.75781,-1.83594 1.75781,-5.56641 l 0,-1.77734 q -1.11328,1.93359 -2.85156,2.89062 -1.73828,0.95703 -4.16016,0.95703 -4.02343,0 -6.48437,-3.0664 -2.46094,-3.06641 -2.46094,-8.125 0,-5.07813 2.46094,-8.14453 2.46094,-3.06641 6.48437,-3.06641 2.42188,0 4.16016,0.95703 1.73828,0.95703 2.85156,2.89063 l 0,-3.32032 3.59375,0 0,19.16016 z m -32.65533,-10.48828 0,13.20312 -3.59375,0 0,-13.08593 q 0,-3.10547 -1.21094,-4.64844 -1.21094,-1.54297 -3.63281,-1.54297 -2.91016,0 -4.58985,1.85547 -1.67968,1.85547 -1.67968,5.05859 l 0,12.36328 -3.61328,0 0,-21.875 3.61328,0 0,3.39844 q 1.28906,-1.97266 3.02734,-2.94922 1.75781,-0.97656 4.04297,-0.97656 3.76953,0 5.70312,2.34375 1.9336,2.32422 1.9336,6.85547 z m -50.79984,-15.95703 18.4375,0 0,3.32031 -14.49219,0 0,8.63281 13.88672,0 0,3.32031 -13.88672,0 0,10.56641 14.84375,0 0,3.32031 -18.78906,0 0,-29.16015 z m -35.01765,15.95703 0,13.20312 -3.59375,0 0,-13.08593 q 0,-3.10547 -1.21094,-4.64844 -1.21094,-1.54297 -3.63281,-1.54297 -2.91016,0 -4.58985,1.85547 -1.67968,1.85547 -1.67968,5.05859 l 0,12.36328 -3.61328,0 0,-30.39062 3.61328,0 0,11.91406 q 1.28906,-1.97266 3.02734,-2.94922 1.75781,-0.97656 4.04297,-0.97656 3.76953,0 5.70312,2.34375 1.9336,2.32422 1.9336,6.85547 z m -31.93266,-7.83203 0,3.35937 q -1.52344,-0.83984 -3.06641,-1.25 -1.52344,-0.42969 -3.08594,-0.42969 -3.49609,0 -5.42969,2.22657 -1.93359,2.20703 -1.93359,6.21093 0,4.00391 1.93359,6.23047 1.9336,2.20703 5.42969,2.20703 1.5625,0 3.08594,-0.41015 1.54297,-0.42969 3.06641,-1.26953 l 0,3.32031 q -1.50391,0.70312 -3.125,1.05469 -1.60157,0.35156 -3.41797,0.35156 -4.94141,0 -7.85157,-3.10547 -2.91015,-3.10547 -2.91015,-8.37891 0,-5.35156 2.92969,-8.41796 2.94921,-3.06641 8.0664,-3.06641 1.66016,0 3.24219,0.35156 1.58203,0.33203 3.06641,1.01563 z m -26.15141,2.51953 q -0.60547,-0.35156 -1.32813,-0.50781 -0.70312,-0.17579 -1.5625,-0.17579 -3.04687,0 -4.6875,1.99219 -1.62109,1.97266 -1.62109,5.6836 l 0,11.52343 -3.61328,0 0,-21.875 3.61328,0 0,3.39844 q 1.13281,-1.99219 2.94922,-2.94922 1.81641,-0.97656 4.41406,-0.97656 0.3711,0 0.82031,0.0586 0.44922,0.0391 0.9961,0.13672 l 0.0195,3.69141 z m -34.72562,7.51953 q -4.35547,0 -6.03516,0.99609 -1.67969,0.9961 -1.67969,3.39844 0,1.91406 1.25,3.04688 1.26953,1.11328 3.4375,1.11328 2.98828,0 4.78516,-2.10938 1.8164,-2.1289 1.8164,-5.64453 l 0,-0.80078 -3.57421,0 z m 7.16796,-1.48438 0,12.48047 -3.59375,0 0,-3.32031 q -1.23046,1.99219 -3.0664,2.94922 -1.83594,0.9375 -4.49219,0.9375 -3.35937,0 -5.35156,-1.875 -1.97266,-1.89453 -1.97266,-5.05859 0,-3.69141 2.46094,-5.56641 2.48047,-1.875 7.38281,-1.875 l 5.03906,0 0,-0.35156 q 0,-2.48047 -1.64062,-3.82813 -1.62109,-1.36719 -4.57031,-1.36719 -1.875,0 -3.65235,0.44922 -1.77734,0.44922 -3.41797,1.34766 l 0,-3.32031 q 1.97266,-0.76172 3.82813,-1.13282 1.85547,-0.39062 3.61328,-0.39062 4.74609,0 7.08984,2.46094 2.34375,2.46093 2.34375,7.46093 z m -30.46781,0.64454 0,1.75781 -16.52343,0 q 0.23437,3.71094 2.22656,5.66406 2.01172,1.93359 5.58594,1.93359 2.07031,0 4.0039,-0.50781 1.95313,-0.50781 3.86719,-1.52344 l 0,3.39844 q -1.93359,0.82031 -3.96484,1.25 -2.03125,0.42969 -4.1211,0.42969 -5.23437,0 -8.30078,-3.04688 -3.04687,-3.04687 -3.04687,-8.24218 0,-5.3711 2.89062,-8.51563 2.91016,-3.16406 7.83203,-3.16406 4.41406,0 6.97266,2.85156 2.57812,2.83203 2.57812,7.71485 z m -3.59375,-1.05469 q -0.0391,-2.94922 -1.66015,-4.70703 -1.60157,-1.75782 -4.25782,-1.75782 -3.00781,0 -4.82421,1.69922 -1.79688,1.69922 -2.07032,4.78516 l 12.8125,-0.0195 z m -30.33109,-15.3125 0,3.84765 q -2.24609,-1.07421 -4.23828,-1.60156 -1.99219,-0.52734 -3.84766,-0.52734 -3.22265,0 -4.98047,1.25 -1.73828,1.25 -1.73828,3.55469 0,1.93359 1.15235,2.92968 1.17187,0.97657 4.41406,1.58203 l 2.38281,0.48829 q 4.41406,0.83984 6.50391,2.96875 2.10937,2.10937 2.10937,5.66406 0,4.23828 -2.85156,6.42578 -2.83203,2.1875 -8.32031,2.1875 -2.07032,0 -4.41407,-0.46875 -2.32421,-0.46875 -4.82421,-1.38672 l 0,-4.0625 q 2.40234,1.34766 4.70703,2.03125 2.30468,0.68359 4.53125,0.68359 3.3789,0 5.21484,-1.32812 1.83594,-1.32813 1.83594,-3.78906 0,-2.14844 -1.32813,-3.35938 -1.30859,-1.21094 -4.3164,-1.8164 l -2.40235,-0.46875 q -4.41406,-0.87891 -6.38672,-2.75391 -1.97265,-1.875 -1.97265,-5.21484 0,-3.86719 2.71484,-6.09375 2.73438,-2.22657 7.51953,-2.22657 2.05078,0 4.17969,0.3711 2.12891,0.37109 4.35547,1.11328 z" />
    </g>
  </g>
</svg>
